STARTFONT 2.1
COMMENT
COMMENT Converted from OpenType font "comicz.ttf" by "otf2bdf 3.0".
COMMENT
FONT -FreeType-Comic Sans MS-Bold-I-Normal--30-220-100-100-P-186-ISO10646-1
SIZE 22 100 100
FONTBOUNDINGBOX 51 44 -11 -9
STARTPROPERTIES 19
FOUNDRY "FreeType"
FAMILY_NAME "Comic Sans MS"
WEIGHT_NAME "Bold"
SLANT "I"
SETWIDTH_NAME "Normal"
ADD_STYLE_NAME ""
PIXEL_SIZE 30
POINT_SIZE 220
RESOLUTION_X 100
RESOLUTION_Y 100
SPACING "P"
AVERAGE_WIDTH 186
CHARSET_REGISTRY "ISO10646"
CHARSET_ENCODING "1"
FONT_ASCENT 34
FONT_DESCENT 9
COPYRIGHT "© 2011 Microsoft Corporation. All Rights Reserved."
_OTF_FONTFILE "comicz.ttf"
_OTF_PSNAME "ComicSansMS-BoldItalic"
ENDPROPERTIES
CHARS 600
STARTCHAR 0020
ENCODING 32
SWIDTH 425 0
DWIDTH 13 0
BBX 0 0 0 0
BITMAP
ENDCHAR
STARTCHAR 0021
ENCODING 33
SWIDTH 229 0
DWIDTH 7 0
BBX 8 26 1 -1
BITMAP
07
0F
0F
0F
0F
0E
1E
1E
1E
1E
1E
1E
3C
3C
3C
3C
3C
3C
38
38
00
00
70
F8
78
70
ENDCHAR
STARTCHAR 0022
ENCODING 34
SWIDTH 458 0
DWIDTH 14 0
BBX 12 10 3 15
BITMAP
3870
7870
78F0
78F0
78F0
78F0
F1E0
F1E0
F1E0
70C0
ENDCHAR
STARTCHAR 0023
ENCODING 35
SWIDTH 850 0
DWIDTH 26 0
BBX 27 23 1 0
BITMAP
00060380
000E0780
001E0F00
003C0F00
0FFFFFE0
1FFFFFE0
1FFFFFE0
0FFFFFC0
00F03C00
01F07800
01E07800
03E0F000
03C0F000
07C1E000
FFFFFE00
FFFFFF00
FFFFFF00
FFFFFE00
1E078000
3C0F0000
780F0000
781E0000
700E0000
ENDCHAR
STARTCHAR 0024
ENCODING 36
SWIDTH 720 0
DWIDTH 22 0
BBX 19 32 2 -5
BITMAP
001C00
001C00
003C00
003C00
007F00
01FFE0
07FFE0
0FFFE0
0FB8C0
1F7800
3E7800
3E7000
3F7000
3FFE00
1FFF80
0FFFC0
00FFE0
00E3E0
00E3E0
00E3E0
00E3E0
00E7C0
71FFC0
FFFF80
FFFF00
FFFC00
3FF000
01C000
03C000
03C000
038000
038000
ENDCHAR
STARTCHAR 0025
ENCODING 37
SWIDTH 818 0
DWIDTH 25 0
BBX 21 25 5 0
BITMAP
0F01C0
3F83C0
7FC7C0
FFC780
F3CF00
E3CF00
FFDE00
FFBE00
7F3C00
3E7800
00F800
00F000
01E000
01E000
03C7C0
078FF0
079FF0
0F3FF8
1E3878
1E7878
3C7870
7C7FF0
783FE0
703FC0
700F80
ENDCHAR
STARTCHAR 0026
ENCODING 38
SWIDTH 654 0
DWIDTH 20 0
BBX 19 26 1 -1
BITMAP
000F00
003F80
003FC0
007FC0
0073C0
00F3C0
00F380
00F780
007F00
007E00
01FC00
03FC60
0FFCE0
1FBDE0
3E3FE0
7C1FE0
781FC0
F00FC0
F00F80
F00F80
F83FC0
7FFFC0
7FFFC0
3FF3E0
0FC1E0
0001C0
ENDCHAR
STARTCHAR 0027
ENCODING 39
SWIDTH 425 0
DWIDTH 13 0
BBX 5 10 7 15
BITMAP
38
78
78
78
78
F0
F0
F0
F0
E0
ENDCHAR
STARTCHAR 0028
ENCODING 40
SWIDTH 360 0
DWIDTH 11 0
BBX 12 31 2 -6
BITMAP
0070
00F0
01F0
03E0
07C0
0F80
1F00
1E00
3E00
3C00
7C00
7800
7800
F800
F800
F000
F000
F000
F000
F000
F000
F000
F000
F000
F800
F800
7C00
7E00
3F00
1F00
0E00
ENDCHAR
STARTCHAR 0029
ENCODING 41
SWIDTH 360 0
DWIDTH 11 0
BBX 13 31 0 -6
BITMAP
0300
0780
07C0
07E0
03E0
01F0
01F0
00F0
00F0
00F8
00F8
00F8
00F8
00F8
00F8
00F8
00F0
00F0
00F0
01F0
01E0
01E0
03E0
03C0
07C0
0F80
1F00
3F00
7C00
F800
7000
ENDCHAR
STARTCHAR 002A
ENCODING 42
SWIDTH 523 0
DWIDTH 16 0
BBX 15 12 3 13
BITMAP
03C0
03C0
7BFE
FFFE
FFFE
3FFC
1FE0
3FF0
7FF0
F8F8
70F8
0070
ENDCHAR
STARTCHAR 002B
ENCODING 43
SWIDTH 621 0
DWIDTH 19 0
BBX 14 12 4 3
BITMAP
0380
03C0
0780
0780
7FFC
FFFC
FFFC
3FD8
0F00
0F00
0F00
0600
ENDCHAR
STARTCHAR 002C
ENCODING 44
SWIDTH 425 0
DWIDTH 13 0
BBX 6 7 3 -5
BITMAP
1C
3C
7C
78
F0
F0
E0
ENDCHAR
STARTCHAR 002D
ENCODING 45
SWIDTH 621 0
DWIDTH 19 0
BBX 12 4 5 6
BITMAP
FFE0
FFF0
FFE0
7F80
ENDCHAR
STARTCHAR 002E
ENCODING 46
SWIDTH 425 0
DWIDTH 13 0
BBX 5 4 4 -1
BITMAP
78
F8
F8
70
ENDCHAR
STARTCHAR 002F
ENCODING 47
SWIDTH 523 0
DWIDTH 16 0
BBX 18 26 1 -1
BITMAP
000180
0003C0
0007C0
000780
000F00
000F00
001E00
003E00
003C00
007C00
007800
00F000
01F000
03E000
03C000
078000
0F8000
0F0000
1E0000
3E0000
3C0000
780000
F80000
F00000
F00000
E00000
ENDCHAR
STARTCHAR 0030
ENCODING 48
SWIDTH 621 0
DWIDTH 19 0
BBX 19 23 2 0
BITMAP
007E00
01FF00
07FF80
0FFFC0
0F87C0
1F03C0
3E03E0
3C03E0
7C03E0
7803E0
7803C0
7803C0
7803C0
F807C0
F80780
F80780
780F80
780F00
7C3F00
7FFE00
3FFC00
1FF800
0FE000
ENDCHAR
STARTCHAR 0031
ENCODING 49
SWIDTH 621 0
DWIDTH 19 0
BBX 11 23 2 0
BITMAP
00E0
01E0
07E0
0FE0
1FE0
1FE0
1FC0
03C0
03C0
03C0
03C0
0780
0780
0780
0780
0780
0780
0F00
0F00
7FC0
FFE0
FFE0
FFC0
ENDCHAR
STARTCHAR 0032
ENCODING 50
SWIDTH 621 0
DWIDTH 19 0
BBX 18 23 2 0
BITMAP
007E00
01FF00
07FF80
0FFFC0
1F87C0
1E07C0
1C07C0
000780
000F80
001F00
007E00
01FC00
03F800
0FE000
1F8000
3F0000
7E0000
7C0000
780000
FFFC00
FFFE00
FFFF00
7FFE00
ENDCHAR
STARTCHAR 0033
ENCODING 51
SWIDTH 621 0
DWIDTH 19 0
BBX 17 23 2 0
BITMAP
00FC00
03FF00
0FFF00
0FFF80
1F0780
0C0780
000780
000F80
007F00
03FF00
07FC00
07FE00
01FF00
003F00
001F00
000F00
700F00
F01F00
F83E00
FFFC00
7FF800
3FF000
0FC000
ENDCHAR
STARTCHAR 0034
ENCODING 52
SWIDTH 621 0
DWIDTH 19 0
BBX 19 23 1 0
BITMAP
000780
000F80
001F80
003F80
007F80
00FF80
00FF80
01FF00
03EF00
07CF00
0F8F00
1F0F00
3E1F00
7FFFC0
FFFFE0
FFFFE0
7FFFC0
001E00
003E00
003C00
003C00
003C00
003800
ENDCHAR
STARTCHAR 0035
ENCODING 53
SWIDTH 621 0
DWIDTH 19 0
BBX 19 23 2 0
BITMAP
0FFFC0
1FFFE0
1FFFC0
1FFF80
1E0000
1E0000
1EFC00
3FFF00
3FFF80
3FFF80
3F0780
7C07C0
7807C0
000780
000780
000780
000F80
701F00
F83E00
FFFE00
FFFC00
7FF000
1FC000
ENDCHAR
STARTCHAR 0036
ENCODING 54
SWIDTH 621 0
DWIDTH 19 0
BBX 17 23 2 0
BITMAP
001C00
003C00
007C00
01F800
03F000
07C000
0F8000
1F0000
1FF800
3FFE00
3FFF00
7FFF00
7E1F80
780F80
F80780
F80F80
F80F00
F81F00
783E00
7FFE00
7FFC00
3FF800
0FC000
ENDCHAR
STARTCHAR 0037
ENCODING 55
SWIDTH 621 0
DWIDTH 19 0
BBX 19 23 3 0
BITMAP
7FFFC0
7FFFE0
FFFFE0
7FFFC0
000F80
001F00
003E00
007C00
00F800
01F000
01F000
03E000
07C000
07C000
0F8000
0F0000
1F0000
3E0000
3E0000
7C0000
780000
780000
700000
ENDCHAR
STARTCHAR 0038
ENCODING 56
SWIDTH 621 0
DWIDTH 19 0
BBX 17 23 2 0
BITMAP
00FC00
03FF00
07FF00
0FFF80
1F0F80
1E0780
3E0780
3E0F80
3F1F00
1FFF00
1FFC00
1FFE00
3FFF00
7E1F00
780F80
F80F80
F00F80
F00F00
F81F00
FFFE00
7FFC00
7FF800
0FE000
ENDCHAR
STARTCHAR 0039
ENCODING 57
SWIDTH 621 0
DWIDTH 19 0
BBX 18 23 2 0
BITMAP
00FC00
07FF00
0FFF80
1FFFC0
3E07C0
3C03C0
7C03C0
7803C0
7803C0
7C07C0
7E0F80
7FFF80
3FFF80
1FFF00
07DF00
003E00
007C00
01F800
0FF000
7FE000
FF8000
FE0000
700000
ENDCHAR
STARTCHAR 003A
ENCODING 58
SWIDTH 425 0
DWIDTH 13 0
BBX 6 15 5 2
BITMAP
38
3C
7C
7C
38
00
00
00
00
00
70
F0
F0
F0
60
ENDCHAR
STARTCHAR 003B
ENCODING 59
SWIDTH 425 0
DWIDTH 13 0
BBX 9 20 3 -3
BITMAP
0700
0F80
0F80
0F80
0700
0000
0000
0000
0000
0000
0000
0000
0000
0C00
1E00
3C00
7C00
F000
F000
E000
ENDCHAR
STARTCHAR 003C
ENCODING 60
SWIDTH 621 0
DWIDTH 19 0
BBX 11 13 5 3
BITMAP
00E0
01E0
03E0
0FC0
1F80
7E00
FC00
FC00
7E00
1F00
0F80
0780
0300
ENDCHAR
STARTCHAR 003D
ENCODING 61
SWIDTH 621 0
DWIDTH 19 0
BBX 14 11 4 4
BITMAP
3FFC
7FFC
7FFC
3FF0
0000
0000
0000
7FF0
FFF8
FFF0
73E0
ENDCHAR
STARTCHAR 003E
ENCODING 62
SWIDTH 621 0
DWIDTH 19 0
BBX 12 14 5 3
BITMAP
1C00
1E00
1F00
1F80
0FC0
07F0
03F0
03F0
07E0
1FC0
3F00
FE00
F800
6000
ENDCHAR
STARTCHAR 003F
ENCODING 63
SWIDTH 589 0
DWIDTH 18 0
BBX 15 24 4 -1
BITMAP
07C0
1FF0
7FF8
FFFC
F8FC
607E
003E
003E
003E
007C
00FC
01F8
07F0
0FE0
3F80
3E00
3C00
3800
0000
7000
F000
F000
F000
E000
ENDCHAR
STARTCHAR 0040
ENCODING 64
SWIDTH 949 0
DWIDTH 29 0
BBX 27 27 2 -2
BITMAP
001FE000
007FFC00
01FFFE00
03FFFF00
07F07F80
0FC00FC0
1F0F07C0
3E3F03C0
3E7F03E0
7CFE03E0
79F083E0
79E3C3E0
FBC383C0
F3C783C0
F3CF87C0
F3FFFF80
F3FFFF00
F1FDFE00
F8F0F800
F8000000
7C000000
7E002000
3F81F000
1FFFF000
0FFFF000
07FFC000
00FE0000
ENDCHAR
STARTCHAR 0041
ENCODING 65
SWIDTH 752 0
DWIDTH 23 0
BBX 19 23 2 0
BITMAP
000180
0003C0
0007C0
000FC0
001FC0
001FC0
003FC0
007FC0
00FBC0
00F3C0
01F3C0
03E3C0
07C3C0
07FFC0
1FFFC0
1FFFC0
3FFFE0
3C03E0
7C03E0
F801E0
F801E0
F001E0
E000C0
ENDCHAR
STARTCHAR 0042
ENCODING 66
SWIDTH 654 0
DWIDTH 20 0
BBX 18 25 2 0
BITMAP
03F800
0FFE00
1FFF00
1FFF80
1E1F80
1E07C0
1E07C0
1E03C0
1E07C0
3E0F80
3C1F80
3FFF00
3FFE00
3FFF00
3FFF80
7C1F80
7807C0
7807C0
7807C0
780F80
787F80
7FFF00
FFFC00
FFF000
7F8000
ENDCHAR
STARTCHAR 0043
ENCODING 67
SWIDTH 621 0
DWIDTH 19 0
BBX 21 23 1 0
BITMAP
000FF0
003FF8
007FF8
00FFF0
01F8F0
03E0F0
07C000
0F8000
1F0000
1E0000
3E0000
3C0000
7C0000
780000
780000
F80000
F80380
780F80
7C3F80
7FFF00
3FFE00
1FF800
0FE000
ENDCHAR
STARTCHAR 0044
ENCODING 68
SWIDTH 720 0
DWIDTH 22 0
BBX 21 26 2 -1
BITMAP
070000
0FC000
0FF000
1FFC00
1FFF00
1EFF80
1E3FC0
1E0FE0
1E07E0
1E01F0
3E01F0
3C00F8
3C00F8
3C0078
3C0078
3C00F8
7C00F0
7800F0
7801F0
7803E0
7807E0
780FC0
FFFF80
FFFF00
3FFC00
0FF000
ENDCHAR
STARTCHAR 0045
ENCODING 69
SWIDTH 621 0
DWIDTH 19 0
BBX 20 26 2 -1
BITMAP
04FFC0
1FFFF0
1FFFF0
1FFFF0
1F80E0
1E0000
1E0000
3E0000
3E0000
3C0000
3C1F80
3FFFC0
7FFFC0
7FFF80
7FF800
780000
780000
F80000
F80000
F00000
F00000
F00000
FFFE00
FFFF00
7FFE00
3FFC00
ENDCHAR
STARTCHAR 0046
ENCODING 70
SWIDTH 621 0
DWIDTH 19 0
BBX 20 26 1 -1
BITMAP
02FF80
0FFFE0
0FFFF0
0FFFF0
1F80E0
1F0000
1E0000
1E0000
1E0000
1FFF00
3FFF80
3FFF80
3FFF80
3F0000
3C0000
3C0000
3C0000
7C0000
7C0000
780000
780000
780000
780000
780000
F80000
700000
ENDCHAR
STARTCHAR 0047
ENCODING 71
SWIDTH 687 0
DWIDTH 21 0
BBX 22 26 0 -1
BITMAP
000F80
003FE0
007FF0
00FFF8
01F9F8
03E070
07C000
07C000
0F8000
1F0000
1E0000
3E0000
3C07F8
7C7FFC
79FFFC
79FFF8
79FDF0
79C1F0
F803E0
F807E0
F80FC0
7C3F80
7FFF00
7FFE00
3FF800
0FE000
ENDCHAR
STARTCHAR 0048
ENCODING 72
SWIDTH 785 0
DWIDTH 24 0
BBX 24 26 2 -1
BITMAP
060006
0F000F
0F000F
0F001F
1E001E
1E001E
1E001E
1E003E
1E003E
1C003C
3C07FC
3CFFFC
3FFFFC
3FFFFC
3FF878
7E0078
780078
780078
780078
780078
F000F8
F000F8
F000F8
F000F0
F00060
E00000
ENDCHAR
STARTCHAR 0049
ENCODING 73
SWIDTH 556 0
DWIDTH 17 0
BBX 19 23 1 -1
BITMAP
0FFF00
1FFFE0
1FFFE0
1FFFC0
00F380
01F000
01F000
01E000
01E000
01E000
01E000
03E000
03E000
03C000
03C000
03C000
03C000
07C000
07C000
3FFE00
FFFE00
FFFE00
FFFC00
ENDCHAR
STARTCHAR 004A
ENCODING 74
SWIDTH 687 0
DWIDTH 21 0
BBX 22 24 1 -1
BITMAP
00FFFC
01FFFC
01FFFC
01FFFC
000780
000F80
000F00
000F00
000F00
000F00
001F00
001E00
001E00
001E00
001E00
703C00
783C00
F83C00
F83C00
7E7800
7FF800
3FF000
1FE000
07C000
ENDCHAR
STARTCHAR 004B
ENCODING 75
SWIDTH 621 0
DWIDTH 19 0
BBX 19 24 2 -1
BITMAP
0E00C0
1F03E0
1F07E0
1E0FC0
1E1F80
1E3F00
1E7E00
3CFC00
3DF800
3FF000
3FC000
3F8000
7F0000
7F8000
7FC000
7FE000
7FF000
FBF800
F9FC00
F0FF00
F07F80
F03F00
F00F00
E00000
ENDCHAR
STARTCHAR 004C
ENCODING 76
SWIDTH 556 0
DWIDTH 17 0
BBX 16 24 1 -1
BITMAP
0E00
0F00
1F00
1E00
1E00
1E00
1E00
1E00
3E00
3C00
3C00
3C00
3C00
7C00
7800
7800
7800
F800
F00E
F0FF
FFFF
FFFE
FFF8
7F00
ENDCHAR
STARTCHAR 004D
ENCODING 77
SWIDTH 883 0
DWIDTH 27 0
BBX 26 24 1 -1
BITMAP
00700700
00F80F00
00F80F80
01F81F80
01F81F80
03F83F80
03F83F80
03F87F80
07F87F80
07F87780
07F8F780
0F78F780
0F79E780
1E79E780
1E7BC780
3E7BC780
3C7F8780
3C3F8780
7C3F0780
783F07C0
783E07C0
F83C07C0
F01807C0
60000380
ENDCHAR
STARTCHAR 004E
ENCODING 78
SWIDTH 818 0
DWIDTH 25 0
BBX 26 26 1 -1
BITMAP
07000000
0F000000
1F800380
1F8003C0
1FC003C0
1FC007C0
1FE007C0
1FF007C0
1FF007C0
1EF80780
1EF80780
3E7C0780
3E3E0780
3C3F0F80
3C1F0F80
3C0F8F00
3C0FCF00
3C07EF00
7C03FF00
7C01FF00
7801FE00
7800FE00
78007E00
F8003E00
F0001C00
70000000
ENDCHAR
STARTCHAR 004F
ENCODING 79
SWIDTH 818 0
DWIDTH 25 0
BBX 24 24 2 -1
BITMAP
001FE0
007FF8
01FFFC
03FFFE
07F07E
0FC01F
1F801F
1F001F
3E001F
3C001F
7C001F
78001E
F8001E
F0003E
F0003C
F0007C
F000F8
F801F8
FC03F0
7F0FE0
7FFFC0
3FFF80
0FFE00
03F800
ENDCHAR
STARTCHAR 0050
ENCODING 80
SWIDTH 556 0
DWIDTH 17 0
BBX 18 25 1 0
BITMAP
07F800
0FFE00
0FFF00
0FFF80
0F0F80
1F0780
1E07C0
1E07C0
1E0780
1E0780
3E0F80
3C3F00
3FFE00
3FFC00
3FF000
7FC000
780000
780000
780000
780000
780000
F00000
F00000
F00000
600000
ENDCHAR
STARTCHAR 0051
ENCODING 81
SWIDTH 883 0
DWIDTH 27 0
BBX 26 29 2 -6
BITMAP
000FF000
007FFC00
01FFFE00
03FFFF00
07F87F80
0FC01F80
1F000F80
3E0007C0
7C0007C0
780007C0
F80007C0
F80007C0
F00007C0
F0000780
F0000780
F81C0780
F83E0F00
FC3E1F00
7E1F3E00
3F9FFC00
3FFFF800
1FFFF000
07FFF800
01FFFC00
0000FE00
00007F00
00003F00
00001F00
00000600
ENDCHAR
STARTCHAR 0052
ENCODING 82
SWIDTH 654 0
DWIDTH 20 0
BBX 18 23 2 0
BITMAP
0FE000
1FF800
1FFE00
1FFF00
3C7F80
3C1FC0
3C07C0
3C03C0
3C03C0
3C03C0
7C07C0
783F80
7FFF00
7FFE00
7FF800
7FF000
FFFC00
F1FE00
F07F00
F03F80
F00F80
F00780
E00300
ENDCHAR
STARTCHAR 0053
ENCODING 83
SWIDTH 720 0
DWIDTH 22 0
BBX 21 24 1 -1
BITMAP
000FC0
003FF8
00FFF8
01FFF8
03F070
07C000
0F8000
0F8000
0F8000
0FFF80
0FFFE0
07FFF0
00FFF0
0001F8
0000F8
0000F8
0000F8
7000F0
F803F0
FC0FE0
FFFFC0
7FFF80
3FFE00
0FF000
ENDCHAR
STARTCHAR 0054
ENCODING 84
SWIDTH 720 0
DWIDTH 22 0
BBX 22 23 3 0
BITMAP
7FFFF8
FFFFFC
FFFFFC
7FFFF8
00F000
00F000
00F000
00F000
01F000
01F000
01F000
01E000
01E000
01E000
01E000
01E000
01E000
01E000
03E000
03E000
03C000
03C000
038000
ENDCHAR
STARTCHAR 0055
ENCODING 85
SWIDTH 752 0
DWIDTH 23 0
BBX 22 24 3 -1
BITMAP
180038
3C007C
3C0078
7C0078
780078
780078
7800F8
7800F0
F800F0
F800F0
F001F0
F001E0
F001E0
F001E0
F003C0
F003C0
F007C0
F00F80
F81F00
FC3F00
7FFE00
7FFC00
3FF800
0FE000
ENDCHAR
STARTCHAR 0056
ENCODING 86
SWIDTH 687 0
DWIDTH 21 0
BBX 19 24 4 -1
BITMAP
7000E0
7801E0
F803E0
F803E0
F807C0
780780
780F80
780F00
781F00
7C3E00
7C3C00
7C7C00
3C7800
3CF800
3CF000
3DF000
3FE000
3FE000
3FC000
1F8000
1F8000
1F0000
1F0000
0E0000
ENDCHAR
STARTCHAR 0057
ENCODING 87
SWIDTH 1047 0
DWIDTH 32 0
BBX 31 24 4 -1
BITMAP
7001800C
F007C01E
F807C03E
F80FC03C
F81FC07C
781FC078
783FC0F8
783FC0F0
7C3FC1F0
7C7FC1E0
7C7BC3C0
3CFBC7C0
3CF3C780
3DF3CF80
3DE3CF00
3FE3DE00
3FC3DE00
3F83FC00
3F83F800
3F03F800
3F03F000
3F03F000
1E03E000
1C01C000
ENDCHAR
STARTCHAR 0058
ENCODING 88
SWIDTH 720 0
DWIDTH 22 0
BBX 25 24 0 -1
BITMAP
07000300
0F800780
0FC00F80
07C01F00
03E03E00
03F07C00
01F0F800
00F9F000
00FFE000
007FC000
003F8000
003F0000
003F0000
007F8000
00FF8000
01F7C000
07E7C000
0FC3E000
1F83F000
3F01F000
7E00F800
FC00F800
F8007800
70003000
ENDCHAR
STARTCHAR 0059
ENCODING 89
SWIDTH 654 0
DWIDTH 20 0
BBX 19 24 3 -1
BITMAP
7000E0
F001E0
F801E0
F803E0
7C07C0
7C0780
3E0F80
3E1F00
1F1F00
1F3E00
0FFC00
0FFC00
07F800
07F800
03F000
03E000
07E000
07C000
0F8000
1F8000
1F0000
3E0000
3C0000
180000
ENDCHAR
STARTCHAR 005A
ENCODING 90
SWIDTH 720 0
DWIDTH 22 0
BBX 24 23 0 0
BITMAP
0FFFFF
0FFFFF
0FFFFF
0FFFFE
0001FC
0003F0
0007E0
000FC0
001F00
003E00
007C00
00F800
01F000
03E000
07E000
0FC000
0F8000
1F0000
3E0000
7FFFF0
FFFFF8
FFFFF8
7FFFF0
ENDCHAR
STARTCHAR 005B
ENCODING 91
SWIDTH 392 0
DWIDTH 12 0
BBX 13 29 1 -6
BITMAP
07F8
0FF8
0FF8
0FF0
0F00
1F00
1E00
1E00
1E00
1E00
1E00
1E00
3C00
3C00
3C00
3C00
3C00
3C00
7800
7800
7800
7800
7800
7800
F800
FF80
FF80
FF80
FF00
ENDCHAR
STARTCHAR 005C
ENCODING 92
SWIDTH 556 0
DWIDTH 17 0
BBX 11 25 5 -2
BITMAP
7000
F800
F800
7800
7C00
3C00
3E00
3E00
1E00
1E00
1F00
0F00
0F00
0F00
0F80
0780
0780
0780
07C0
03C0
03C0
03E0
03E0
01E0
01C0
ENDCHAR
STARTCHAR 005D
ENCODING 93
SWIDTH 392 0
DWIDTH 12 0
BBX 13 29 0 -6
BITMAP
07F8
07F8
0FF8
07F8
0078
0078
0078
00F0
00F0
00F0
00F0
00F0
00F0
01F0
01E0
01E0
01E0
01E0
01E0
03E0
03C0
03C0
03C0
03C0
03C0
7FC0
FF80
FF80
7F80
ENDCHAR
STARTCHAR 005E
ENCODING 94
SWIDTH 621 0
DWIDTH 19 0
BBX 13 8 6 17
BITMAP
0380
07C0
1FE0
3FF0
7FF0
F8F8
F078
E030
ENDCHAR
STARTCHAR 005F
ENCODING 95
SWIDTH 621 0
DWIDTH 19 0
BBX 22 3 -2 -5
BITMAP
FFFFFC
FFFFFC
FFFFFC
ENDCHAR
STARTCHAR 0060
ENCODING 96
SWIDTH 556 0
DWIDTH 17 0
BBX 7 7 5 18
BITMAP
70
F8
FC
7C
3E
1E
0E
ENDCHAR
STARTCHAR 0061
ENCODING 97
SWIDTH 556 0
DWIDTH 17 0
BBX 16 16 1 0
BITMAP
01F8
07FE
0FFF
3FFE
3E1E
7C3E
F83C
F03C
F03C
F03C
F03C
F03C
FFFC
FFFE
7FFE
1F1C
ENDCHAR
STARTCHAR 0062
ENCODING 98
SWIDTH 589 0
DWIDTH 18 0
BBX 16 24 2 0
BITMAP
0C00
1E00
1E00
1C00
3C00
3C00
3C00
3C00
3DF8
3FFC
7FFE
7FFF
7E1F
780F
780F
700F
F00F
F00F
F01E
F03E
FFFC
FFF8
FFF0
DFC0
ENDCHAR
STARTCHAR 0063
ENCODING 99
SWIDTH 523 0
DWIDTH 16 0
BBX 15 16 1 0
BITMAP
01F0
07FC
0FFE
1FFE
3E1E
3C00
7800
7800
F000
F000
F000
F838
FFFC
7FF8
3FF0
0FC0
ENDCHAR
STARTCHAR 0064
ENCODING 100
SWIDTH 589 0
DWIDTH 18 0
BBX 18 24 2 0
BITMAP
0001C0
0001C0
0003C0
0003C0
0003C0
0003C0
000780
000780
03F780
0FFF80
1FFF00
3FFF00
7C1F00
780F00
F00F00
F01E00
F01E00
F01E00
F01E00
F87E00
FFFE00
7FFE00
3FFE00
1F9C00
ENDCHAR
STARTCHAR 0065
ENCODING 101
SWIDTH 556 0
DWIDTH 17 0
BBX 16 16 1 0
BITMAP
01F8
07FE
0FFF
1FFF
3E1F
7C7E
7BFC
7FF8
FFC0
FF00
F800
F80E
7FFE
7FFE
3FF8
0FE0
ENDCHAR
STARTCHAR 0066
ENCODING 102
SWIDTH 523 0
DWIDTH 16 0
BBX 15 26 3 -2
BITMAP
007E
00FE
01FE
03FC
07C0
0780
0780
0F00
0FF0
FFFC
FFFC
FFF8
7E00
1E00
1E00
1E00
1E00
1E00
3C00
3C00
3C00
3C00
3C00
7C00
7800
7800
ENDCHAR
STARTCHAR 0067
ENCODING 103
SWIDTH 523 0
DWIDTH 16 0
BBX 19 24 -1 -8
BITMAP
007F00
01FF80
03FFE0
07F7E0
0F83C0
1F03C0
1E03C0
3E0780
3C0780
3C0F80
3C0F80
3C1F00
3FFF00
1FFF00
0FFF00
07CF00
001E00
001E00
003E00
007C00
7FFC00
FFF800
FFE000
7F8000
ENDCHAR
STARTCHAR 0068
ENCODING 104
SWIDTH 589 0
DWIDTH 18 0
BBX 16 24 2 0
BITMAP
0E00
1E00
1F00
1E00
1E00
1E00
1E00
3E00
3C7C
3DFE
3FFF
3FFF
3F8F
7F0E
7E1E
7C1E
781E
781E
781E
F81E
F81E
F01E
F01E
E01C
ENDCHAR
STARTCHAR 0069
ENCODING 105
SWIDTH 294 0
DWIDTH 9 0
BBX 9 23 2 0
BITMAP
0700
0F80
0F80
0F00
0000
0000
0000
0C00
1E00
3E00
3C00
3C00
3C00
3C00
7C00
7800
7800
7800
7800
7800
F800
F000
7000
ENDCHAR
STARTCHAR 006A
ENCODING 106
SWIDTH 425 0
DWIDTH 13 0
BBX 13 31 -3 -8
BITMAP
0038
0078
00F8
0078
0020
0000
0000
0070
00F0
00F0
00F0
00F0
00F0
01F0
01F0
01F0
01F0
01F0
01E0
01E0
01E0
01E0
01E0
01E0
63E0
F3E0
F3C0
FFC0
FF80
7F00
3E00
ENDCHAR
STARTCHAR 006B
ENCODING 107
SWIDTH 556 0
DWIDTH 17 0
BBX 17 24 1 0
BITMAP
070000
0F0000
0F0000
0F0000
0F0000
1F0000
1F0000
1E0300
1E0F80
1E1F80
1E3F00
3E7E00
3DFC00
3FF000
3FE000
3FF000
7FF800
7EF800
787C00
787C00
783E00
F83E00
F01E00
700C00
ENDCHAR
STARTCHAR 006C
ENCODING 108
SWIDTH 261 0
DWIDTH 8 0
BBX 8 24 2 0
BITMAP
06
0F
0F
1F
1E
1E
1E
1E
1E
3E
3C
3C
3C
3C
3C
7C
78
78
78
78
78
F8
F0
70
ENDCHAR
STARTCHAR 006D
ENCODING 109
SWIDTH 785 0
DWIDTH 24 0
BBX 22 16 2 0
BITMAP
18F1F0
3DFBF8
7FFFFC
7FFFFC
7FFF7C
7E7C3C
7C783C
78783C
F8787C
F8787C
F0787C
F0787C
F07878
F0F878
F0F078
E07038
ENDCHAR
STARTCHAR 006E
ENCODING 110
SWIDTH 523 0
DWIDTH 16 0
BBX 16 16 1 0
BITMAP
1C7C
1EFE
3FFE
3FFF
3FCF
3F1E
3E1E
3C1E
7C1E
781E
781E
783E
F83E
F83E
F03E
701C
ENDCHAR
STARTCHAR 006F
ENCODING 111
SWIDTH 523 0
DWIDTH 16 0
BBX 16 16 1 0
BITMAP
01F8
07FC
0FFE
1FFE
3E1E
3C1F
7C1F
781E
781E
F81E
F83E
7C7C
7FF8
7FF0
3FE0
0F80
ENDCHAR
STARTCHAR 0070
ENCODING 112
SWIDTH 556 0
DWIDTH 17 0
BBX 17 24 0 -8
BITMAP
077C00
0FFF00
1FFF00
1FFF80
1F8F80
1E0780
1E0780
1E0780
1E0780
3E0F80
3C0F00
3C1F00
3FFE00
3FFC00
3FF800
3FE000
780000
780000
780000
780000
780000
F80000
F00000
700000
ENDCHAR
STARTCHAR 0071
ENCODING 113
SWIDTH 523 0
DWIDTH 16 0
BBX 16 24 1 -8
BITMAP
00FE
07FF
0FFF
1FFF
3F1E
7C1E
781E
781E
F83E
F03C
F03C
F87C
FFFC
7FF8
3FF8
0FF8
00F0
00F0
00F0
01F0
01E0
01E0
01E0
01C0
ENDCHAR
STARTCHAR 0072
ENCODING 114
SWIDTH 490 0
DWIDTH 15 0
BBX 15 16 1 0
BITMAP
1C7C
1DFE
3FFE
3FFE
3F9E
3E1E
3C1C
7C00
7800
7800
7800
7800
7800
7800
F000
7000
ENDCHAR
STARTCHAR 0073
ENCODING 115
SWIDTH 490 0
DWIDTH 15 0
BBX 15 16 1 0
BITMAP
03FC
0FFE
1FFE
3FFC
3C1C
3E00
3F80
1FE0
07F0
01F8
0078
0078
FFF8
FFF0
FFE0
3F80
ENDCHAR
STARTCHAR 0074
ENCODING 116
SWIDTH 490 0
DWIDTH 15 0
BBX 12 21 3 0
BITMAP
0700
0700
0F00
0F00
0F00
FFF0
FFF0
FFF0
FFF0
1E00
1E00
1E00
3C00
3C00
3C00
3C00
3CE0
3FE0
3FE0
1FC0
0F00
ENDCHAR
STARTCHAR 0075
ENCODING 117
SWIDTH 523 0
DWIDTH 16 0
BBX 15 16 2 0
BITMAP
380E
3C1E
781E
781E
783E
F83C
F03C
F03C
F03C
F03C
F07C
F078
FFF8
FFF8
7FF8
3F70
ENDCHAR
STARTCHAR 0076
ENCODING 118
SWIDTH 490 0
DWIDTH 15 0
BBX 14 16 3 0
BITMAP
601C
F03C
F03C
F07C
F878
F8F0
79F0
79E0
7BE0
7FC0
3F80
3F80
3F00
3E00
1E00
1C00
ENDCHAR
STARTCHAR 0077
ENCODING 119
SWIDTH 687 0
DWIDTH 21 0
BBX 20 16 3 0
BITMAP
706070
F0F0F0
F1F0F0
F1F1E0
F3F1E0
F3F3C0
F7F3C0
F777C0
FF7780
FE7780
FC7F00
FC7F00
F87E00
F87C00
F07C00
603800
ENDCHAR
STARTCHAR 0078
ENCODING 120
SWIDTH 589 0
DWIDTH 18 0
BBX 20 16 0 0
BITMAP
070070
0F80F0
0F81F0
07C7E0
03EFC0
03FF80
01FE00
01FC00
01F800
03FC00
0FFE00
1FBF00
3F1F00
7C0F80
F80F80
700700
ENDCHAR
STARTCHAR 0079
ENCODING 121
SWIDTH 556 0
DWIDTH 17 0
BBX 17 24 2 -8
BITMAP
700300
F80780
F80F80
7C1F00
7C1F00
7C3E00
3E7C00
3E7C00
1FF800
1FF000
1FF000
0FE000
0FC000
07C000
0F8000
0F0000
1F0000
3E0000
3C0000
7C0000
780000
F80000
F00000
600000
ENDCHAR
STARTCHAR 007A
ENCODING 122
SWIDTH 556 0
DWIDTH 17 0
BBX 17 17 1 -1
BITMAP
1FFF80
3FFF80
3FFF80
1FFF00
003E00
007C00
00F800
01F000
03E000
07C000
0F8000
1F0000
3FF800
7FFC00
FFFE00
FFFC00
600000
ENDCHAR
STARTCHAR 007B
ENCODING 123
SWIDTH 360 0
DWIDTH 11 0
BBX 14 31 1 -6
BITMAP
00F8
01FC
03F8
07F0
0780
0F00
0F00
0F00
0F00
0F00
0F00
1F00
1E00
3E00
7E00
FC00
F800
FC00
7C00
3C00
3C00
3C00
7800
7800
7800
7800
7C00
7F80
3F80
3F80
0F00
ENDCHAR
STARTCHAR 007C
ENCODING 124
SWIDTH 425 0
DWIDTH 13 0
BBX 8 30 4 -5
BITMAP
07
0F
0F
0F
0F
0F
0F
1E
1E
1E
1E
1E
1E
3C
3C
3C
3C
3C
3C
78
78
78
78
78
78
F0
F0
F0
F0
60
ENDCHAR
STARTCHAR 007D
ENCODING 125
SWIDTH 360 0
DWIDTH 11 0
BBX 13 31 -1 -6
BITMAP
0780
0FE0
0FE0
0FF0
00F0
00F0
00F0
00F0
01E0
01E0
01E0
01E0
01E0
01E0
01F0
01F8
00F8
01F8
03E0
03C0
03C0
03C0
03C0
0780
0780
0780
0F00
7F00
FE00
FC00
F800
ENDCHAR
STARTCHAR 007E
ENCODING 126
SWIDTH 621 0
DWIDTH 19 0
BBX 17 7 2 7
BITMAP
078000
1FC380
3FE780
7DF780
F9FF80
F0FF00
003C00
ENDCHAR
STARTCHAR 00A0
ENCODING 160
SWIDTH 490 0
DWIDTH 15 0
BBX 0 0 0 0
BITMAP
ENDCHAR
STARTCHAR 00A1
ENCODING 161
SWIDTH 229 0
DWIDTH 7 0
BBX 8 25 2 -1
BITMAP
0E
0F
1F
0E
00
00
1C
1C
3C
3C
3C
3C
3C
3C
78
78
78
78
78
78
F0
F0
F0
F0
E0
ENDCHAR
STARTCHAR 00A2
ENCODING 162
SWIDTH 621 0
DWIDTH 19 0
BBX 17 26 2 0
BITMAP
006000
007000
007000
007000
01FF80
07FF80
0FFF80
1FFF00
3EE700
3CE200
79C000
79C000
F1C000
F1C000
F1C000
F1C700
F38F00
7B9F00
7FFE00
3FFC00
1FF800
07E000
070000
070000
070000
070000
ENDCHAR
STARTCHAR 00A3
ENCODING 163
SWIDTH 818 0
DWIDTH 25 0
BBX 22 25 2 -2
BITMAP
001FC0
007FF0
00FFF8
01FFFC
03E07C
07C038
078000
0F0000
0F0000
7FFF80
FFFFC0
FFFFC0
FFFF80
0F0000
0F0000
0F0000
0F0000
0F0000
0E0038
1F0078
3FE078
7FFFF0
FFFFF0
F0FFE0
001F80
ENDCHAR
STARTCHAR 00A4
ENCODING 164
SWIDTH 621 0
DWIDTH 19 0
BBX 21 17 1 3
BITMAP
0C0000
1E0030
1F01F8
1FFFF8
0FFFF0
07FFC0
0FFF00
0F0F00
1F0F00
0F1F00
1FFE00
3FFE00
7FFF00
FDFF80
F00F80
E00F80
000700
ENDCHAR
STARTCHAR 00A5
ENCODING 165
SWIDTH 621 0
DWIDTH 19 0
BBX 18 24 3 -1
BITMAP
300180
7803C0
780780
780780
3C0F00
3C1E00
3E1E00
1E3C00
7F7F00
FFFF00
FFFF00
3FFC00
07C000
3FF800
7FFC00
7FFC00
1FF000
078000
070000
070000
070000
0F0000
0F0000
060000
ENDCHAR
STARTCHAR 00A6
ENCODING 166
SWIDTH 425 0
DWIDTH 13 0
BBX 8 31 4 -5
BITMAP
07
0F
0F
0F
0F
0F
1E
1E
1E
1E
1E
1E
1C
1C
00
00
00
18
38
78
78
78
78
78
78
F0
F0
F0
F0
F0
E0
ENDCHAR
STARTCHAR 00A7
ENCODING 167
SWIDTH 654 0
DWIDTH 20 0
BBX 18 26 2 -1
BITMAP
007E00
01FF80
03FFC0
07FFC0
0F83C0
0F0180
0F8000
07E000
07F800
0FFE00
1CFF00
1C1F80
3C0780
3E0780
1FC780
0FFF00
07FF00
00FF00
F03F00
F01F00
F00F00
F01F00
FC7E00
7FFC00
3FF800
0FE000
ENDCHAR
STARTCHAR 00A8
ENCODING 168
SWIDTH 556 0
DWIDTH 17 0
BBX 12 4 6 18
BITMAP
79E0
F9F0
FBF0
F1E0
ENDCHAR
STARTCHAR 00A9
ENCODING 169
SWIDTH 818 0
DWIDTH 25 0
BBX 23 21 2 4
BITMAP
001FC0
00FFF0
01FFF8
07FFFC
0FC03E
1F1F1E
3E7F1E
3CFF0E
79F00E
7BC01E
F3811E
F3C79E
F3FF3E
F3FF3C
F0FC78
F801F8
7C03F0
7FFFE0
3FFF80
1FFF00
03F800
ENDCHAR
STARTCHAR 00AA
ENCODING 170
SWIDTH 621 0
DWIDTH 19 0
BBX 12 12 5 13
BITMAP
07C0
1FF0
3FF0
7CF0
78F0
F0E0
F0E0
F1E0
F1E0
FFF0
7FF0
3E60
ENDCHAR
STARTCHAR 00AB
ENCODING 171
SWIDTH 654 0
DWIDTH 20 0
BBX 21 13 1 3
BITMAP
00E030
01F0F8
03E1F0
07C3E0
1F8FC0
7F1F80
FC3F00
FE3F00
3F1F80
1F8FC0
0FC7E0
07C3E0
0381C0
ENDCHAR
STARTCHAR 00AC
ENCODING 172
SWIDTH 621 0
DWIDTH 19 0
BBX 14 9 4 3
BITMAP
7FF8
FFFC
FFFC
FFFC
003C
0078
0078
0078
0030
ENDCHAR
STARTCHAR 00AD
ENCODING 173
SWIDTH 621 0
DWIDTH 19 0
BBX 12 4 5 6
BITMAP
FFE0
FFF0
FFE0
7F80
ENDCHAR
STARTCHAR 00AE
ENCODING 174
SWIDTH 818 0
DWIDTH 25 0
BBX 24 22 2 3
BITMAP
001FC0
00FFF0
03FFF8
07FFFC
0FC07E
1F3F3E
3E7F9E
3CE3CF
79E3CF
79C78F
73FF8F
F3FE1E
F3F81E
F7FC1E
F7BE3C
F30E7C
F800F8
7C03F0
7FFFE0
3FFFC0
1FFF00
03F800
ENDCHAR
STARTCHAR 00AF
ENCODING 175
SWIDTH 556 0
DWIDTH 17 0
BBX 13 4 6 17
BITMAP
3C60
FFF8
FFF8
7FF0
ENDCHAR
STARTCHAR 00B0
ENCODING 176
SWIDTH 621 0
DWIDTH 19 0
BBX 12 11 6 15
BITMAP
0F80
1FE0
3FF0
78F0
F0F0
F070
F0F0
F1E0
7FE0
7F80
1F00
ENDCHAR
STARTCHAR 00B1
ENCODING 177
SWIDTH 621 0
DWIDTH 19 0
BBX 16 18 2 -2
BITMAP
00E0
00E0
01E0
01E0
01E0
1FFF
3FFF
3FFF
1FFE
03C0
03C0
03C0
0380
0000
7FFC
FFFC
FFFC
7FF8
ENDCHAR
STARTCHAR 00B2
ENCODING 178
SWIDTH 621 0
DWIDTH 19 0
BBX 11 13 4 12
BITMAP
0780
1FC0
3FE0
79E0
71E0
03C0
0FC0
1F80
3E00
7800
FFC0
FFC0
7F80
ENDCHAR
STARTCHAR 00B3
ENCODING 179
SWIDTH 621 0
DWIDTH 19 0
BBX 11 13 4 12
BITMAP
1FC0
3FE0
3FE0
11E0
03C0
0F80
1F80
0FC0
01C0
77C0
FFC0
FF80
7E00
ENDCHAR
STARTCHAR 00B4
ENCODING 180
SWIDTH 556 0
DWIDTH 17 0
BBX 8 7 6 18
BITMAP
07
0F
3F
7E
F8
F0
E0
ENDCHAR
STARTCHAR 00B5
ENCODING 181
SWIDTH 621 0
DWIDTH 19 0
BBX 22 21 -1 -5
BITMAP
00701C
00F03C
00F07C
01E078
01E0F8
03C0F0
03C1F0
0781E0
0781E0
0783C0
0F03C0
0F07C0
0FFF80
1FFF80
1FFF00
3FFE00
3C0000
780000
780000
F00000
600000
ENDCHAR
STARTCHAR 00B6
ENCODING 182
SWIDTH 785 0
DWIDTH 24 0
BBX 22 28 2 -3
BITMAP
0003DC
003FDC
00FFFC
03FFBC
0FFF3C
1FCF3C
1F0F3C
3C0F3C
7C0F3C
780F38
F01E78
F01E78
F01E78
F01EF0
F83CF0
FC3CF0
7FFDE0
3FF9E0
1FF9E0
01FBC0
00FBC0
00F3C0
00F780
01F780
01EF80
01EF00
03CF00
01CE00
ENDCHAR
STARTCHAR 00B7
ENCODING 183
SWIDTH 621 0
DWIDTH 19 0
BBX 5 4 8 9
BITMAP
78
78
F8
70
ENDCHAR
STARTCHAR 00B8
ENCODING 184
SWIDTH 556 0
DWIDTH 17 0
BBX 9 8 4 -6
BITMAP
1C00
3F00
1F80
0780
E780
FF80
FF00
3E00
ENDCHAR
STARTCHAR 00B9
ENCODING 185
SWIDTH 621 0
DWIDTH 19 0
BBX 10 13 5 12
BITMAP
0300
0F00
3F00
7F00
7F00
0E00
0E00
0E00
0E00
0E00
FF80
FFC0
FF80
ENDCHAR
STARTCHAR 00BA
ENCODING 186
SWIDTH 621 0
DWIDTH 19 0
BBX 13 12 5 13
BITMAP
07C0
1FF0
3FF0
7CF8
7878
F078
F078
F0F0
F9F0
7FE0
3FC0
1F00
ENDCHAR
STARTCHAR 00BB
ENCODING 187
SWIDTH 654 0
DWIDTH 20 0
BBX 20 13 1 3
BITMAP
381C00
7C1E00
7E1F00
3F1F80
1F8FC0
0FC7E0
07E3F0
0FE7F0
1F8FC0
7E1F00
FC3E00
F87C00
603000
ENDCHAR
STARTCHAR 00BC
ENCODING 188
SWIDTH 621 0
DWIDTH 19 0
BBX 17 31 3 -6
BITMAP
007000
00F000
03F000
07F000
07E000
00E000
00E000
00E000
01E000
0FF800
0FF800
0FF800
000000
7FFF00
FFFF80
FFFF80
000F00
01C000
03E000
07C000
0FC000
1FC000
3DC000
718000
FFE000
FFF000
FFE000
038000
038000
038000
030000
ENDCHAR
STARTCHAR 00BD
ENCODING 189
SWIDTH 621 0
DWIDTH 19 0
BBX 17 31 3 -6
BITMAP
007000
00F000
03F000
07F000
07E000
00E000
00E000
00E000
01E000
0FF800
0FF800
0FF800
000000
FFFE00
FFFF80
FFFF00
001E00
078000
1FE000
3FE000
3CE000
38E000
01E000
07E000
0FC000
3F8000
7E0000
7CC000
7FE000
7FE000
7FC000
ENDCHAR
STARTCHAR 00BE
ENCODING 190
SWIDTH 621 0
DWIDTH 19 0
BBX 18 31 2 -6
BITMAP
00FC00
01FE00
03FF00
010F00
003E00
00F800
00FC00
001E00
071E00
07FE00
07FC00
07F000
000000
7FFF00
FFFFC0
FFFF80
000F00
00E000
01F000
03E000
07E000
0FE000
1EE000
38C000
7FF000
7FF800
7FF000
01C000
01C000
01C000
018000
ENDCHAR
STARTCHAR 00BF
ENCODING 191
SWIDTH 589 0
DWIDTH 18 0
BBX 15 24 2 -1
BITMAP
000E
001E
001E
001E
001C
0000
0000
0038
0078
01F8
07F0
0FE0
3F80
7E00
7C00
F800
F000
F000
F81C
FC3C
7FFC
3FFC
1FF0
07C0
ENDCHAR
STARTCHAR 00C0
ENCODING 192
SWIDTH 752 0
DWIDTH 23 0
BBX 19 32 2 0
BITMAP
000700
000F80
000FC0
0007C0
0003E0
0001E0
0000E0
000000
000000
000180
0003C0
0007C0
000FC0
001FC0
001FC0
003FC0
007FC0
00FBC0
00F3C0
01F3C0
03E3C0
07C3C0
07FFC0
1FFFC0
1FFFC0
3FFFE0
3C03E0
7C03E0
F801E0
F801E0
F001E0
E000C0
ENDCHAR
STARTCHAR 00C1
ENCODING 193
SWIDTH 752 0
DWIDTH 23 0
BBX 23 32 2 0
BITMAP
00000C
00003E
00007C
0000F8
0001F0
0003E0
000180
000000
000000
000180
0003C0
0007C0
000FC0
001FC0
001FC0
003FC0
007FC0
00FBC0
00F3C0
01F3C0
03E3C0
07C3C0
07FFC0
1FFFC0
1FFFC0
3FFFE0
3C03E0
7C03E0
F801E0
F801E0
F001E0
E000C0
ENDCHAR
STARTCHAR 00C2
ENCODING 194
SWIDTH 752 0
DWIDTH 23 0
BBX 23 33 2 0
BITMAP
0000C0
0003F0
0007F0
000FF8
001F7C
003E3E
007C1E
00300C
000000
000000
000180
0003C0
0007C0
000FC0
001FC0
001FC0
003FC0
007FC0
00FBC0
00F3C0
01F3C0
03E3C0
07C3C0
07FFC0
1FFFC0
1FFFC0
3FFFE0
3C03E0
7C03E0
F801E0
F801E0
F001E0
E000C0
ENDCHAR
STARTCHAR 00C3
ENCODING 195
SWIDTH 752 0
DWIDTH 23 0
BBX 25 31 2 0
BITMAP
000F8380
001FC380
003FE780
0039FF00
0078FE00
00007C00
00000000
00000000
00018000
0003C000
0007C000
000FC000
001FC000
001FC000
003FC000
007FC000
00FBC000
00F3C000
01F3C000
03E3C000
07C3C000
07FFC000
1FFFC000
1FFFC000
3FFFE000
3C03E000
7C03E000
F801E000
F801E000
F001E000
E000C000
ENDCHAR
STARTCHAR 00C4
ENCODING 196
SWIDTH 752 0
DWIDTH 23 0
BBX 23 29 2 0
BITMAP
001E3C
003F7E
003F7E
001C3C
000000
000000
000180
0003C0
0007C0
000FC0
001FC0
001FC0
003FC0
007FC0
00FBC0
00F3C0
01F3C0
03E3C0
07C3C0
07FFC0
1FFFC0
1FFFC0
3FFFE0
3C03E0
7C03E0
F801E0
F801E0
F001E0
E000C0
ENDCHAR
STARTCHAR 00C5
ENCODING 197
SWIDTH 752 0
DWIDTH 23 0
BBX 22 31 2 0
BITMAP
0001F0
0007F8
000FFC
001E1C
001C1C
001E3C
001FF8
000FF0
0007E0
0003C0
0007C0
000FC0
001FC0
001FC0
003FC0
007FC0
00FBC0
00F3C0
01F3C0
03E3C0
07C3C0
07FFC0
1FFFC0
1FFFC0
3FFFE0
3C03E0
7C03E0
F801E0
F801E0
F001E0
E000C0
ENDCHAR
STARTCHAR 00C6
ENCODING 198
SWIDTH 1112 0
DWIDTH 34 0
BBX 38 26 0 -1
BITMAP
0000073FE0
00001FFFF8
00003FFFFC
00007FFFF8
0000FFC070
0001FF0000
0003FF0000
0007EF0000
000FCF0000
001F9F0000
003F1F07C0
007FFFFFE0
00FFFFFFE0
00FFFFFFC0
01FFFFFC00
03F83C0000
07C03C0000
0F803C0000
1F803C0000
1F007C0000
3E007C0000
7C007C0000
F8007FFF80
F8003FFF80
70003FFF80
00000FFE00
ENDCHAR
STARTCHAR 00C7
ENCODING 199
SWIDTH 621 0
DWIDTH 19 0
BBX 20 29 1 -6
BITMAP
000FF0
003FF0
007FF0
01FFF0
03F8F0
03E0F0
07C000
0F8000
1F0000
3E0000
3E0000
7C0000
780000
780000
F80000
F80000
F80300
F80F80
F81F80
7FFF00
7FFE00
3FFC00
1FF000
03E000
01E000
07E000
7FC000
7F8000
7E0000
ENDCHAR
STARTCHAR 00C8
ENCODING 200
SWIDTH 621 0
DWIDTH 19 0
BBX 20 35 2 -1
BITMAP
003800
007C00
007E00
003F00
001F00
000F00
000700
000000
000000
04FFC0
1FFFF0
1FFFF0
1FFFF0
1F80E0
1E0000
1E0000
3E0000
3E0000
3C0000
3C1F80
3FFFC0
7FFFC0
7FFF80
7FF800
780000
780000
F80000
F80000
F00000
F00000
F00000
FFFE00
FFFF00
7FFE00
3FFC00
ENDCHAR
STARTCHAR 00C9
ENCODING 201
SWIDTH 621 0
DWIDTH 19 0
BBX 20 35 2 -1
BITMAP
0000E0
0003E0
0007E0
000F80
001F00
003E00
001C00
000000
000000
04FFC0
1FFFF0
1FFFF0
1FFFF0
1F80E0
1E0000
1E0000
3E0000
3E0000
3C0000
3C1F80
3FFFC0
7FFFC0
7FFF80
7FF800
780000
780000
F80000
F80000
F00000
F00000
F00000
FFFE00
FFFF00
7FFE00
3FFC00
ENDCHAR
STARTCHAR 00CA
ENCODING 202
SWIDTH 621 0
DWIDTH 19 0
BBX 20 36 2 -1
BITMAP
000E00
001F00
003F80
007FC0
00FBE0
01F1F0
03E0F0
0180E0
000000
000000
04FFC0
1FFFF0
1FFFF0
1FFFF0
1F80E0
1E0000
1E0000
3E0000
3E0000
3C0000
3C1F80
3FFFC0
7FFFC0
7FFF80
7FF800
780000
780000
F80000
F80000
F00000
F00000
F00000
FFFE00
FFFF00
7FFE00
3FFC00
ENDCHAR
STARTCHAR 00CB
ENCODING 203
SWIDTH 621 0
DWIDTH 19 0
BBX 20 32 2 -1
BITMAP
00F3C0
01F7E0
01F7E0
01E3C0
000000
000000
04FFC0
1FFFF0
1FFFF0
1FFFF0
1F80E0
1E0000
1E0000
3E0000
3E0000
3C0000
3C1F80
3FFFC0
7FFFC0
7FFF80
7FF800
780000
780000
F80000
F80000
F00000
F00000
F00000
FFFE00
FFFF00
7FFE00
3FFC00
ENDCHAR
STARTCHAR 00CC
ENCODING 204
SWIDTH 556 0
DWIDTH 17 0
BBX 19 32 1 -1
BITMAP
006000
00F800
00F800
007C00
003E00
001E00
001C00
000000
000000
0FFF00
1FFFE0
1FFFE0
1FFFC0
00F380
01F000
01F000
01E000
01E000
01E000
01E000
03E000
03E000
03C000
03C000
03C000
03C000
07C000
07C000
3FFE00
FFFE00
FFFE00
FFFC00
ENDCHAR
STARTCHAR 00CD
ENCODING 205
SWIDTH 556 0
DWIDTH 17 0
BBX 19 32 1 -1
BITMAP
000300
000F80
001F00
003E00
007C00
00F800
006000
000000
000000
0FFF00
1FFFE0
1FFFE0
1FFFC0
00F380
01F000
01F000
01E000
01E000
01E000
01E000
03E000
03E000
03C000
03C000
03C000
03C000
07C000
07C000
3FFE00
FFFE00
FFFE00
FFFC00
ENDCHAR
STARTCHAR 00CE
ENCODING 206
SWIDTH 556 0
DWIDTH 17 0
BBX 19 33 1 -1
BITMAP
001C00
003E00
007F00
00FF80
01F7C0
03E3E0
07C1E0
0301C0
000000
000000
0FFF00
1FFFE0
1FFFE0
1FFFC0
00F380
01F000
01F000
01E000
01E000
01E000
01E000
03E000
03E000
03C000
03C000
03C000
03C000
07C000
07C000
3FFE00
FFFE00
FFFE00
FFFC00
ENDCHAR
STARTCHAR 00CF
ENCODING 207
SWIDTH 556 0
DWIDTH 17 0
BBX 19 29 1 -1
BITMAP
03E780
03EFC0
07EFC0
03C780
000000
000000
0FFF00
1FFFE0
1FFFE0
1FFFC0
00F380
01F000
01F000
01E000
01E000
01E000
01E000
03E000
03E000
03C000
03C000
03C000
03C000
07C000
07C000
3FFE00
FFFE00
FFFE00
FFFC00
ENDCHAR
STARTCHAR 00D0
ENCODING 208
SWIDTH 720 0
DWIDTH 22 0
BBX 23 26 0 -1
BITMAP
01C000
03F000
07FC00
07FF00
07FF80
07BFE0
078FF0
0787F8
0F81F8
0F00FC
0F007C
7FF83C
FFF83E
FFF83E
FFF83E
1E003C
1E003C
1E003C
1E0078
1E00F8
1E01F0
3F07F0
3FFFE0
3FFFC0
0FFF00
03F800
ENDCHAR
STARTCHAR 00D1
ENCODING 209
SWIDTH 818 0
DWIDTH 25 0
BBX 26 32 1 -1
BITMAP
001F0600
003F8F00
007F8E00
00F3FE00
00E1FC00
0000F800
07000000
0F000000
1F800380
1F8003C0
1FC003C0
1FC007C0
1FE007C0
1FF007C0
1FF007C0
1EF80780
1EF80780
3E7C0780
3E3E0780
3C3F0F80
3C1F0F80
3C0F8F00
3C0FCF00
3C07EF00
7C03FF00
7C01FF00
7801FE00
7800FE00
78007E00
F8003E00
F0001C00
70000000
ENDCHAR
STARTCHAR 00D2
ENCODING 210
SWIDTH 818 0
DWIDTH 25 0
BBX 24 33 2 -1
BITMAP
0001C0
0003E0
0003F0
0000F8
0000F8
000078
000038
000000
000000
001FE0
007FF8
01FFFC
03FFFE
07F07E
0FC01F
1F801F
1F001F
3E001F
3C001F
7C001F
78001E
F8001E
F0003E
F0003C
F0007C
F000F8
F801F8
FC03F0
7F0FE0
7FFFC0
3FFF80
0FFE00
03F800
ENDCHAR
STARTCHAR 00D3
ENCODING 211
SWIDTH 818 0
DWIDTH 25 0
BBX 24 33 2 -1
BITMAP
00000E
00003E
00007E
0000F8
0001F0
0003E0
0001C0
000000
000000
001FE0
007FF8
01FFFC
03FFFE
07F07E
0FC01F
1F801F
1F001F
3E001F
3C001F
7C001F
78001E
F8001E
F0003E
F0003C
F0007C
F000F8
F801F8
FC03F0
7F0FE0
7FFFC0
3FFF80
0FFE00
03F800
ENDCHAR
STARTCHAR 00D4
ENCODING 212
SWIDTH 818 0
DWIDTH 25 0
BBX 24 34 2 -1
BITMAP
000060
0000F8
0003FC
0007FE
000FBE
001F1F
001E0F
001C06
000000
000000
001FE0
007FF8
01FFFC
03FFFE
07F07E
0FC01F
1F801F
1F001F
3E001F
3C001F
7C001F
78001E
F8001E
F0003E
F0003C
F0007C
F000F8
F801F8
FC03F0
7F0FE0
7FFFC0
3FFF80
0FFE00
03F800
ENDCHAR
STARTCHAR 00D5
ENCODING 213
SWIDTH 818 0
DWIDTH 25 0
BBX 25 32 2 -1
BITMAP
00078180
001FC380
001FE780
003CFF00
0038FF00
00003C00
00000000
00000000
001FE000
007FF800
01FFFC00
03FFFE00
07F07E00
0FC01F00
1F801F00
1F001F00
3E001F00
3C001F00
7C001F00
78001E00
F8001E00
F0003E00
F0003C00
F0007C00
F000F800
F801F800
FC03F000
7F0FE000
7FFFC000
3FFF8000
0FFE0000
03F80000
ENDCHAR
STARTCHAR 00D6
ENCODING 214
SWIDTH 818 0
DWIDTH 25 0
BBX 24 30 2 -1
BITMAP
001E3C
003F7E
003E7C
001C38
000000
000000
001FE0
007FF8
01FFFC
03FFFE
07F07E
0FC01F
1F801F
1F001F
3E001F
3C001F
7C001F
78001E
F8001E
F0003E
F0003C
F0007C
F000F8
F801F8
FC03F0
7F0FE0
7FFFC0
3FFF80
0FFE00
03F800
ENDCHAR
STARTCHAR 00D7
ENCODING 215
SWIDTH 621 0
DWIDTH 19 0
BBX 13 12 5 3
BITMAP
7038
F8F8
FDF8
7FF0
3FC0
1F80
1FC0
3FE0
7FE0
F9F0
F1E0
E0E0
ENDCHAR
STARTCHAR 00D8
ENCODING 216
SWIDTH 818 0
DWIDTH 25 0
BBX 28 24 1 -1
BITMAP
0007F060
003FFDF0
007FFFE0
00FFFFC0
01F83F80
03E01F80
07C07F80
0F80FF80
0F01F780
1F03E780
1E07C780
3E1F8780
3C3F0F80
3C7C0F00
3CF81F00
3DF01E00
3FE03E00
3FC07C00
3F00F800
3FC3F800
7FFFF000
FFFFE000
F3FF8000
C0FE0000
ENDCHAR
STARTCHAR 00D9
ENCODING 217
SWIDTH 752 0
DWIDTH 23 0
BBX 22 33 3 -1
BITMAP
006000
00F800
00F800
007C00
003E00
001E00
001C00
000000
000000
180038
3C007C
3C0078
7C0078
780078
780078
7800F8
7800F0
F800F0
F800F0
F001F0
F001E0
F001E0
F001E0
F003C0
F003C0
F007C0
F00F80
F81F00
FC3F00
7FFE00
7FFC00
3FF800
0FE000
ENDCHAR
STARTCHAR 00DA
ENCODING 218
SWIDTH 752 0
DWIDTH 23 0
BBX 22 33 3 -1
BITMAP
0000E0
0003E0
0007E0
000F80
001F00
003E00
001800
000000
000000
180038
3C007C
3C0078
7C0078
780078
780078
7800F8
7800F0
F800F0
F800F0
F001F0
F001E0
F001E0
F001E0
F003C0
F003C0
F007C0
F00F80
F81F00
FC3F00
7FFE00
7FFC00
3FF800
0FE000
ENDCHAR
STARTCHAR 00DB
ENCODING 219
SWIDTH 752 0
DWIDTH 23 0
BBX 22 34 3 -1
BITMAP
000700
000F80
003FC0
007FE0
00FBE0
01F1F0
01E0F0
01C060
000000
000000
180038
3C007C
3C0078
7C0078
780078
780078
7800F8
7800F0
F800F0
F800F0
F001F0
F001E0
F001E0
F001E0
F003C0
F003C0
F007C0
F00F80
F81F00
FC3F00
7FFE00
7FFC00
3FF800
0FE000
ENDCHAR
STARTCHAR 00DC
ENCODING 220
SWIDTH 752 0
DWIDTH 23 0
BBX 22 30 3 -1
BITMAP
00F3C0
01F7E0
03F7E0
01E3C0
000000
000000
180038
3C007C
3C0078
7C0078
780078
780078
7800F8
7800F0
F800F0
F800F0
F001F0
F001E0
F001E0
F001E0
F003C0
F003C0
F007C0
F00F80
F81F00
FC3F00
7FFE00
7FFC00
3FF800
0FE000
ENDCHAR
STARTCHAR 00DD
ENCODING 221
SWIDTH 654 0
DWIDTH 20 0
BBX 19 34 3 -1
BITMAP
000380
0007C0
000F80
001F00
003E00
007C00
007000
000000
000000
000000
7000E0
F001E0
F801E0
F803E0
7C07C0
7C0780
3E0F80
3E1F00
1F1F00
1F3E00
0FFC00
0FFC00
07F800
07F800
03F000
03E000
07E000
07C000
0F8000
1F8000
1F0000
3E0000
3C0000
180000
ENDCHAR
STARTCHAR 00DE
ENCODING 222
SWIDTH 523 0
DWIDTH 16 0
BBX 17 25 1 0
BITMAP
070000
0F0000
0F0000
0FF800
0FFE00
1FFF00
1FFF00
1E1F80
1E0780
1E0780
3C0780
3C0780
3C0F80
3C1F00
3C3E00
7FFE00
7FF800
7FF000
7FC000
780000
780000
F00000
F00000
F00000
600000
ENDCHAR
STARTCHAR 00DF
ENCODING 223
SWIDTH 556 0
DWIDTH 17 0
BBX 16 26 1 -2
BITMAP
007C
01FE
03FF
07FF
078F
0F0F
0F0F
1E1F
1E3E
1E7C
1EF8
1FF8
3CFC
3C7C
3C3E
3C1E
3C1E
3C1E
781E
783E
7BFC
7BFC
7BF8
F3E0
F000
6000
ENDCHAR
STARTCHAR 00E0
ENCODING 224
SWIDTH 556 0
DWIDTH 17 0
BBX 16 25 1 0
BITMAP
01C0
01E0
01F0
00F8
0078
007C
0038
0000
0000
01F8
07FE
0FFF
3FFE
3E1E
7C3E
F83C
F03C
F03C
F03C
F03C
F03C
FFFC
FFFE
7FFE
1F1C
ENDCHAR
STARTCHAR 00E1
ENCODING 225
SWIDTH 556 0
DWIDTH 17 0
BBX 17 25 1 0
BITMAP
000380
000780
001F80
003F00
007C00
007800
007000
000000
000000
01F800
07FE00
0FFF00
3FFE00
3E1E00
7C3E00
F83C00
F03C00
F03C00
F03C00
F03C00
F03C00
FFFC00
FFFE00
7FFE00
1F1C00
ENDCHAR
STARTCHAR 00E2
ENCODING 226
SWIDTH 556 0
DWIDTH 17 0
BBX 18 26 1 0
BITMAP
001800
007E00
00FE00
01FF00
03EF80
07C7C0
0F83C0
060180
000000
000000
01F800
07FE00
0FFF00
3FFE00
3E1E00
7C3E00
F83C00
F03C00
F03C00
F03C00
F03C00
F03C00
FFFC00
FFFE00
7FFE00
1F1C00
ENDCHAR
STARTCHAR 00E3
ENCODING 227
SWIDTH 556 0
DWIDTH 17 0
BBX 19 24 1 0
BITMAP
03E0E0
07F0E0
0FF9E0
0E7FC0
1E3F80
001F00
000000
000000
01F800
07FE00
0FFF00
3FFE00
3E1E00
7C3E00
F83C00
F03C00
F03C00
F03C00
F03C00
F03C00
FFFC00
FFFE00
7FFE00
1F1C00
ENDCHAR
STARTCHAR 00E4
ENCODING 228
SWIDTH 556 0
DWIDTH 17 0
BBX 18 22 1 0
BITMAP
03C780
07EFC0
07EF80
038700
000000
000000
01F800
07FE00
0FFF00
3FFE00
3E1E00
7C3E00
F83C00
F03C00
F03C00
F03C00
F03C00
F03C00
FFFC00
FFFE00
7FFE00
1F1C00
ENDCHAR
STARTCHAR 00E5
ENCODING 229
SWIDTH 556 0
DWIDTH 17 0
BBX 17 27 1 0
BITMAP
007E00
00FF00
01FF80
03C780
038380
03C780
03FF00
03FE00
00F800
000000
000000
01F800
07FE00
0FFF00
3FFE00
3E1E00
7C3E00
F83C00
F03C00
F03C00
F03C00
F03C00
F03C00
FFFC00
FFFE00
7FFE00
1F1C00
ENDCHAR
STARTCHAR 00E6
ENCODING 230
SWIDTH 916 0
DWIDTH 28 0
BBX 27 16 2 0
BITMAP
01FC7F00
07FFFF80
0FFFFFC0
3FFFFFC0
7E1F83C0
7C1F0FC0
F81E7F80
F03FFE00
F03FF800
F03FE000
F03F00C0
F83E03E0
FEFFFFC0
7FFFFFC0
3FFFFF00
0F99F800
ENDCHAR
STARTCHAR 00E7
ENCODING 231
SWIDTH 523 0
DWIDTH 16 0
BBX 15 22 2 -6
BITMAP
01F0
07FC
0FFE
1FFE
3E1C
3C00
7800
F800
F000
F000
F000
F018
FCFC
FFF8
7FF0
3FE0
07C0
03C0
73C0
7F80
7F80
3E00
ENDCHAR
STARTCHAR 00E8
ENCODING 232
SWIDTH 556 0
DWIDTH 17 0
BBX 16 25 1 0
BITMAP
01C0
01E0
01F0
00F8
0078
007C
0038
0000
0000
01F8
07FE
0FFF
1FFF
3E1F
7C7E
7BFC
7FF8
FFC0
FF00
F800
F80E
7FFE
7FFE
3FF8
0FE0
ENDCHAR
STARTCHAR 00E9
ENCODING 233
SWIDTH 556 0
DWIDTH 17 0
BBX 16 25 1 0
BITMAP
0007
000F
003F
007E
00F8
00F0
00E0
0000
0000
01F8
07FE
0FFF
1FFF
3E1F
7C7E
7BFC
7FF8
FFC0
FF00
F800
F80E
7FFE
7FFE
3FF8
0FE0
ENDCHAR
STARTCHAR 00EA
ENCODING 234
SWIDTH 556 0
DWIDTH 17 0
BBX 18 26 1 0
BITMAP
001800
007E00
00FE00
01FF00
03EF80
07C7C0
0F83C0
060180
000000
000000
01F800
07FE00
0FFF00
1FFF00
3E1F00
7C7E00
7BFC00
7FF800
FFC000
FF0000
F80000
F80E00
7FFE00
7FFE00
3FF800
0FE000
ENDCHAR
STARTCHAR 00EB
ENCODING 235
SWIDTH 556 0
DWIDTH 17 0
BBX 18 23 1 0
BITMAP
01E780
03EFC0
03EFC0
03C780
000000
000000
000000
01F800
07FE00
0FFF00
1FFF00
3E1F00
7C7E00
7BFC00
7FF800
FFC000
FF0000
F80000
F80E00
7FFE00
7FFE00
3FF800
0FE000
ENDCHAR
STARTCHAR 00EC
ENCODING 236
SWIDTH 294 0
DWIDTH 9 0
BBX 8 25 2 0
BITMAP
38
7C
3E
1F
1F
0F
07
00
00
0C
1E
3E
3C
3C
3C
3C
7C
78
78
78
78
78
F8
F0
70
ENDCHAR
STARTCHAR 00ED
ENCODING 237
SWIDTH 294 0
DWIDTH 9 0
BBX 11 25 2 0
BITMAP
01C0
03E0
07C0
0F80
3F00
3C00
3800
0000
0000
0C00
1E00
3E00
3C00
3C00
3C00
3C00
7C00
7800
7800
7800
7800
7800
F800
F000
7000
ENDCHAR
STARTCHAR 00EE
ENCODING 238
SWIDTH 294 0
DWIDTH 9 0
BBX 14 26 0 0
BITMAP
0180
07E0
0FF0
1FF0
3EF8
7C7C
F83C
6018
0000
0000
0300
0780
0F80
0F00
0F00
0F00
0F00
1F00
1E00
1E00
1E00
1E00
1E00
3E00
3C00
1C00
ENDCHAR
STARTCHAR 00EF
ENCODING 239
SWIDTH 294 0
DWIDTH 9 0
BBX 13 22 1 0
BITMAP
78F0
FDF8
FDF0
70E0
0000
0000
0600
0F00
1F00
1E00
1E00
1E00
1E00
3E00
3C00
3C00
3C00
3C00
3C00
7C00
7800
3800
ENDCHAR
STARTCHAR 00F0
ENCODING 240
SWIDTH 523 0
DWIDTH 16 0
BBX 15 24 2 0
BITMAP
0700
0F9C
0FFE
07FE
07FC
1FE0
1FF0
3FF0
1CF8
01F8
07F8
0FFC
1FBC
3E3C
783C
F83C
F078
F078
F078
F0F0
FFF0
7FE0
7FC0
1F00
ENDCHAR
STARTCHAR 00F1
ENCODING 241
SWIDTH 523 0
DWIDTH 16 0
BBX 19 24 1 0
BITMAP
01E060
07F0E0
0FF9E0
0F3FC0
0E3FC0
000F00
000000
000000
1C7C00
1EFE00
3FFE00
3FFF00
3FCF00
3F1E00
3E1E00
3C1E00
7C1E00
781E00
781E00
783E00
F83E00
F83E00
F03E00
701C00
ENDCHAR
STARTCHAR 00F2
ENCODING 242
SWIDTH 523 0
DWIDTH 16 0
BBX 16 25 1 0
BITMAP
0060
00F0
00F8
007C
003E
001E
001C
0000
0000
01F8
07FC
0FFE
1FFE
3E1E
3C1F
7C1F
781E
781E
F81E
F83E
7C7C
7FF8
7FF0
3FE0
0F80
ENDCHAR
STARTCHAR 00F3
ENCODING 243
SWIDTH 523 0
DWIDTH 16 0
BBX 16 25 1 0
BITMAP
0007
001F
003F
007C
00F8
01F0
00E0
0000
0000
01F8
07FC
0FFE
1FFE
3E1E
3C1F
7C1F
781E
781E
F81E
F83E
7C7C
7FF8
7FF0
3FE0
0F80
ENDCHAR
STARTCHAR 00F4
ENCODING 244
SWIDTH 523 0
DWIDTH 16 0
BBX 18 26 1 0
BITMAP
003800
007C00
00FE00
01FF00
07EF80
0FCFC0
0F07C0
0E0380
000000
000000
01F800
07FC00
0FFE00
1FFE00
3E1E00
3C1F00
7C1F00
781E00
781E00
F81E00
F83E00
7C7C00
7FF800
7FF000
3FE000
0F8000
ENDCHAR
STARTCHAR 00F5
ENCODING 245
SWIDTH 523 0
DWIDTH 16 0
BBX 19 24 1 0
BITMAP
01E060
07F0E0
07F9E0
0F3FC0
0E3FC0
000F00
000000
000000
01F800
07FC00
0FFE00
1FFE00
3E1E00
3C1F00
7C1F00
781E00
781E00
F81E00
F83E00
7C7C00
7FF800
7FF000
3FE000
0F8000
ENDCHAR
STARTCHAR 00F6
ENCODING 246
SWIDTH 523 0
DWIDTH 16 0
BBX 17 22 1 0
BITMAP
03C780
07EF80
07CF80
078F00
000000
000000
01F800
07FC00
0FFE00
1FFE00
3E1E00
3C1F00
7C1F00
781E00
781E00
F81E00
F83E00
7C7C00
7FF800
7FF000
3FE000
0F8000
ENDCHAR
STARTCHAR 00F7
ENCODING 247
SWIDTH 621 0
DWIDTH 19 0
BBX 14 15 4 3
BITMAP
0380
0780
0780
0100
0000
0000
7FF8
FFFC
FFFC
7FF8
0000
0600
0F00
0F00
0400
ENDCHAR
STARTCHAR 00F8
ENCODING 248
SWIDTH 556 0
DWIDTH 17 0
BBX 18 16 0 0
BITMAP
00FCC0
03FFC0
07FFC0
0FFF80
1F8F80
1F1F80
3E7F80
3CF780
3DEF00
3FCF00
3F8F00
3E3E00
3FFE00
7FFC00
FFF800
67E000
ENDCHAR
STARTCHAR 00F9
ENCODING 249
SWIDTH 523 0
DWIDTH 16 0
BBX 15 25 2 0
BITMAP
0600
0F00
0F80
07C0
03E0
01E0
01C0
0000
0000
380E
3C1E
781E
781E
783E
F83C
F03C
F03C
F03C
F03C
F07C
F078
FFF8
FFF8
7FF8
3F70
ENDCHAR
STARTCHAR 00FA
ENCODING 250
SWIDTH 523 0
DWIDTH 16 0
BBX 16 25 2 0
BITMAP
0006
001F
003F
007C
00F8
01F0
00C0
0000
0000
380E
3C1E
781E
781E
783E
F83C
F03C
F03C
F03C
F03C
F07C
F078
FFF8
FFF8
7FF8
3F70
ENDCHAR
STARTCHAR 00FB
ENCODING 251
SWIDTH 523 0
DWIDTH 16 0
BBX 16 26 2 0
BITMAP
0070
00F8
01FC
07FE
0FFF
1F1F
1E0F
1C07
0000
0000
380E
3C1E
781E
781E
783E
F83C
F03C
F03C
F03C
F03C
F07C
F078
FFF8
FFF8
7FF8
3F70
ENDCHAR
STARTCHAR 00FC
ENCODING 252
SWIDTH 523 0
DWIDTH 16 0
BBX 16 22 2 0
BITMAP
079E
0FBF
1FBF
0F1E
0000
0000
380E
3C1E
781E
781E
783E
F83C
F03C
F03C
F03C
F03C
F07C
F078
FFF8
FFF8
7FF8
3F70
ENDCHAR
STARTCHAR 00FD
ENCODING 253
SWIDTH 556 0
DWIDTH 17 0
BBX 17 33 2 -8
BITMAP
000C00
003E00
007C00
00F800
01F000
03E000
018000
000000
000000
700300
F80780
F80F80
7C1F00
7C1F00
7C3E00
3E7C00
3E7C00
1FF800
1FF000
1FF000
0FE000
0FC000
07C000
0F8000
0F0000
1F0000
3E0000
3C0000
7C0000
780000
F80000
F00000
600000
ENDCHAR
STARTCHAR 00FE
ENCODING 254
SWIDTH 556 0
DWIDTH 17 0
BBX 17 31 0 -8
BITMAP
070000
078000
0F8000
0F0000
0F0000
0F0000
0F0000
1F7E00
1FFF00
1FFF80
1FFF80
1F8F80
1F0780
1E0780
1E0780
1E0780
3E0F80
3E0F00
3C1F00
3FFE00
3FFC00
3FF800
3FE000
7C0000
780000
780000
780000
780000
780000
F80000
700000
ENDCHAR
STARTCHAR 00FF
ENCODING 255
SWIDTH 556 0
DWIDTH 17 0
BBX 17 30 2 -8
BITMAP
079E00
0FBF00
0FBF00
0F1E00
000000
000000
700300
F80780
F80F80
7C1F00
7C1F00
7C3E00
3E7C00
3E7C00
1FF800
1FF000
1FF000
0FE000
0FC000
07C000
0F8000
0F0000
1F0000
3E0000
3C0000
7C0000
780000
F80000
F00000
600000
ENDCHAR
STARTCHAR 0100
ENCODING 256
SWIDTH 752 0
DWIDTH 23 0
BBX 23 29 2 0
BITMAP
000798
003FFE
003FFE
001FFC
000000
000000
000180
0003C0
0007C0
000FC0
001FC0
001FC0
003FC0
007FC0
00FBC0
00F3C0
01F3C0
03E3C0
07C3C0
07FFC0
1FFFC0
1FFFC0
3FFFE0
3C03E0
7C03E0
F801E0
F801E0
F001E0
E000C0
ENDCHAR
STARTCHAR 0101
ENCODING 257
SWIDTH 556 0
DWIDTH 17 0
BBX 18 22 1 0
BITMAP
00F300
03FFC0
07FFC0
03FF80
000000
000000
01F800
07FE00
0FFF00
3FFE00
3E1E00
7C3E00
F83C00
F03C00
F03C00
F03C00
F03C00
F03C00
FFFC00
FFFE00
7FFE00
1F1C00
ENDCHAR
STARTCHAR 0102
ENCODING 258
SWIDTH 752 0
DWIDTH 23 0
BBX 23 31 2 0
BITMAP
003806
00780E
00781E
003FFC
001FF8
000FE0
000000
000000
000180
0003C0
0007C0
000FC0
001FC0
001FC0
003FC0
007FC0
00FBC0
00F3C0
01F3C0
03E3C0
07C3C0
07FFC0
1FFFC0
1FFFC0
3FFFE0
3C03E0
7C03E0
F801E0
F801E0
F001E0
E000C0
ENDCHAR
STARTCHAR 0103
ENCODING 259
SWIDTH 556 0
DWIDTH 17 0
BBX 19 24 1 0
BITMAP
0700E0
0701E0
0783E0
07FFC0
03FF80
00FC00
000000
000000
01F800
07FE00
0FFF00
3FFE00
3E1E00
7C3E00
F83C00
F03C00
F03C00
F03C00
F03C00
F03C00
FFFC00
FFFE00
7FFE00
1F1C00
ENDCHAR
STARTCHAR 0104
ENCODING 260
SWIDTH 752 0
DWIDTH 23 0
BBX 21 30 2 -7
BITMAP
000180
0003C0
0007C0
000FC0
001FC0
001FC0
003FC0
007FC0
00FBC0
00F3C0
01F3C0
03E3C0
07C3C0
07FFC0
1FFFC0
1FFFC0
3FFFE0
3C03E0
7C03E0
F801E0
F801E0
F003E0
E007C0
000F00
000E00
000E00
000F10
000FF8
0007F8
0003E0
ENDCHAR
STARTCHAR 0105
ENCODING 261
SWIDTH 556 0
DWIDTH 17 0
BBX 19 23 1 -7
BITMAP
01F800
07FE00
0FFF00
3FFE00
3E1E00
7C3E00
F83C00
F03C00
F03C00
F03C00
F03C00
F03C00
FFFC00
FFFE00
7FFF00
1F1E00
003C00
003800
003800
003840
003FE0
003FC0
000F00
ENDCHAR
STARTCHAR 0106
ENCODING 262
SWIDTH 621 0
DWIDTH 19 0
BBX 21 32 1 0
BITMAP
000038
0000F8
0001F8
0003E0
0007C0
000F80
000700
000000
000000
000FF0
003FF8
007FF8
00FFF0
01F8F0
03E0F0
07C000
0F8000
1F0000
1E0000
3E0000
3C0000
7C0000
780000
780000
F80000
F80380
780F80
7C3F80
7FFF00
3FFE00
1FF800
0FE000
ENDCHAR
STARTCHAR 0107
ENCODING 263
SWIDTH 523 0
DWIDTH 16 0
BBX 17 25 1 0
BITMAP
000700
000F80
001F00
003E00
00FC00
00F000
00E000
000000
000000
01F000
07FC00
0FFE00
1FFE00
3E1E00
3C0000
780000
780000
F00000
F00000
F00000
F83800
FFFC00
7FF800
3FF000
0FC000
ENDCHAR
STARTCHAR 0108
ENCODING 264
SWIDTH 621 0
DWIDTH 19 0
BBX 23 34 1 0
BITMAP
0001C0
0003E0
0007F0
000FF8
003FFC
007E7E
00783E
00701C
000000
000000
000000
000FF0
003FF8
007FF8
00FFF0
01F8F0
03E0F0
07C000
0F8000
1F0000
1E0000
3E0000
3C0000
7C0000
780000
780000
F80000
F80380
780F80
7C3F80
7FFF00
3FFE00
1FF800
0FE000
ENDCHAR
STARTCHAR 0109
ENCODING 265
SWIDTH 523 0
DWIDTH 16 0
BBX 18 26 1 0
BITMAP
001800
007E00
00FE00
01FF00
03EF80
07C7C0
0F83C0
060180
000000
000000
01F000
07FC00
0FFE00
1FFE00
3E1E00
3C0000
780000
780000
F00000
F00000
F00000
F83800
FFFC00
7FF800
3FF000
0FC000
ENDCHAR
STARTCHAR 010A
ENCODING 266
SWIDTH 621 0
DWIDTH 19 0
BBX 21 29 1 1
BITMAP
0001E0
0003E0
0001E0
0001C0
000000
000000
000FF0
003FF8
007FF8
00FFF0
01F8F0
03E0F0
07C000
0F8000
1F0000
1E0000
3E0000
3C0000
7C0000
780000
780000
F80000
F80380
780F80
7C3F80
7FFF00
3FFE00
1FF800
0FE000
ENDCHAR
STARTCHAR 010B
ENCODING 267
SWIDTH 523 0
DWIDTH 16 0
BBX 15 23 1 0
BITMAP
0010
0078
007C
0078
0038
0000
0000
01F0
07FC
0FFE
1FFE
3E1E
3C00
7800
7800
F000
F000
F000
F838
FFFC
7FF8
3FF0
0FC0
ENDCHAR
STARTCHAR 010C
ENCODING 268
SWIDTH 621 0
DWIDTH 19 0
BBX 21 32 1 0
BITMAP
003800
003C38
003CF8
001FF0
001FE0
000F80
000700
000000
000000
000FF0
003FF8
007FF8
00FFF0
01F8F0
03E0F0
07C000
0F8000
1F0000
1E0000
3E0000
3C0000
7C0000
780000
780000
F80000
F80380
780F80
7C3F80
7FFF00
3FFE00
1FF800
0FE000
ENDCHAR
STARTCHAR 010D
ENCODING 269
SWIDTH 523 0
DWIDTH 16 0
BBX 17 25 1 0
BITMAP
018000
03C380
01E780
01FF80
00FE00
007C00
003000
000000
000000
01F000
07FC00
0FFE00
1FFE00
3E1E00
3C0000
780000
780000
F00000
F00000
F00000
F83800
FFFC00
7FF800
3FF000
0FC000
ENDCHAR
STARTCHAR 010E
ENCODING 270
SWIDTH 720 0
DWIDTH 22 0
BBX 21 33 2 -1
BITMAP
00C000
01E1C0
01F3C0
00FFC0
007F00
003E00
001800
070000
0FC000
0FF000
1FFC00
1FFF00
1EFF80
1E3FC0
1E0FE0
1E07E0
1E01F0
3E01F0
3C00F8
3C00F8
3C0078
3C0078
3C00F8
7C00F0
7800F0
7801F0
7803E0
7807E0
780FC0
FFFF80
FFFF00
3FFC00
0FF000
ENDCHAR
STARTCHAR 010F
ENCODING 271
SWIDTH 785 0
DWIDTH 24 0
BBX 24 24 2 0
BITMAP
0001C7
0001CF
0003CF
0003CF
0003C7
0003CE
00079E
00079C
03F780
0FFF80
1FFF00
3FFF00
7C1F00
780F00
F00F00
F01E00
F01E00
F01E00
F01E00
F83E00
FFFE00
7FFE00
3FFE00
1F9C00
ENDCHAR
STARTCHAR 0110
ENCODING 272
SWIDTH 720 0
DWIDTH 22 0
BBX 23 26 0 -1
BITMAP
01C000
03F000
07FC00
07FF00
07FF80
07BFE0
078FF0
0787F8
0F81F8
0F00FC
0F007C
7FF83C
FFF83E
FFF83E
FFF83E
1E003C
1E003C
1E003C
1E0078
1E00F8
1E01F0
3F07F0
3FFFE0
3FFFC0
0FFF00
03F800
ENDCHAR
STARTCHAR 0111
ENCODING 273
SWIDTH 589 0
DWIDTH 18 0
BBX 21 24 2 0
BITMAP
0001C0
0001C0
0003C0
007FF0
01FFF8
00FFF0
000780
000780
03F780
0FFF80
1FFF80
3FFF00
7C1F00
780F00
F00F00
F01F00
F01E00
F01E00
F01E00
F83E00
FFFE00
7FFE00
3FFE00
1F9C00
ENDCHAR
STARTCHAR 0112
ENCODING 274
SWIDTH 621 0
DWIDTH 19 0
BBX 20 31 2 -1
BITMAP
007980
01FFE0
03FFE0
01FFC0
000000
04FFC0
1FFFF0
1FFFF0
1FFFF0
1F80E0
1E0000
1E0000
3E0000
3E0000
3C0000
3C1F80
3FFFC0
7FFFC0
7FFF80
7FF800
780000
780000
F80000
F80000
F00000
F00000
F00000
FFFE00
FFFF00
7FFE00
3FFC00
ENDCHAR
STARTCHAR 0113
ENCODING 275
SWIDTH 556 0
DWIDTH 17 0
BBX 18 22 1 0
BITMAP
01E300
07FFC0
07FFC0
03FF80
000000
000000
01F800
07FE00
0FFF00
1FFF00
3E1F00
7C7E00
7BFC00
7FF800
FFC000
FF0000
F80000
F80E00
7FFE00
7FFE00
3FF800
0FE000
ENDCHAR
STARTCHAR 0114
ENCODING 276
SWIDTH 621 0
DWIDTH 19 0
BBX 21 33 2 -1
BITMAP
00C038
01E038
01E0F8
01FFF0
00FFE0
003F80
000000
04FFC0
1FFFF0
1FFFF0
1FFFF0
1F80E0
1E0000
1E0000
3E0000
3E0000
3C0000
3C1F80
3FFFC0
7FFFC0
7FFF80
7FF800
780000
780000
F80000
F80000
F00000
F00000
F00000
FFFE00
FFFF00
7FFE00
3FFC00
ENDCHAR
STARTCHAR 0115
ENCODING 277
SWIDTH 556 0
DWIDTH 17 0
BBX 19 24 1 0
BITMAP
0700E0
0701E0
0783E0
07FFC0
03FF80
00FC00
000000
000000
01F800
07FE00
0FFF00
1FFF00
3E1F00
7C7E00
7BFC00
7FF800
FFC000
FF0000
F80000
F80E00
7FFE00
7FFE00
3FF800
0FE000
ENDCHAR
STARTCHAR 0116
ENCODING 278
SWIDTH 621 0
DWIDTH 19 0
BBX 20 31 2 -1
BITMAP
000200
000F00
000F80
000F00
000700
04FFC0
1FFFF0
1FFFF0
1FFFF0
1F80E0
1E0000
1E0000
3E0000
3E0000
3C0000
3C1F80
3FFFC0
7FFFC0
7FFF80
7FF800
780000
780000
F80000
F80000
F00000
F00000
F00000
FFFE00
FFFF00
7FFE00
3FFC00
ENDCHAR
STARTCHAR 0117
ENCODING 279
SWIDTH 556 0
DWIDTH 17 0
BBX 16 22 1 1
BITMAP
0078
00F8
0078
0070
0000
0000
01F8
07FE
0FFF
1FFF
3E1F
7C7E
7BFC
7FF8
FFC0
FF00
F800
F80E
7FFE
7FFE
3FF8
0FE0
ENDCHAR
STARTCHAR 0118
ENCODING 280
SWIDTH 621 0
DWIDTH 19 0
BBX 20 33 2 -8
BITMAP
04FFC0
1FFFF0
1FFFF0
1FFFF0
1F80E0
1E0000
1E0000
3E0000
3E0000
3C0000
3C1F80
3FFFC0
7FFFC0
7FFF80
7FF800
780000
780000
F80000
F80000
F00000
F00000
F00000
FFFE00
FFFF00
7FFE00
3FFC00
01E000
01C000
01C000
01C200
01FF00
01FE00
007800
ENDCHAR
STARTCHAR 0119
ENCODING 281
SWIDTH 556 0
DWIDTH 17 0
BBX 16 24 1 -8
BITMAP
01F8
07FE
0FFF
1FFF
3E1F
7C7E
7BFC
7FF8
FFC0
FF00
F800
F80E
7FFE
7FFE
3FF8
0FE0
03C0
0780
0700
0700
0708
07FC
07F8
01E0
ENDCHAR
STARTCHAR 011A
ENCODING 282
SWIDTH 621 0
DWIDTH 19 0
BBX 20 33 2 -1
BITMAP
007000
00F060
0079F0
007FE0
003FC0
001F00
000C00
04FFC0
1FFFF0
1FFFF0
1FFFF0
1F80E0
1E0000
1E0000
3E0000
3E0000
3C0000
3C1F80
3FFFC0
7FFFC0
7FFF80
7FF800
780000
780000
F80000
F80000
F00000
F00000
F00000
FFFE00
FFFF00
7FFE00
3FFC00
ENDCHAR
STARTCHAR 011B
ENCODING 283
SWIDTH 556 0
DWIDTH 17 0
BBX 17 25 1 0
BITMAP
018000
03C380
01E780
01FF80
00FE00
007C00
003000
000000
000000
01F800
07FE00
0FFF00
1FFF00
3E1F00
7C7E00
7BFC00
7FF800
FFC000
FF0000
F80000
F80E00
7FFE00
7FFE00
3FF800
0FE000
ENDCHAR
STARTCHAR 011C
ENCODING 284
SWIDTH 687 0
DWIDTH 21 0
BBX 24 34 0 -1
BITMAP
0000E0
0001F0
0003F8
0007FC
001FBE
003F3F
003C1F
00380E
000F80
003FE0
007FF0
00FFF8
01F9F8
03E070
07C000
07C000
0F8000
1F0000
1E0000
3E0000
3C07F8
7C7FFC
79FFFC
79FFF8
79FDF0
79C1F0
F803E0
F807E0
F80FC0
7C3F80
7FFF00
7FFE00
3FF800
0FE000
ENDCHAR
STARTCHAR 011D
ENCODING 285
SWIDTH 523 0
DWIDTH 16 0
BBX 20 34 -1 -8
BITMAP
000700
000F80
003FC0
007FE0
00FFF0
01F1F0
01E0F0
01C070
000000
000000
007F00
01FF80
03FFE0
07F7E0
0F83C0
1F03C0
1E03C0
3E0780
3C0780
3C0F80
3C0F80
3C1F00
3FFF00
1FFF00
0FFF00
07CF00
001E00
001E00
003E00
007C00
7FFC00
FFF800
FFE000
7F8000
ENDCHAR
STARTCHAR 011E
ENCODING 286
SWIDTH 687 0
DWIDTH 21 0
BBX 24 32 0 -1
BITMAP
003806
00380F
003C1E
003FFE
001FFC
000FE0
000F80
003FE0
007FF0
00FFF8
01F9F8
03E070
07C000
07C000
0F8000
1F0000
1E0000
3E0000
3C07F8
7C7FFC
79FFFC
79FFF8
79FDF0
79C1F0
F803E0
F807E0
F80FC0
7C3F80
7FFF00
7FFE00
3FF800
0FE000
ENDCHAR
STARTCHAR 011F
ENCODING 287
SWIDTH 523 0
DWIDTH 16 0
BBX 21 32 -1 -8
BITMAP
01C038
01C078
01E0F8
01FFF0
00FFE0
003F00
000000
000000
007F00
01FF80
03FFE0
07F7E0
0F83C0
1F03C0
1E03C0
3E0780
3C0780
3C0F80
3C0F80
3C1F00
3FFF00
1FFF00
0FFF00
07CF00
001E00
001E00
003E00
007C00
7FFC00
FFF800
FFE000
7F8000
ENDCHAR
STARTCHAR 0120
ENCODING 288
SWIDTH 687 0
DWIDTH 21 0
BBX 22 30 0 0
BITMAP
0001E0
0003E0
0001E0
0001C0
000F80
003FE0
007FF0
00FFF8
01F9F8
03E070
07C000
07C000
0F8000
1F0000
1E0000
3E0000
3C07F8
7C7FFC
79FFFC
79FFF8
79FDF0
79C1F0
F803E0
F807E0
F80FC0
7C3F80
7FFF00
7FFE00
3FF800
0FE000
ENDCHAR
STARTCHAR 0121
ENCODING 289
SWIDTH 523 0
DWIDTH 16 0
BBX 19 31 -1 -8
BITMAP
000200
000F00
000F80
000F80
000700
000000
000000
007F00
01FF80
03FFE0
07F7E0
0F83C0
1F03C0
1E03C0
3E0780
3C0780
3C0F80
3C0F80
3C1F00
3FFF00
1FFF00
0FFF00
07CF00
001E00
001E00
003E00
007C00
7FFC00
FFF800
FFE000
7F8000
ENDCHAR
STARTCHAR 0122
ENCODING 290
SWIDTH 687 0
DWIDTH 21 0
BBX 22 34 0 -9
BITMAP
000F80
003FE0
007FF0
00FFF8
01F9F8
03E070
07C000
07C000
0F8000
1F0000
1E0000
3E0000
3C07F8
7C7FFC
79FFFC
79FFF8
79FDF0
79C1F0
F803E0
F807E0
F80FC0
7C3F80
7FFF00
7FFE00
3FF800
0FE000
01C000
03E000
03E000
01E000
00E000
01C000
038000
030000
ENDCHAR
STARTCHAR 0123
ENCODING 291
SWIDTH 523 0
DWIDTH 16 0
BBX 19 35 -1 -8
BITMAP
000700
000F00
000E00
001C00
001E00
001E00
001E00
001C00
000000
000000
000000
007F00
01FF80
03FFE0
07F7E0
0F83C0
1F03C0
1E03C0
3E0780
3C0780
3C0F80
3C0F80
3C1F00
3FFF00
1FFF00
0FFF00
07CF00
001E00
001E00
003E00
007C00
7FFC00
FFF800
FFE000
7F8000
ENDCHAR
STARTCHAR 0124
ENCODING 292
SWIDTH 785 0
DWIDTH 24 0
BBX 24 34 2 -1
BITMAP
000380
0007C0
000FE0
001FF0
007EF8
00FCFC
00F07C
00E038
060006
0F000F
0F000F
0F001F
1E001E
1E001E
1E001E
1E003E
1E003E
1C003C
3C07FC
3CFFFC
3FFFFC
3FFFFC
3FF878
7E0078
780078
780078
780078
780078
F000F8
F000F8
F000F8
F000F0
F00060
E00000
ENDCHAR
STARTCHAR 0125
ENCODING 293
SWIDTH 589 0
DWIDTH 18 0
BBX 18 33 2 0
BITMAP
001C00
003E00
007F00
01FF80
03FFC0
07C7C0
0783C0
0701C0
000000
0E0000
1E0000
1F0000
1E0000
1E0000
1E0000
1E0000
3E0000
3C7C00
3DFE00
3FFF00
3FFF00
3F8F00
7F0E00
7E1E00
7C1E00
781E00
781E00
781E00
F81E00
F81E00
F01E00
F01E00
E01C00
ENDCHAR
STARTCHAR 0126
ENCODING 294
SWIDTH 883 0
DWIDTH 27 0
BBX 26 26 4 -1
BITMAP
06000700
0F000F00
0F000F00
FFFFFFC0
FFFFFFC0
FFFFFF80
1E00FE00
1E003E00
1E003E00
3E003C00
3C003C00
3C07FC00
3CFFFC00
3FFFFC00
3FFFF800
7FF87800
7E007800
78007800
78007800
78007800
F800F800
F000F800
F000F000
F000F000
F0006000
E0000000
ENDCHAR
STARTCHAR 0127
ENCODING 295
SWIDTH 589 0
DWIDTH 18 0
BBX 15 24 2 0
BITMAP
0E00
1E00
1E00
FFFC
FFFC
FFFC
1E00
3E00
3C7C
3DFE
3FFE
3FFE
3F9E
7F1E
7E1E
7C1E
781E
781E
781E
F81E
F01E
F01E
F01E
E01C
ENDCHAR
STARTCHAR 0128
ENCODING 296
SWIDTH 556 0
DWIDTH 17 0
BBX 20 31 1 -1
BITMAP
01F060
03F0F0
07F8E0
0F3FE0
0E1FC0
000F00
000000
000000
0FFF00
1FFFE0
1FFFE0
1FFFC0
00F380
01F000
01F000
01E000
01E000
01E000
01E000
03E000
03E000
03C000
03C000
03C000
03C000
07C000
07C000
3FFE00
FFFE00
FFFE00
FFFC00
ENDCHAR
STARTCHAR 0129
ENCODING 297
SWIDTH 294 0
DWIDTH 9 0
BBX 16 24 0 0
BITMAP
1F06
3F8F
7FCE
F3FE
E1FC
00F8
0000
0000
0300
0780
0F80
0F00
0F00
0F00
0F00
1F00
1E00
1E00
1E00
1E00
1E00
3E00
3C00
1C00
ENDCHAR
STARTCHAR 012A
ENCODING 298
SWIDTH 556 0
DWIDTH 17 0
BBX 19 29 1 -1
BITMAP
00E300
07FFC0
07FFC0
03FF80
000000
000000
0FFF00
1FFFE0
1FFFE0
1FFFC0
00F380
01F000
01F000
01E000
01E000
01E000
01E000
03E000
03E000
03C000
03C000
03C000
03C000
07C000
07C000
3FFE00
FFFE00
FFFE00
FFFC00
ENDCHAR
STARTCHAR 012B
ENCODING 299
SWIDTH 294 0
DWIDTH 9 0
BBX 13 22 1 0
BITMAP
1E60
FFF8
FFF8
7FF0
0000
0000
0600
0F00
1F00
1E00
1E00
1E00
1E00
3E00
3C00
3C00
3C00
3C00
3C00
7C00
7800
3800
ENDCHAR
STARTCHAR 012C
ENCODING 300
SWIDTH 556 0
DWIDTH 17 0
BBX 19 31 1 -1
BITMAP
0700C0
0701E0
0783C0
07FFC0
03FF80
01FC00
000000
000000
0FFF00
1FFFE0
1FFFE0
1FFFC0
00F380
01F000
01F000
01E000
01E000
01E000
01E000
03E000
03E000
03C000
03C000
03C000
03C000
07C000
07C000
3FFE00
FFFE00
FFFE00
FFFC00
ENDCHAR
STARTCHAR 012D
ENCODING 301
SWIDTH 294 0
DWIDTH 9 0
BBX 14 24 1 0
BITMAP
601C
F03C
F07C
FFF8
7FF0
1F80
0000
0000
0600
0F00
1F00
1E00
1E00
1E00
1E00
3E00
3C00
3C00
3C00
3C00
3C00
7C00
7800
3800
ENDCHAR
STARTCHAR 012E
ENCODING 302
SWIDTH 556 0
DWIDTH 17 0
BBX 19 30 1 -7
BITMAP
0FFF00
1FFFE0
1FFFE0
1FFFC0
00F380
01F000
01F000
01E000
01E000
01E000
01E000
03E000
03E000
03C000
03C000
03C000
03C000
07C000
07C000
3FFE00
FFFE00
FFFE00
FFFC00
0F0000
0E0000
0E0000
0E1000
0FF800
0FF800
03E000
ENDCHAR
STARTCHAR 012F
ENCODING 303
SWIDTH 294 0
DWIDTH 9 0
BBX 11 30 0 -7
BITMAP
01C0
03E0
03E0
03C0
0000
0000
0000
0300
0780
0F80
0F00
0F00
0F00
0F00
1F00
1E00
1E00
1E00
1E00
1E00
3E00
3C00
7C00
F000
F000
E000
F100
FF80
7F80
3E00
ENDCHAR
STARTCHAR 0130
ENCODING 304
SWIDTH 556 0
DWIDTH 17 0
BBX 19 30 1 -1
BITMAP
001000
003800
007C00
007C00
003800
000000
000000
0FFF00
1FFFE0
1FFFE0
1FFFC0
00F380
01F000
01F000
01E000
01E000
01E000
01E000
03E000
03E000
03C000
03C000
03C000
03C000
07C000
07C000
3FFE00
FFFE00
FFFE00
FFFC00
ENDCHAR
STARTCHAR 0131
ENCODING 305
SWIDTH 294 0
DWIDTH 9 0
BBX 7 16 2 0
BITMAP
0C
1E
3E
3C
3C
3C
3C
7C
78
78
78
78
78
F8
F0
70
ENDCHAR
STARTCHAR 0132
ENCODING 306
SWIDTH 1178 0
DWIDTH 36 0
BBX 38 24 1 -1
BITMAP
0FFF00FFF8
1FFFE3FFFC
1FFFE3FFFC
1FFFC3FFF8
00F3800F00
01F0000F00
01F0000F00
01E0000F00
01E0001F00
01E0001E00
01E0001E00
03E0001E00
03E0001E00
03C0003E00
03C0003C00
03C0703C00
03C0F03C00
07C0F07800
07C0F87800
3FFEFC7800
FFFE7FF000
FFFE7FF000
FFFC1FE000
0000078000
ENDCHAR
STARTCHAR 0133
ENCODING 307
SWIDTH 556 0
DWIDTH 17 0
BBX 15 31 2 -8
BITMAP
070E
0F9E
0F9E
0F1E
0008
0000
0000
0C1C
1E3E
3E3C
3C3C
3C3C
3C3C
3C3C
7C3C
787C
787C
787C
787C
7878
F878
F078
7078
0078
3878
7CF8
7CF0
3FF0
3FE0
1FC0
0F80
ENDCHAR
STARTCHAR 0134
ENCODING 308
SWIDTH 687 0
DWIDTH 21 0
BBX 23 34 1 -1
BITMAP
0001C0
0003E0
0007F0
000FF8
003F7C
007E3E
00783E
00701C
000000
000000
00FFFC
01FFFC
01FFFC
01FFFC
000780
000F80
000F00
000F00
000F00
000F00
001F00
001E00
001E00
001E00
001E00
703C00
783C00
F83C00
F83C00
7E7800
7FF800
3FF000
1FE000
07C000
ENDCHAR
STARTCHAR 0135
ENCODING 309
SWIDTH 425 0
DWIDTH 13 0
BBX 18 34 -1 -8
BITMAP
003800
007C00
00FE00
01FF00
03EF80
0FC7C0
0F87C0
060380
000000
000000
003000
007800
00F800
00F800
00F800
00F800
00F000
00F000
00F000
00F000
00F000
00F000
01F000
01F000
01F000
01E000
01E000
71E000
F1E000
FBE000
FFC000
7FC000
3F8000
1E0000
ENDCHAR
STARTCHAR 0136
ENCODING 310
SWIDTH 621 0
DWIDTH 19 0
BBX 19 32 2 -9
BITMAP
0E00C0
1F03E0
1F07E0
1E0FC0
1E1F80
1E3F00
1E7E00
3CFC00
3DF800
3FF000
3FC000
3F8000
7F0000
7F8000
7FC000
7FE000
7FF000
FBF800
F9FC00
F0FF00
F07F80
F03F00
F00F00
E00000
038000
07C000
07C000
03C000
01C000
038000
070000
060000
ENDCHAR
STARTCHAR 0137
ENCODING 311
SWIDTH 556 0
DWIDTH 17 0
BBX 17 33 1 -9
BITMAP
070000
0F0000
0F0000
0F0000
0F0000
1F0000
1F0000
1E0300
1E0F80
1E1F80
1E3F00
3E7E00
3DFC00
3FF000
3FE000
3FF000
7FF800
7EF800
787C00
787C00
783E00
F83E00
F01E00
700C00
000000
038000
07C000
07C000
03C000
01C000
038000
070000
060000
ENDCHAR
STARTCHAR 0138
ENCODING 312
SWIDTH 556 0
DWIDTH 17 0
BBX 17 17 1 0
BITMAP
0E0000
1E0300
1E0F80
1E1F80
1E3F00
3EFE00
3DF800
3FF000
3FF000
3FF000
7FF800
7CFC00
787C00
783E00
783E00
F81E00
700E00
ENDCHAR
STARTCHAR 0139
ENCODING 313
SWIDTH 556 0
DWIDTH 17 0
BBX 16 33 1 -1
BITMAP
000E
001F
003E
007C
00F8
01F0
01C0
0000
0000
0E00
0F00
1F00
1E00
1E00
1E00
1E00
1E00
3E00
3C00
3C00
3C00
3C00
7C00
7800
7800
7800
F800
F00E
F0FF
FFFF
FFFE
FFF8
7F00
ENDCHAR
STARTCHAR 013A
ENCODING 314
SWIDTH 261 0
DWIDTH 8 0
BBX 14 33 2 0
BITMAP
0038
007C
00F8
01F0
07E0
0780
0700
0000
0000
0600
0F00
0F00
1F00
1E00
1E00
1E00
1E00
1E00
3E00
3C00
3C00
3C00
3C00
3C00
7C00
7800
7800
7800
7800
7800
F800
F000
7000
ENDCHAR
STARTCHAR 013B
ENCODING 315
SWIDTH 556 0
DWIDTH 17 0
BBX 16 32 1 -9
BITMAP
0E00
0F00
1F00
1E00
1E00
1E00
1E00
1E00
3E00
3C00
3C00
3C00
3C00
7C00
7800
7800
7800
F800
F00E
F0FF
FFFF
FFFE
FFF8
7F00
01C0
03E0
03E0
03E0
00C0
01C0
0780
0300
ENDCHAR
STARTCHAR 013C
ENCODING 316
SWIDTH 261 0
DWIDTH 8 0
BBX 9 33 1 -9
BITMAP
0300
0780
0780
0F80
0F00
0F00
0F00
0F00
0F00
1F00
1E00
1E00
1E00
1E00
1E00
3E00
3C00
3C00
3C00
3C00
3C00
7C00
7800
3800
0000
7000
F800
F800
F800
3000
7000
E000
C000
ENDCHAR
STARTCHAR 013D
ENCODING 317
SWIDTH 556 0
DWIDTH 17 0
BBX 16 24 1 -1
BITMAP
0E06
0F0F
1F0F
1E0F
1E0E
1E0E
1E1C
1E18
3E00
3C00
3C00
3C00
3C00
7C00
7800
7800
7800
F800
F00E
F0FF
FFFF
FFFE
FFF8
7F00
ENDCHAR
STARTCHAR 013E
ENCODING 318
SWIDTH 458 0
DWIDTH 14 0
BBX 14 24 2 0
BITMAP
0618
0F3C
0F3C
1F3C
1E38
1E38
1E70
1E60
1E00
3E00
3C00
3C00
3C00
3C00
3C00
7C00
7800
7800
7800
7800
7800
F800
F000
7000
ENDCHAR
STARTCHAR 013F
ENCODING 319
SWIDTH 556 0
DWIDTH 17 0
BBX 16 24 1 -1
BITMAP
0E00
0F00
1F00
1E00
1E00
1E00
1E00
1E00
3E00
3C00
3C1C
3C1E
3C3E
7C3E
781C
7800
7800
F800
F00E
F0FF
FFFF
FFFE
FFF8
7F00
ENDCHAR
STARTCHAR 0140
ENCODING 320
SWIDTH 425 0
DWIDTH 13 0
BBX 13 24 2 0
BITMAP
0600
0F00
0F00
1F00
1E00
1E00
1E00
1E00
1E00
3E00
3C00
3C70
3CF8
3CF8
3CF0
7C60
7800
7800
7800
7800
7800
F800
F000
7000
ENDCHAR
STARTCHAR 0141
ENCODING 321
SWIDTH 621 0
DWIDTH 19 0
BBX 18 24 1 -1
BITMAP
01C000
03C000
03C000
03C000
07C000
07C000
078000
07B800
07F800
07F800
0FF000
1FC000
7F0000
FF0000
FF0000
FF0000
1E0000
1E0000
1E01C0
3E3FC0
3FFFC0
3FFFC0
3FFF00
1FE000
ENDCHAR
STARTCHAR 0142
ENCODING 322
SWIDTH 360 0
DWIDTH 11 0
BBX 12 24 0 0
BITMAP
0180
0380
0380
0780
0780
0780
0780
0780
0770
0FF0
0FE0
0FC0
1F80
7F00
FE00
FE00
DE00
1E00
1E00
1E00
1C00
1C00
3C00
1800
ENDCHAR
STARTCHAR 0143
ENCODING 323
SWIDTH 818 0
DWIDTH 25 0
BBX 26 33 1 -1
BITMAP
00001800
00007C00
0000F800
0001F000
0003E000
0007C000
00030000
07000000
0F000000
1F800380
1F8003C0
1FC003C0
1FC007C0
1FE007C0
1FF007C0
1FF007C0
1EF80780
1EF80780
3E7C0780
3E3E0780
3C3F0F80
3C1F0F80
3C0F8F00
3C0FCF00
3C07EF00
7C03FF00
7C01FF00
7801FE00
7800FE00
78007E00
F8003E00
F0001C00
70000000
ENDCHAR
STARTCHAR 0144
ENCODING 324
SWIDTH 523 0
DWIDTH 16 0
BBX 16 25 1 0
BITMAP
0007
001F
003F
007C
00F8
01F0
00E0
0000
0000
1C7C
1EFE
3FFE
3FFF
3FCF
3F1E
3E1E
3C1E
7C1E
781E
781E
783E
F83E
F83E
F03E
701C
ENDCHAR
STARTCHAR 0145
ENCODING 325
SWIDTH 818 0
DWIDTH 25 0
BBX 26 34 1 -9
BITMAP
07000000
0F000000
1F800380
1F8003C0
1FC003C0
1FC007C0
1FE007C0
1FF007C0
1FF007C0
1EF80780
1EF80780
3E7C0780
3E3E0780
3C3F0F80
3C1F0F80
3C0F8F00
3C0FCF00
3C07EF00
7C03FF00
7C01FF00
7801FE00
7800FE00
78007E00
F8003E00
F0001C00
70000000
00700000
00780000
00F80000
00780000
00380000
00700000
00E00000
00C00000
ENDCHAR
STARTCHAR 0146
ENCODING 326
SWIDTH 523 0
DWIDTH 16 0
BBX 16 25 1 -9
BITMAP
1C7C
1EFE
3FFE
3FFF
3FCF
3F1E
3E1E
3C1E
7C1E
781E
781E
783E
F83E
F83E
F03E
701C
0000
0700
0F80
0F80
0F80
0300
0700
1E00
1C00
ENDCHAR
STARTCHAR 0147
ENCODING 327
SWIDTH 818 0
DWIDTH 25 0
BBX 26 33 1 -1
BITMAP
000C0000
001E1C00
001E3C00
000FF800
0007F000
0007C000
00038000
07000000
0F000000
1F800380
1F8003C0
1FC003C0
1FC007C0
1FE007C0
1FF007C0
1FF007C0
1EF80780
1EF80780
3E7C0780
3E3E0780
3C3F0F80
3C1F0F80
3C0F8F00
3C0FCF00
3C07EF00
7C03FF00
7C01FF00
7801FE00
7800FE00
78007E00
F8003E00
F0001C00
70000000
ENDCHAR
STARTCHAR 0148
ENCODING 328
SWIDTH 523 0
DWIDTH 16 0
BBX 17 25 1 0
BITMAP
018000
03C380
01E780
01FF80
00FE00
007C00
003000
000000
000000
1C7C00
1EFE00
3FFE00
3FFF00
3FCF00
3F1E00
3E1E00
3C1E00
7C1E00
781E00
781E00
783E00
F83E00
F83E00
F03E00
701C00
ENDCHAR
STARTCHAR 0149
ENCODING 329
SWIDTH 654 0
DWIDTH 20 0
BBX 15 25 5 0
BITMAP
6000
F000
F000
F000
F000
F000
E000
0000
0000
1C7C
3DFE
3FFE
3FFE
3F9E
3F1E
7E1E
7C1E
783E
783E
F83C
F03C
F03C
F03C
F03C
E038
ENDCHAR
STARTCHAR 014A
ENCODING 330
SWIDTH 818 0
DWIDTH 25 0
BBX 26 33 1 -8
BITMAP
06000000
0F000000
1F800380
1F8003C0
1FC003C0
1FC007C0
1FE007C0
1FF007C0
1FF007C0
1EF80780
1EF80780
3E7C0780
3E7E0780
3C3E0F80
3C1F0F80
3C1F8F00
3C0FCF00
3C07CF00
7C07EF00
7C03FF00
7801FF00
7800FE00
7800FE00
F8007E00
F0003E00
70001C00
00003C00
00007C00
0000F800
001FF000
003FE000
003FC000
003E0000
ENDCHAR
STARTCHAR 014B
ENCODING 331
SWIDTH 523 0
DWIDTH 16 0
BBX 16 22 1 -6
BITMAP
1C7C
1EFE
3FFE
3FFF
3FCF
3F0E
3E1E
3C1E
7C1E
781E
781E
781E
F81E
F81E
F01E
701E
003C
003C
03F8
07F8
07F0
07C0
ENDCHAR
STARTCHAR 014C
ENCODING 332
SWIDTH 818 0
DWIDTH 25 0
BBX 24 30 2 -1
BITMAP
000798
001FFE
003FFE
001FFE
000000
000000
001FE0
007FF8
01FFFC
03FFFE
07F07E
0FC01F
1F801F
1F001F
3E001F
3C001F
7C001F
78001E
F8001E
F0003E
F0003C
F0007C
F000F8
F801F8
FC03F0
7F0FE0
7FFFC0
3FFF80
0FFE00
03F800
ENDCHAR
STARTCHAR 014D
ENCODING 333
SWIDTH 523 0
DWIDTH 16 0
BBX 17 22 1 0
BITMAP
03C600
0FFF80
0FFF80
07FF00
000000
000000
01F800
07FC00
0FFE00
1FFE00
3E1E00
3C1F00
7C1F00
781E00
781E00
F81E00
F83E00
7C7C00
7FF800
7FF000
3FE000
0F8000
ENDCHAR
STARTCHAR 014E
ENCODING 334
SWIDTH 818 0
DWIDTH 25 0
BBX 25 32 2 -1
BITMAP
001C0300
001C0780
001E0F00
001FFF00
000FFC00
0007F000
00000000
00000000
001FE000
007FF800
01FFFC00
03FFFE00
07F07E00
0FC01F00
1F801F00
1F001F00
3E001F00
3C001F00
7C001F00
78001E00
F8001E00
F0003E00
F0003C00
F0007C00
F000F800
F801F800
FC03F000
7F0FE000
7FFFC000
3FFF8000
0FFE0000
03F80000
ENDCHAR
STARTCHAR 014F
ENCODING 335
SWIDTH 523 0
DWIDTH 16 0
BBX 19 24 1 0
BITMAP
0700C0
0701E0
0783C0
07FFC0
03FF00
01FC00
000000
000000
01F800
07FC00
0FFE00
1FFE00
3E1E00
3C1F00
7C1F00
781E00
781E00
F81E00
F83E00
7C7C00
7FF800
7FF000
3FE000
0F8000
ENDCHAR
STARTCHAR 0150
ENCODING 336
SWIDTH 818 0
DWIDTH 25 0
BBX 25 32 2 -1
BITMAP
0000C380
0003E780
0007DF80
000F3E00
001E3C00
001C3000
00000000
00000000
001FE000
007FF800
01FFFC00
03FFFE00
07F07E00
0FC01F00
1F801F00
1F001F00
3E001F00
3C001F00
7C001F00
78001E00
F8001E00
F0003E00
F0003C00
F0007C00
F000F800
F801F800
FC03F000
7F0FE000
7FFFC000
3FFF8000
0FFE0000
03F80000
ENDCHAR
STARTCHAR 0151
ENCODING 337
SWIDTH 523 0
DWIDTH 16 0
BBX 20 24 1 0
BITMAP
003870
0078F0
01F3E0
03E7C0
07CF80
030E00
000000
000000
01F800
07FC00
0FFE00
1FFE00
3E1E00
3C1F00
7C1F00
781E00
781E00
F81E00
F83E00
7C7C00
7FF800
7FF000
3FE000
0F8000
ENDCHAR
STARTCHAR 0152
ENCODING 338
SWIDTH 1210 0
DWIDTH 37 0
BBX 38 26 2 -1
BITMAP
0000003FE0
000007FFFC
001FC7FFFC
00FFFFFFFC
01FFFFE038
03FFFF8000
07E07F8000
0F803F0000
1F001F0000
3E001F0000
3C001F07C0
7C001FFFE0
78001FFFE0
F8001FFFE0
F0003FFC00
F0003E0000
F0007C0000
F0007C0000
F000FC0000
F801FC0000
F803FC0000
FE0FFC0000
7FFFFFFF80
3FFF3FFF80
1FFE3FFF80
03F80FFF00
ENDCHAR
STARTCHAR 0153
ENCODING 339
SWIDTH 916 0
DWIDTH 28 0
BBX 27 16 1 0
BITMAP
01F83F00
07FCFFC0
0FFFFFE0
1FFFFFE0
3E1FC3E0
3C1F8FC0
7C1F3FC0
781FFF00
781FFC00
F81FE000
F83F80E0
7C7F01E0
7FFFFFE0
7FFFFFC0
3FE7FF80
0F81FC00
ENDCHAR
STARTCHAR 0154
ENCODING 340
SWIDTH 654 0
DWIDTH 20 0
BBX 18 32 2 0
BITMAP
000380
000780
000F80
003F00
007C00
007800
007000
000000
000000
0FE000
1FF800
1FFE00
1FFF00
3C7F80
3C1FC0
3C07C0
3C03C0
3C03C0
3C03C0
7C07C0
783F80
7FFF00
7FFE00
7FF800
7FF000
FFFC00
F1FE00
F07F00
F03F80
F00F80
F00780
E00300
ENDCHAR
STARTCHAR 0155
ENCODING 341
SWIDTH 490 0
DWIDTH 15 0
BBX 16 25 1 0
BITMAP
000E
001F
003E
007C
01F8
01E0
01C0
0000
0000
1C7C
1DFE
3FFE
3FFE
3F9E
3E1E
3C1C
7C00
7800
7800
7800
7800
7800
7800
F000
7000
ENDCHAR
STARTCHAR 0156
ENCODING 342
SWIDTH 654 0
DWIDTH 20 0
BBX 18 32 2 -9
BITMAP
0FE000
1FF800
1FFE00
1FFF00
3C7F80
3C1FC0
3C07C0
3C03C0
3C03C0
3C03C0
7C07C0
783F80
7FFF00
7FFE00
7FF800
7FF000
FFFC00
F1FE00
F07F00
F03F80
F00F80
F00780
E00300
000000
038000
078000
07C000
078000
038000
070000
0F0000
0E0000
ENDCHAR
STARTCHAR 0157
ENCODING 343
SWIDTH 490 0
DWIDTH 15 0
BBX 16 25 0 -9
BITMAP
0E3E
0EFF
1FFF
1FFF
1FCF
1F0F
1E0E
3E00
3C00
3C00
3C00
3C00
3C00
3C00
7800
3800
0000
7000
7800
7800
7800
3800
7000
F000
C000
ENDCHAR
STARTCHAR 0158
ENCODING 344
SWIDTH 654 0
DWIDTH 20 0
BBX 18 32 2 0
BITMAP
01C000
03C180
01E7C0
01FF80
00FE00
007C00
003000
000000
000000
0FE000
1FF800
1FFE00
1FFF00
3C7F80
3C1FC0
3C07C0
3C03C0
3C03C0
3C03C0
7C07C0
783F80
7FFF00
7FFE00
7FF800
7FF000
FFFC00
F1FE00
F07F00
F03F80
F00F80
F00780
E00300
ENDCHAR
STARTCHAR 0159
ENCODING 345
SWIDTH 490 0
DWIDTH 15 0
BBX 16 25 1 0
BITMAP
0700
0787
079F
03FE
03FC
01F0
00E0
0000
0000
1C7C
1DFE
3FFE
3FFE
3F9E
3E1E
3C1C
7C00
7800
7800
7800
7800
7800
7800
F000
7000
ENDCHAR
STARTCHAR 015A
ENCODING 346
SWIDTH 720 0
DWIDTH 22 0
BBX 21 33 1 -1
BITMAP
000038
0000F8
0001F8
0003E0
0007C0
000F80
000700
000000
000000
000FC0
003FF8
00FFF8
01FFF8
03F070
07C000
0F8000
0F8000
0F8000
0FFF80
0FFFE0
07FFF0
00FFF0
0001F8
0000F8
0000F8
0000F8
7000F0
F803F0
FC0FE0
FFFFC0
7FFF80
3FFE00
0FF000
ENDCHAR
STARTCHAR 015B
ENCODING 347
SWIDTH 490 0
DWIDTH 15 0
BBX 16 25 1 0
BITMAP
0007
000F
003F
007C
00F8
00F0
00E0
0000
0000
03FC
0FFE
1FFE
3FFC
3C1C
3E00
3F80
1FE0
07F0
01F8
0078
0078
FFF8
FFF0
FFE0
3F80
ENDCHAR
STARTCHAR 015C
ENCODING 348
SWIDTH 720 0
DWIDTH 22 0
BBX 22 34 1 -1
BITMAP
000380
0007C0
000FE0
001FF0
007EF8
00FC7C
00F07C
00E038
000000
000000
000FC0
003FF8
00FFF8
01FFF8
03F070
07C000
0F8000
0F8000
0F8000
0FFF80
0FFFE0
07FFF0
00FFF0
0001F8
0000F8
0000F8
0000F8
7000F0
F803F0
FC0FE0
FFFFC0
7FFF80
3FFE00
0FF000
ENDCHAR
STARTCHAR 015D
ENCODING 349
SWIDTH 490 0
DWIDTH 15 0
BBX 20 26 1 0
BITMAP
000E00
001F00
003F80
007FC0
00FBE0
01F1F0
03E0F0
0180E0
000000
000000
03FC00
0FFE00
1FFE00
3FFC00
3C1C00
3E0000
3F8000
1FE000
07F000
01F800
007800
007800
FFF800
FFF000
FFE000
3F8000
ENDCHAR
STARTCHAR 015E
ENCODING 350
SWIDTH 720 0
DWIDTH 22 0
BBX 21 29 1 -6
BITMAP
000FC0
003FF8
00FFF8
01FFF8
03F070
07C000
0F8000
0F8000
0F8000
0FFF80
0FFFE0
07FFF0
00FFF0
0001F8
0000F8
0000F8
0000F8
7000F0
F803F0
FC0FE0
FFFFC0
7FFF80
3FFE00
0FF000
007800
0E7800
0FF000
0FF000
07C000
ENDCHAR
STARTCHAR 015F
ENCODING 351
SWIDTH 490 0
DWIDTH 15 0
BBX 15 22 1 -6
BITMAP
03FC
0FFE
1FFE
3FFC
3C1C
3E00
3F80
1FE0
07F0
01F8
0078
0078
FFF8
FFF0
FFE0
3F80
1F80
03C0
73C0
7F80
7F80
3E00
ENDCHAR
STARTCHAR 0160
ENCODING 352
SWIDTH 720 0
DWIDTH 22 0
BBX 22 33 1 -1
BITMAP
000C00
001E1C
001F3C
000FFC
0007F0
0003E0
000380
000000
000000
000FC0
003FF8
00FFF8
01FFF8
03F070
07C000
0F8000
0F8000
0F8000
0FFF80
0FFFE0
07FFF0
00FFF0
0001F8
0000F8
0000F8
0000F8
7000F0
F803F0
FC0FE0
FFFFC0
7FFF80
3FFE00
0FF000
ENDCHAR
STARTCHAR 0161
ENCODING 353
SWIDTH 490 0
DWIDTH 15 0
BBX 16 25 1 0
BITMAP
0300
0787
07CF
03FE
01FC
00F0
00E0
0000
0000
03FC
0FFE
1FFE
3FFC
3C1C
3E00
3F80
1FE0
07F0
01F8
0078
0078
FFF8
FFF0
FFE0
3F80
ENDCHAR
STARTCHAR 0162
ENCODING 354
SWIDTH 720 0
DWIDTH 22 0
BBX 22 32 3 -9
BITMAP
7FFFF8
FFFFFC
FFFFFC
7FFFF8
00F000
00F000
00F000
00F000
01F000
01F000
01F000
01E000
01E000
01E000
01E000
01E000
01E000
01E000
03E000
03E000
03C000
03C000
038000
000000
038000
07C000
07C000
03C000
01C000
038000
070000
060000
ENDCHAR
STARTCHAR 0163
ENCODING 355
SWIDTH 490 0
DWIDTH 15 0
BBX 12 30 3 -9
BITMAP
0700
0700
0F00
0F00
0F00
FFF0
FFF0
FFF0
FFF0
1E00
1E00
1E00
3C00
3C00
3C00
3C00
3CE0
3FE0
3FE0
1FC0
0F00
0000
1C00
3C00
3E00
3C00
1C00
3800
7800
6000
ENDCHAR
STARTCHAR 0164
ENCODING 356
SWIDTH 720 0
DWIDTH 22 0
BBX 22 32 3 0
BITMAP
01C000
03C180
01E7C0
01FF80
00FE00
007C00
003000
000000
000000
7FFFF8
FFFFFC
FFFFFC
7FFFF8
00F000
00F000
00F000
00F000
01F000
01F000
01F000
01E000
01E000
01E000
01E000
01E000
01E000
01E000
03E000
03E000
03C000
03C000
038000
ENDCHAR
STARTCHAR 0165
ENCODING 357
SWIDTH 654 0
DWIDTH 20 0
BBX 18 24 2 0
BITMAP
000380
0007C0
000380
018380
03C700
03C600
07C000
07C000
7FFC00
FFFC00
FFFC00
7FF800
078000
078000
0F8000
0F8000
0F0000
0F0000
0F0000
0F0000
1F0000
1F0000
1E0000
0C0000
ENDCHAR
STARTCHAR 0166
ENCODING 358
SWIDTH 720 0
DWIDTH 22 0
BBX 22 23 3 0
BITMAP
7FFFF8
FFFFFC
FFFFFC
7FFFF8
00F000
00F000
01F000
01F000
01F000
3FFF80
3FFF80
3FFF80
01E000
01E000
01E000
01E000
03E000
03E000
03E000
03C000
03C000
03C000
038000
ENDCHAR
STARTCHAR 0167
ENCODING 359
SWIDTH 490 0
DWIDTH 15 0
BBX 14 21 2 0
BITMAP
0180
03C0
03C0
03C0
07C0
7FFC
7FFC
FFFC
7FFC
0780
0780
0F80
FFF0
FFF0
7FE0
0F00
0F00
0F00
1F00
1E00
0E00
ENDCHAR
STARTCHAR 0168
ENCODING 360
SWIDTH 752 0
DWIDTH 23 0
BBX 22 32 3 -1
BITMAP
007818
01FC38
03FE78
03CFF0
038FE0
0007C0
000000
000000
180038
3C007C
3C0078
7C0078
780078
780078
7800F8
7800F0
F800F0
F800F0
F001F0
F001E0
F001E0
F001E0
F003C0
F003C0
F007C0
F00F80
F81F00
FC3F00
7FFE00
7FFC00
3FF800
0FE000
ENDCHAR
STARTCHAR 0169
ENCODING 361
SWIDTH 523 0
DWIDTH 16 0
BBX 17 24 2 0
BITMAP
078180
1FC380
1FE780
3CFF00
38FF00
003C00
000000
000000
380E00
3C1E00
781E00
781E00
783E00
F83C00
F03C00
F03C00
F03C00
F03C00
F07C00
F07800
FFF800
FFF800
7FF800
3F7000
ENDCHAR
STARTCHAR 016A
ENCODING 362
SWIDTH 752 0
DWIDTH 23 0
BBX 22 30 3 -1
BITMAP
007880
01FFE0
01FFE0
01FFE0
000000
000000
180038
3C007C
3C0078
7C0078
780078
780078
7800F8
7800F0
F800F0
F800F0
F001F0
F001E0
F001E0
F001E0
F003C0
F003C0
F007C0
F00F80
F81F00
FC3F00
7FFE00
7FFC00
3FF800
0FE000
ENDCHAR
STARTCHAR 016B
ENCODING 363
SWIDTH 523 0
DWIDTH 16 0
BBX 16 22 2 0
BITMAP
03CC
0FFF
1FFF
0FFE
0000
0000
380E
3C1E
781E
781E
783E
F83C
F03C
F03C
F03C
F03C
F07C
F078
FFF8
FFF8
7FF8
3F70
ENDCHAR
STARTCHAR 016C
ENCODING 364
SWIDTH 752 0
DWIDTH 23 0
BBX 22 32 3 -1
BITMAP
01C070
03C070
03C0F0
01FFE0
01FFC0
007F00
000000
000000
180038
3C007C
3C0078
7C0078
780078
780078
7800F8
7800F0
F800F0
F800F0
F001F0
F001E0
F001E0
F001E0
F003C0
F003C0
F007C0
F00F80
F81F00
FC3F00
7FFE00
7FFC00
3FF800
0FE000
ENDCHAR
STARTCHAR 016D
ENCODING 365
SWIDTH 523 0
DWIDTH 16 0
BBX 17 24 2 0
BITMAP
1C0300
1C0780
1E0F00
1FFF00
0FFC00
07F000
000000
000000
380E00
3C1E00
781E00
781E00
783E00
F83C00
F03C00
F03C00
F03C00
F03C00
F07C00
F07800
FFF800
FFF800
7FF800
3F7000
ENDCHAR
STARTCHAR 016E
ENCODING 366
SWIDTH 752 0
DWIDTH 23 0
BBX 22 35 3 -1
BITMAP
001F00
007FC0
00FFC0
01E1E0
01E1E0
01E3C0
01FFC0
00FF80
007E00
000000
000000
180038
3C007C
3C0078
7C0078
780078
780078
7800F8
7800F0
F800F0
F800F0
F001F0
F001E0
F001E0
F001E0
F003C0
F003C0
F007C0
F00F80
F81F00
FC3F00
7FFE00
7FFC00
3FF800
0FE000
ENDCHAR
STARTCHAR 016F
ENCODING 367
SWIDTH 523 0
DWIDTH 16 0
BBX 15 27 2 0
BITMAP
00F8
03FC
07FE
0F0E
0E0E
0F1E
0FFC
07F8
03F0
0000
0000
380E
3C1E
781E
781E
783E
F83C
F03C
F03C
F03C
F03C
F07C
F078
FFF8
FFF8
7FF8
3F70
ENDCHAR
STARTCHAR 0170
ENCODING 368
SWIDTH 752 0
DWIDTH 23 0
BBX 22 32 3 -1
BITMAP
000E18
001E7C
007CF8
00FBF0
01E3C0
01C380
000000
000000
180038
3C007C
3C0078
7C0078
780078
780078
7800F8
7800F0
F800F0
F800F0
F001F0
F001E0
F001E0
F001E0
F003C0
F003C0
F007C0
F00F80
F81F00
FC3F00
7FFE00
7FFC00
3FF800
0FE000
ENDCHAR
STARTCHAR 0171
ENCODING 369
SWIDTH 523 0
DWIDTH 16 0
BBX 18 24 2 0
BITMAP
0060C0
01F3C0
03E7C0
07DF00
0F1E00
0E1800
000000
000000
380E00
3C1E00
781E00
781E00
783E00
F83C00
F03C00
F03C00
F03C00
F03C00
F07C00
F07800
FFF800
FFF800
7FF800
3F7000
ENDCHAR
STARTCHAR 0172
ENCODING 370
SWIDTH 752 0
DWIDTH 23 0
BBX 22 31 3 -8
BITMAP
180038
3C007C
3C0078
7C0078
780078
780078
7800F8
7800F0
F800F0
F800F0
F001F0
F001E0
F001E0
F001E0
F003C0
F003C0
F007C0
F00F80
F81F00
FC3F00
7FFE00
7FFC00
3FF800
0FE000
078000
070000
070000
078800
07FC00
03FC00
01F000
ENDCHAR
STARTCHAR 0173
ENCODING 371
SWIDTH 523 0
DWIDTH 16 0
BBX 16 24 2 -8
BITMAP
380E
3C1E
781E
781E
783E
F83C
F03C
F03C
F03C
F03C
F07C
F078
FFF8
FFF8
7FF8
3F78
00F0
01E0
01C0
01C0
01C2
01FF
01FF
007C
ENDCHAR
STARTCHAR 0174
ENCODING 372
SWIDTH 1047 0
DWIDTH 32 0
BBX 31 34 4 -1
BITMAP
0000E000
0001F000
0003F800
0007FC00
000FBE00
003F1F00
003E0F00
00180E00
00000000
00000000
7001800C
F007C01E
F807C03E
F80FC03C
F81FC07C
781FC078
783FC0F8
783FC0F0
7C3FC1F0
7C7FC1E0
7C7BC3C0
3CFBC7C0
3CF3C780
3DF3CF80
3DE3CF00
3FE3DE00
3FC3DE00
3F83FC00
3F83F800
3F03F800
3F03F000
3F03F000
1E03E000
1C01C000
ENDCHAR
STARTCHAR 0175
ENCODING 373
SWIDTH 687 0
DWIDTH 21 0
BBX 20 26 3 0
BITMAP
003800
007C00
00FE00
01FF00
07EF80
0FC7C0
0F87C0
0E0380
000000
000000
706070
F0F0F0
F1F0F0
F1F1E0
F3F1E0
F3F3C0
F7F3C0
F777C0
FF7780
FE7780
FC7F00
FC7F00
F87E00
F87C00
F07C00
603800
ENDCHAR
STARTCHAR 0176
ENCODING 374
SWIDTH 654 0
DWIDTH 20 0
BBX 19 34 3 -1
BITMAP
003800
007C00
00FE00
01FF00
07EF80
0FC7C0
0F87C0
0E0380
000000
000000
7000E0
F001E0
F801E0
F803E0
7C07C0
7C0780
3E0F80
3E1F00
1F1F00
1F3E00
0FFC00
0FFC00
07F800
07F800
03F000
03E000
07E000
07C000
0F8000
1F8000
1F0000
3E0000
3C0000
180000
ENDCHAR
STARTCHAR 0177
ENCODING 375
SWIDTH 556 0
DWIDTH 17 0
BBX 17 34 2 -8
BITMAP
007000
00F800
01FC00
03FE00
0FDF00
1F9F80
1E0F80
1C0700
000000
000000
700300
F80780
F80F80
7C1F00
7C1F00
7C3E00
3E7C00
3E7C00
1FF800
1FF000
1FF000
0FE000
0FC000
07C000
0F8000
0F0000
1F0000
3E0000
3C0000
7C0000
780000
F80000
F00000
600000
ENDCHAR
STARTCHAR 0178
ENCODING 376
SWIDTH 654 0
DWIDTH 20 0
BBX 19 30 3 -1
BITMAP
03CF00
07CF80
07DF80
078F00
000000
000000
7000E0
F001E0
F801E0
F803E0
7C07C0
7C0780
3E0F80
3E1F00
1F1F00
1F3E00
0FFC00
0FFC00
07F800
07F800
03F000
03E000
07E000
07C000
0F8000
1F8000
1F0000
3E0000
3C0000
180000
ENDCHAR
STARTCHAR 0179
ENCODING 377
SWIDTH 720 0
DWIDTH 22 0
BBX 24 32 0 0
BITMAP
000030
0000F8
0001F0
0003E0
0007C0
000F80
000600
000000
000000
0FFFFF
0FFFFF
0FFFFF
0FFFFE
0001FC
0003F0
0007E0
000FC0
001F00
003E00
007C00
00F800
01F000
03E000
07E000
0FC000
0F8000
1F0000
3E0000
7FFFF0
FFFFF8
FFFFF8
7FFFF0
ENDCHAR
STARTCHAR 017A
ENCODING 378
SWIDTH 556 0
DWIDTH 17 0
BBX 17 26 1 -1
BITMAP
000700
000F80
001F00
003E00
00FC00
00F800
00E000
000000
000000
1FFF80
3FFF80
3FFF80
1FFF00
003E00
007C00
00F800
01F000
03E000
07C000
0F8000
1F0000
3FF800
7FFC00
FFFE00
FFFC00
600000
ENDCHAR
STARTCHAR 017B
ENCODING 379
SWIDTH 720 0
DWIDTH 22 0
BBX 24 30 0 0
BITMAP
000100
000780
0007C0
0007C0
000380
000000
000000
0FFFFF
0FFFFF
0FFFFF
0FFFFE
0001FC
0003F0
0007E0
000FC0
001F00
003E00
007C00
00F800
01F000
03E000
07E000
0FC000
0F8000
1F0000
3E0000
7FFFF0
FFFFF8
FFFFF8
7FFFF0
ENDCHAR
STARTCHAR 017C
ENCODING 380
SWIDTH 556 0
DWIDTH 17 0
BBX 17 24 1 -1
BITMAP
001000
003800
007C00
007C00
003800
000000
000000
1FFF80
3FFF80
3FFF80
1FFF00
003E00
007C00
00F800
01F000
03E000
07C000
0F8000
1F0000
3FF800
7FFC00
FFFE00
FFFC00
600000
ENDCHAR
STARTCHAR 017D
ENCODING 381
SWIDTH 720 0
DWIDTH 22 0
BBX 24 33 0 0
BITMAP
000C00
001E1C
001E3C
000FF8
0007F0
0007C0
000380
000000
000000
000000
0FFFFF
0FFFFF
0FFFFF
0FFFFE
0001FC
0003F0
0007E0
000FC0
001F00
003E00
007C00
00F800
01F000
03E000
07E000
0FC000
0F8000
1F0000
3E0000
7FFFF0
FFFFF8
FFFFF8
7FFFF0
ENDCHAR
STARTCHAR 017E
ENCODING 382
SWIDTH 556 0
DWIDTH 17 0
BBX 17 26 1 -1
BITMAP
018000
03C380
03CF80
01FF00
00FE00
00F800
007000
000000
000000
1FFF80
3FFF80
3FFF80
1FFF00
003E00
007C00
00F800
01F000
03E000
07C000
0F8000
1F0000
3FF800
7FFC00
FFFE00
FFFC00
600000
ENDCHAR
STARTCHAR 017F
ENCODING 383
SWIDTH 523 0
DWIDTH 16 0
BBX 15 26 1 -2
BITMAP
007C
01FE
03FE
07FC
07C0
0F80
0F00
0F00
1F00
1E00
1E00
1E00
1E00
3C00
3C00
3C00
3C00
3C00
3C00
7C00
7800
7800
7800
7800
F000
7000
ENDCHAR
STARTCHAR 0192
ENCODING 402
SWIDTH 589 0
DWIDTH 18 0
BBX 25 29 -2 -5
BITMAP
00001F00
00007F80
0000FF00
0001FE00
0003E000
0003C000
00078000
000F8000
000F0000
001F0000
00FFF000
01FFF000
03FFF000
01FFE000
007C0000
00780000
00780000
00F80000
00F00000
00F00000
01E00000
01E00000
03E00000
07C00000
0FC00000
7F800000
FF000000
FC000000
70000000
ENDCHAR
STARTCHAR 01FA
ENCODING 506
SWIDTH 752 0
DWIDTH 23 0
BBX 24 34 2 0
BITMAP
000007
00000F
00003F
00007E
0000F8
0000F0
0003F0
000FF8
001FFC
001E3C
003C3C
003DBC
001FF8
001FF0
000FC0
001FC0
001FC0
003FC0
007FC0
00FBC0
00F3C0
01F3C0
03E3C0
07C3C0
07FFC0
1FFFC0
1FFFC0
3FFFE0
3C03E0
7C03E0
F801E0
F801E0
F001E0
E000C0
ENDCHAR
STARTCHAR 01FB
ENCODING 507
SWIDTH 556 0
DWIDTH 17 0
BBX 19 30 1 0
BITMAP
0000E0
0003E0
0007E0
000F80
001F00
003E00
001C00
007C00
01FE00
03FF00
078700
070700
078F00
07FE00
03FC00
07FE00
0FFF00
3FFE00
3E1E00
7C3E00
F83C00
F03C00
F03C00
F03C00
F03C00
F03C00
FFFC00
FFFE00
7FFE00
1F1C00
ENDCHAR
STARTCHAR 01FC
ENCODING 508
SWIDTH 1112 0
DWIDTH 34 0
BBX 38 34 0 -1
BITMAP
0000000380
00000007C0
0000000F80
0000001F00
0000007E00
0000007C00
0000007000
0000000000
0000073FE0
00001FFFF8
00003FFFFC
00007FFFF8
0000FFC070
0001FF0000
0003FF0000
0007EF0000
000FCF0000
001F9F0000
003F1F07C0
007FFFFFE0
00FFFFFFE0
00FFFFFFC0
01FFFFFC00
03F83C0000
07C03C0000
0F803C0000
1F803C0000
1F007C0000
3E007C0000
7C007C0000
F8007FFF80
F8003FFF80
70003FFF80
00000FFE00
ENDCHAR
STARTCHAR 01FD
ENCODING 509
SWIDTH 916 0
DWIDTH 28 0
BBX 27 25 2 0
BITMAP
00001C00
00007C00
0000FC00
0001F000
0003E000
0007C000
00038000
00000000
00000000
01FC7F00
07FFFF80
0FFFFFC0
3FFFFFC0
7E1F83C0
7C1F0FC0
F81E7F80
F03FFE00
F03FF800
F03FE000
F03F00C0
F83E03E0
FEFFFFC0
7FFFFFC0
3FFFFF00
0F99F800
ENDCHAR
STARTCHAR 01FE
ENCODING 510
SWIDTH 818 0
DWIDTH 25 0
BBX 28 33 1 -1
BITMAP
00000E00
00001F00
00003E00
00007C00
0001F800
0001E000
0001C000
00000000
00000000
0007F060
003FFDF0
007FFFE0
00FFFFC0
01F83F80
03E01F80
07C07F80
0F80FF80
0F01F780
1F03E780
1E07C780
3E1F8780
3C3F0F80
3C7C0F00
3CF81F00
3DF01E00
3FE03E00
3FC07C00
3F00F800
3FC3F800
7FFFF000
FFFFE000
F3FF8000
C0FE0000
ENDCHAR
STARTCHAR 01FF
ENCODING 511
SWIDTH 556 0
DWIDTH 17 0
BBX 18 25 0 0
BITMAP
000380
0007C0
000F80
001F00
007E00
007800
007000
000000
000000
00FCC0
03FFC0
07FFC0
0FFF80
1F8F80
1F1F80
3E7F80
3CF780
3DEF00
3FCF00
3F8F00
3E3E00
3FFE00
7FFC00
FFF800
67E000
ENDCHAR
STARTCHAR 0218
ENCODING 536
SWIDTH 720 0
DWIDTH 22 0
BBX 21 32 1 -9
BITMAP
000FC0
003FF8
00FFF8
01FFF8
03F070
07C000
0F8000
0F8000
0F8000
0FFF80
0FFFE0
07FFF0
00FFF0
0001F8
0000F8
0000F8
0000F8
7000F0
F803F0
FC0FE0
FFFFC0
7FFF80
3FFE00
0FF000
00E000
01F000
01F000
00F000
007000
00E000
01C000
018000
ENDCHAR
STARTCHAR 0219
ENCODING 537
SWIDTH 490 0
DWIDTH 15 0
BBX 15 25 1 -9
BITMAP
03FC
0FFE
1FFE
3FFC
3C1C
3E00
3F80
1FE0
07F0
01F8
0078
0078
FFF8
FFF0
FFE0
3F80
0000
0700
0F80
0F80
0F80
0300
0F00
1E00
1C00
ENDCHAR
STARTCHAR 021A
ENCODING 538
SWIDTH 720 0
DWIDTH 22 0
BBX 22 29 3 -6
BITMAP
7FFFF8
FFFFFC
FFFFFC
7FFFF8
00F000
00F000
00F000
00F000
01F000
01F000
01F000
01E000
01E000
01E000
01E000
01E000
01E000
01E000
03E000
03E000
03C000
03C000
07E000
03F000
00F000
0E7000
1FF000
0FE000
07C000
ENDCHAR
STARTCHAR 021B
ENCODING 539
SWIDTH 490 0
DWIDTH 15 0
BBX 12 27 3 -6
BITMAP
0700
0700
0F00
0F00
0F00
FFF0
FFF0
FFF0
FFF0
1E00
1E00
1E00
3C00
3C00
3C00
3C00
3CE0
3FE0
3FE0
1FC0
3F00
1F80
0780
7380
FF80
7F00
3E00
ENDCHAR
STARTCHAR 0237
ENCODING 567
SWIDTH 327 0
DWIDTH 10 0
BBX 12 24 -3 -8
BITMAP
0070
00F0
00F0
00F0
00F0
00F0
01F0
01F0
01F0
01F0
01F0
01E0
01E0
01E0
01E0
01E0
01E0
63E0
F3E0
F3C0
FFC0
FF80
7F00
3E00
ENDCHAR
STARTCHAR 02C6
ENCODING 710
SWIDTH 556 0
DWIDTH 17 0
BBX 14 8 5 18
BITMAP
0180
07E0
0FE0
1FF0
3EF8
7C7C
F83C
6018
ENDCHAR
STARTCHAR 02C7
ENCODING 711
SWIDTH 556 0
DWIDTH 17 0
BBX 11 7 7 18
BITMAP
6000
F0E0
79E0
7FE0
3F80
1F00
0C00
ENDCHAR
STARTCHAR 02C9
ENCODING 713
SWIDTH 556 0
DWIDTH 17 0
BBX 13 4 6 17
BITMAP
3C60
FFF8
FFF8
7FF0
ENDCHAR
STARTCHAR 02D8
ENCODING 728
SWIDTH 556 0
DWIDTH 17 0
BBX 14 6 6 18
BITMAP
E01C
E03C
F07C
FFF8
7FF0
1F80
ENDCHAR
STARTCHAR 02D9
ENCODING 729
SWIDTH 556 0
DWIDTH 17 0
BBX 5 5 7 17
BITMAP
20
78
F8
F8
70
ENDCHAR
STARTCHAR 02DA
ENCODING 730
SWIDTH 556 0
DWIDTH 17 0
BBX 11 9 7 18
BITMAP
1F80
3FC0
7FE0
F1E0
E0E0
F1E0
FFC0
FF80
3E00
ENDCHAR
STARTCHAR 02DB
ENCODING 731
SWIDTH 556 0
DWIDTH 17 0
BBX 9 10 4 -7
BITMAP
1800
7C00
7800
F000
E000
E000
E100
FF80
FF00
3C00
ENDCHAR
STARTCHAR 02DC
ENCODING 732
SWIDTH 556 0
DWIDTH 17 0
BBX 16 6 5 18
BITMAP
1F06
3F8F
7F8E
F3FE
E1FC
00F8
ENDCHAR
STARTCHAR 02DD
ENCODING 733
SWIDTH 556 0
DWIDTH 17 0
BBX 14 6 6 18
BITMAP
061C
1E3C
3EFC
F9F0
F3E0
C180
ENDCHAR
STARTCHAR 037E
ENCODING 894
SWIDTH 425 0
DWIDTH 13 0
BBX 9 20 3 -3
BITMAP
0700
0F80
0F80
0F80
0700
0000
0000
0000
0000
0000
0000
0000
0000
0C00
1E00
3C00
7C00
F000
F000
E000
ENDCHAR
STARTCHAR 0384
ENCODING 900
SWIDTH 556 0
DWIDTH 17 0
BBX 7 8 9 17
BITMAP
0C
1E
3E
3C
78
78
F0
60
ENDCHAR
STARTCHAR 0385
ENCODING 901
SWIDTH 621 0
DWIDTH 19 0
BBX 15 7 5 17
BITMAP
00C0
01E0
01E0
73DE
F39E
771C
0300
ENDCHAR
STARTCHAR 0386
ENCODING 902
SWIDTH 752 0
DWIDTH 23 0
BBX 19 25 2 0
BITMAP
01C000
03C000
03C180
07C3C0
0787C0
0F0FC0
0E1FC0
0E1FC0
003FC0
007FC0
00FBC0
00F3C0
01F3C0
03E3C0
07C3C0
07FFC0
1FFFC0
1FFFC0
3FFFE0
3C03E0
7C03E0
F801E0
F801E0
F001E0
E000C0
ENDCHAR
STARTCHAR 0387
ENCODING 903
SWIDTH 425 0
DWIDTH 13 0
BBX 5 4 6 9
BITMAP
70
F8
F8
70
ENDCHAR
STARTCHAR 0388
ENCODING 904
SWIDTH 850 0
DWIDTH 26 0
BBX 24 26 3 -1
BITMAP
1C07FC
3CFFFF
3DFFFF
7DFFFF
79F80E
F1E000
E1E000
E1E000
01E000
03E000
03C0F8
03FFFC
03FFFC
07FFF8
07FF80
078000
078000
078000
078000
0F8000
0F8000
0F8000
0FFFF0
07FFF0
07FFF0
01FFC0
ENDCHAR
STARTCHAR 0389
ENCODING 905
SWIDTH 981 0
DWIDTH 30 0
BBX 28 26 3 -1
BITMAP
1CE00060
3DE000F0
3DE001F0
7DE001E0
79E001E0
F1E003E0
E1E003E0
E3C003C0
03C003C0
03C003C0
03C07FC0
03DFFFC0
03FFFF80
07FFFF80
07FF0780
07E00780
07800F80
07800F80
0F000F00
0F000F00
0F000F00
0F000F00
0F000F00
1E000F00
1E000E00
0C000000
ENDCHAR
STARTCHAR 038A
ENCODING 906
SWIDTH 785 0
DWIDTH 24 0
BBX 23 26 3 -1
BITMAP
1C0000
3C0000
3CFFF0
7DFFFC
7BFFFE
F1FFFC
E00F38
E01F00
001E00
001E00
001E00
001E00
003E00
003C00
003C00
003C00
003C00
003C00
007C00
007C00
007800
03FFE0
0FFFE0
0FFFE0
0FFFC0
040000
ENDCHAR
STARTCHAR 038C
ENCODING 908
SWIDTH 883 0
DWIDTH 27 0
BBX 25 26 3 -1
BITMAP
1C000000
3C000000
3C07F000
7C3FFC00
787FFF00
F1FFFF00
E3FC3F80
E3E00F80
07C00780
0F800780
1F000780
1F000780
1E000780
3E000F80
3C000F00
3C000F00
7C001F00
7C003E00
7C003E00
7C007C00
3E00F800
3F83F000
1FFFE000
0FFFC000
07FF8000
01FC0000
ENDCHAR
STARTCHAR 038E
ENCODING 910
SWIDTH 850 0
DWIDTH 26 0
BBX 26 26 3 -1
BITMAP
1C000000
3C000000
3CE00180
7DE003C0
79F007C0
F1F00780
E0F80F80
E0F81F00
00781E00
007C3E00
007C7C00
003E7C00
003EF800
001FF000
001FF000
000FE000
0007E000
0007C000
000F8000
001F8000
001F0000
003E0000
007E0000
007C0000
00780000
00700000
ENDCHAR
STARTCHAR 038F
ENCODING 911
SWIDTH 981 0
DWIDTH 30 0
BBX 30 26 0 -1
BITMAP
03801FC0
0780FFF0
0783FFF8
0F8FFFF8
0F3FE07C
1E7F003C
1CFC003C
1CF8003C
01F0003C
01E0007C
03E0007C
03C00078
03C00078
03C000F8
03C000F0
03C001F0
03C001E0
03E003E0
03E007C0
01E00F80
01E01F00
03F03E00
7FF07FF8
FFF07FF8
FFE07FF8
7E003FF8
ENDCHAR
STARTCHAR 0390
ENCODING 912
SWIDTH 294 0
DWIDTH 9 0
BBX 15 25 1 0
BITMAP
00C0
01E0
21E0
73DE
F39E
771C
0300
0000
0000
0E00
0F00
1F00
1E00
1E00
1E00
1E00
3C00
3C00
3C00
3C00
3E00
3F80
1FC0
1F80
0780
ENDCHAR
STARTCHAR 0391
ENCODING 913
SWIDTH 752 0
DWIDTH 23 0
BBX 19 23 2 0
BITMAP
000180
0003C0
0007C0
000FC0
001FC0
001FC0
003FC0
007FC0
00FBC0
00F3C0
01F3C0
03E3C0
07C3C0
07FFC0
1FFFC0
1FFFC0
3FFFE0
3C03E0
7C03E0
F801E0
F801E0
F001E0
E000C0
ENDCHAR
STARTCHAR 0392
ENCODING 914
SWIDTH 654 0
DWIDTH 20 0
BBX 18 25 2 0
BITMAP
03F800
0FFE00
1FFF00
1FFF80
1E1F80
1E07C0
1E07C0
1E03C0
1E07C0
3E0F80
3C1F80
3FFF00
3FFE00
3FFF00
3FFF80
7C1F80
7807C0
7807C0
7807C0
780F80
787F80
7FFF00
FFFC00
FFF000
7F8000
ENDCHAR
STARTCHAR 0393
ENCODING 915
SWIDTH 556 0
DWIDTH 17 0
BBX 18 24 2 -1
BITMAP
0FFF00
1FFFC0
3FFFC0
3FFFC0
3C0380
3C0000
3C0000
3C0000
3C0000
7C0000
7C0000
780000
780000
780000
780000
780000
F80000
F80000
F00000
F00000
F00000
F00000
F00000
E00000
ENDCHAR
STARTCHAR 0394
ENCODING 916
SWIDTH 818 0
DWIDTH 25 0
BBX 24 26 0 -1
BITMAP
000180
0003C0
0007C0
000FE0
000FE0
001FE0
001FF0
003FF0
007CF0
007CF0
00F8F8
00F078
01F078
01E07C
03E03C
07C03C
07803E
0F801E
1F001E
1E001F
3E000F
7FFFFF
7FFFFF
FFFFFF
FFFFFF
000008
ENDCHAR
STARTCHAR 0395
ENCODING 917
SWIDTH 621 0
DWIDTH 19 0
BBX 20 26 2 -1
BITMAP
04FFC0
1FFFF0
1FFFF0
1FFFF0
1F80E0
1E0000
1E0000
3E0000
3E0000
3C0000
3C1F80
3FFFC0
7FFFC0
7FFF80
7FF800
780000
780000
F80000
F80000
F00000
F00000
F00000
FFFE00
FFFF00
7FFE00
3FFC00
ENDCHAR
STARTCHAR 0396
ENCODING 918
SWIDTH 720 0
DWIDTH 22 0
BBX 24 23 0 0
BITMAP
0FFFFF
0FFFFF
0FFFFF
0FFFFE
0001FC
0003F0
0007E0
000FC0
001F00
003E00
007C00
00F800
01F000
03E000
07E000
0FC000
0F8000
1F0000
3E0000
7FFFF0
FFFFF8
FFFFF8
7FFFF0
ENDCHAR
STARTCHAR 0397
ENCODING 919
SWIDTH 785 0
DWIDTH 24 0
BBX 24 26 2 -1
BITMAP
060006
0F000F
0F000F
0F001F
1E001E
1E001E
1E001E
1E003E
1E003E
1C003C
3C07FC
3CFFFC
3FFFFC
3FFFFC
3FF878
7E0078
780078
780078
780078
780078
F000F8
F000F8
F000F8
F000F0
F00060
E00000
ENDCHAR
STARTCHAR 0398
ENCODING 920
SWIDTH 818 0
DWIDTH 25 0
BBX 24 24 2 -1
BITMAP
001FC0
00FFF8
01FFFC
03FFFE
07F07E
0F803E
1F001E
3E001F
3E001E
7C001E
79FF1E
FBFF9E
F1FF3E
F0003C
F0007C
F00078
F000F8
F801F0
F803E0
FE0FE0
7FFFC0
3FFF00
1FFE00
03F800
ENDCHAR
STARTCHAR 0399
ENCODING 921
SWIDTH 556 0
DWIDTH 17 0
BBX 19 23 1 -1
BITMAP
0FFF00
1FFFE0
1FFFE0
1FFFC0
00F380
01F000
01F000
01E000
01E000
01E000
01E000
03E000
03E000
03C000
03C000
03C000
03C000
07C000
07C000
3FFE00
FFFE00
FFFE00
FFFC00
ENDCHAR
STARTCHAR 039A
ENCODING 922
SWIDTH 621 0
DWIDTH 19 0
BBX 19 24 2 -1
BITMAP
0E00C0
1F03E0
1F07E0
1E0FC0
1E1F80
1E3F00
1E7E00
3CFC00
3DF800
3FF000
3FC000
3F8000
7F0000
7F8000
7FC000
7FE000
7FF000
FBF800
F9FC00
F0FF00
F07F80
F03F00
F00F00
E00000
ENDCHAR
STARTCHAR 039B
ENCODING 923
SWIDTH 687 0
DWIDTH 21 0
BBX 22 26 0 -1
BITMAP
000300
000780
000780
000F80
001F80
001F80
003F80
003FC0
007FC0
007BC0
00FBE0
01F3E0
01E1E0
03E1E0
03C1F0
0781F0
0F80F0
0F00F0
1E00F8
1E00F8
3C0078
7C007C
78007C
F8003C
F00038
E00000
ENDCHAR
STARTCHAR 039C
ENCODING 924
SWIDTH 883 0
DWIDTH 27 0
BBX 26 24 1 -1
BITMAP
00700700
00F80F00
00F80F80
01F81F80
01F81F80
03F83F80
03F83F80
03F87F80
07F87F80
07F87780
07F8F780
0F78F780
0F79E780
1E79E780
1E7BC780
3E7BC780
3C7F8780
3C3F8780
7C3F0780
783F07C0
783E07C0
F83C07C0
F01807C0
60000380
ENDCHAR
STARTCHAR 039D
ENCODING 925
SWIDTH 818 0
DWIDTH 25 0
BBX 26 26 1 -1
BITMAP
07000000
0F000000
1F800380
1F8003C0
1FC003C0
1FC007C0
1FE007C0
1FF007C0
1FF007C0
1EF80780
1EF80780
3E7C0780
3E3E0780
3C3F0F80
3C1F0F80
3C0F8F00
3C0FCF00
3C07EF00
7C03FF00
7C01FF00
7801FE00
7800FE00
78007E00
F8003E00
F0001C00
70000000
ENDCHAR
STARTCHAR 039E
ENCODING 926
SWIDTH 720 0
DWIDTH 22 0
BBX 24 24 0 -1
BITMAP
07FFFE
0FFFFF
0FFFFF
07FFFE
000000
000000
000000
000000
000000
01FFC0
03FFE0
07FFE0
03FFC0
000000
000000
000000
000000
000000
000000
1FFFF0
7FFFF8
FFFFF8
7FFFF0
300000
ENDCHAR
STARTCHAR 039F
ENCODING 927
SWIDTH 818 0
DWIDTH 25 0
BBX 24 24 2 -1
BITMAP
001FE0
007FF8
01FFFC
03FFFE
07F07E
0FC01F
1F801F
1F001F
3E001F
3C001F
7C001F
78001E
F8001E
F0003E
F0003C
F0007C
F000F8
F801F8
FC03F0
7F0FE0
7FFFC0
3FFF80
0FFE00
03F800
ENDCHAR
STARTCHAR 03A0
ENCODING 928
SWIDTH 916 0
DWIDTH 28 0
BBX 22 26 2 -1
BITMAP
07FFF8
0FFFFC
1FFFFC
1FFFFC
1E003C
1E003C
1E003C
1E007C
1E007C
1E0078
3E0078
3E0078
3C0078
3C0078
3C0078
3C00F8
3C00F8
7C00F0
7800F0
7800F0
7800F0
7800F0
7800F0
F800F0
F000F0
7000E0
ENDCHAR
STARTCHAR 03A1
ENCODING 929
SWIDTH 556 0
DWIDTH 17 0
BBX 18 25 1 0
BITMAP
07F800
0FFE00
0FFF00
0FFF80
0F0F80
1F0780
1E07C0
1E07C0
1E0780
1E0780
3E0F80
3C3F00
3FFE00
3FFC00
3FF000
7FC000
780000
780000
780000
780000
780000
F00000
F00000
F00000
600000
ENDCHAR
STARTCHAR 03A3
ENCODING 931
SWIDTH 752 0
DWIDTH 23 0
BBX 22 23 1 0
BITMAP
07FFFC
1FFFFC
1FFFFC
1FFFFC
0F8000
07C000
03E000
01F000
01F800
00FC00
007C00
00FC00
00F800
01F000
03E000
07C000
0F8000
1F0000
3E0000
7FFFE0
FFFFF0
FFFFF0
FFFFF0
ENDCHAR
STARTCHAR 03A4
ENCODING 932
SWIDTH 720 0
DWIDTH 22 0
BBX 22 23 3 0
BITMAP
7FFFF8
FFFFFC
FFFFFC
7FFFF8
00F000
00F000
00F000
00F000
01F000
01F000
01F000
01E000
01E000
01E000
01E000
01E000
01E000
01E000
03E000
03E000
03C000
03C000
038000
ENDCHAR
STARTCHAR 03A5
ENCODING 933
SWIDTH 654 0
DWIDTH 20 0
BBX 19 24 3 -1
BITMAP
7000E0
F001E0
F801E0
F803E0
7C07C0
7C0780
3E0F80
3E1F00
1F1F00
1F3E00
0FFC00
0FFC00
07F800
07F800
03F000
03E000
07E000
07C000
0F8000
1F8000
1F0000
3E0000
3C0000
180000
ENDCHAR
STARTCHAR 03A6
ENCODING 934
SWIDTH 621 0
DWIDTH 19 0
BBX 22 26 2 -1
BITMAP
000E00
001F00
001E00
003FC0
01FFF0
03FFF8
0FFFFC
1FFCFC
1F3C3C
3E3C3C
7C3C3C
787C3C
787C3C
F8787C
F87878
F878F8
F879F0
7E7BE0
7FFFC0
3FFF80
1FFF00
03FC00
00F000
00F000
00F000
00E000
ENDCHAR
STARTCHAR 03A7
ENCODING 935
SWIDTH 720 0
DWIDTH 22 0
BBX 25 24 0 -1
BITMAP
07000300
0F800780
0FC00F80
07C01F00
03E03E00
03F07C00
01F0F800
00F9F000
00FFE000
007FC000
003F8000
003F0000
003F0000
007F8000
00FF8000
01F7C000
07E7C000
0FC3E000
1F83F000
3F01F000
7E00F800
FC00F800
F8007800
70003000
ENDCHAR
STARTCHAR 03A8
ENCODING 936
SWIDTH 720 0
DWIDTH 22 0
BBX 21 23 3 0
BITMAP
383838
787878
787878
787878
787878
F8F8F8
F0F8F0
F0F0F0
F0F1F0
F0F3E0
F8F3E0
FDFFC0
7FFF80
7FFF00
3FFE00
0FF800
03E000
03C000
03C000
03C000
03C000
07C000
038000
ENDCHAR
STARTCHAR 03A9
ENCODING 937
SWIDTH 981 0
DWIDTH 30 0
BBX 30 26 0 -1
BITMAP
00001FC0
0000FFF0
0003FFF8
000FFFF8
003FE07C
007F003C
00FC003C
00F8003C
01F0003C
01E0007C
03E0007C
03C00078
03C00078
03C000F8
03C000F0
03C001F0
03C001E0
03E003E0
03E007C0
01E00F80
01E01F00
03F03E00
7FF07FF8
FFF07FF8
FFE07FF8
7E003FF8
ENDCHAR
STARTCHAR 03AA
ENCODING 938
SWIDTH 556 0
DWIDTH 17 0
BBX 19 29 1 -1
BITMAP
01E3C0
03E7C0
03E7C0
03C780
000000
000000
0FFF00
1FFFE0
1FFFE0
1FFFC0
00F380
01F000
01F000
01E000
01E000
01E000
01E000
03E000
03E000
03C000
03C000
03C000
03C000
07C000
07C000
3FFE00
FFFE00
FFFE00
FFFC00
ENDCHAR
STARTCHAR 03AB
ENCODING 939
SWIDTH 654 0
DWIDTH 20 0
BBX 19 30 3 -1
BITMAP
03CF00
07DF80
0FDF80
078F00
000000
000000
7000E0
F001E0
F801E0
F803E0
7C07C0
7C0780
3E0F80
3E1F00
1F1F00
1F3E00
0FFC00
0FFC00
07F800
07F800
03F000
03E000
07E000
07C000
0F8000
1F8000
1F0000
3E0000
3C0000
180000
ENDCHAR
STARTCHAR 03AC
ENCODING 940
SWIDTH 556 0
DWIDTH 17 0
BBX 17 26 2 0
BITMAP
001C00
001C00
003C00
003C00
007800
007000
00F000
006000
000000
000000
03E300
0FF780
1FFF00
3FFF00
7C7E00
783E00
F83C00
F03C00
F03C00
F03C00
F07C00
F0FC00
FFFC00
FFFE00
7FDE00
3F1C00
ENDCHAR
STARTCHAR 03AD
ENCODING 941
SWIDTH 490 0
DWIDTH 15 0
BBX 14 26 2 0
BITMAP
0018
003C
007C
0078
00F0
00F0
01E0
00C0
0000
0000
07E0
0FF8
1FF8
3FF8
3C38
3C00
3F00
3F80
7F80
7800
F000
F070
FFF0
FFF0
7FE0
3F80
ENDCHAR
STARTCHAR 03AE
ENCODING 942
SWIDTH 523 0
DWIDTH 16 0
BBX 15 33 1 -7
BITMAP
001C
003C
003C
007C
0078
00F0
00E0
00E0
0000
0000
1C7C
1FFE
3FFE
3FFE
3F9E
3F1E
3E1E
7C1E
7C1E
781E
781E
F83E
F83C
F03C
F03C
703C
003C
003C
003C
003C
003C
003C
0038
ENDCHAR
STARTCHAR 03AF
ENCODING 943
SWIDTH 294 0
DWIDTH 9 0
BBX 10 26 3 0
BITMAP
0180
03C0
0780
0780
0F00
0F00
1E00
0C00
0000
0000
3800
3C00
7C00
7800
7800
7800
7800
F000
F000
F000
F000
F800
FE00
7F00
7E00
1E00
ENDCHAR
STARTCHAR 03B0
ENCODING 944
SWIDTH 523 0
DWIDTH 16 0
BBX 18 24 1 0
BITMAP
001800
003C00
007800
1E7BC0
1EF3C0
1CE380
00C000
000000
1C0700
3C0F00
3C0F00
7C0F00
780F00
780F00
781F00
F81E00
F01E00
F03E00
F83C00
F87C00
7FF800
7FF000
3FE000
0F8000
ENDCHAR
STARTCHAR 03B1
ENCODING 945
SWIDTH 556 0
DWIDTH 17 0
BBX 17 16 2 0
BITMAP
03E300
0FF780
1FFF00
3FFF00
7C7E00
783E00
F83C00
F03C00
F03C00
F03C00
F07C00
F0FC00
FFFC00
FFFE00
7FDE00
3F1C00
ENDCHAR
STARTCHAR 03B2
ENCODING 946
SWIDTH 589 0
DWIDTH 18 0
BBX 18 32 0 -8
BITMAP
00F800
01FC00
03FE00
07FE00
078E00
078E00
0F9E00
0F1E00
0F3E00
0F3F80
0F3F80
0F0FC0
1F03C0
1E03C0
1E03C0
1E03C0
1E03C0
3E07C0
3C0780
3C0F80
3FFF00
3FFE00
7FFC00
7FF000
780000
780000
780000
F00000
F00000
F00000
F00000
E00000
ENDCHAR
STARTCHAR 03B3
ENCODING 947
SWIDTH 556 0
DWIDTH 17 0
BBX 17 24 2 -8
BITMAP
700300
F80780
F80F80
7C1F00
7C1F00
7C3E00
3E7C00
3E7C00
1FF800
1FF000
1FF000
0FE000
0FC000
07C000
0F8000
0F0000
1F0000
3E0000
3C0000
7C0000
780000
F80000
F00000
600000
ENDCHAR
STARTCHAR 03B4
ENCODING 948
SWIDTH 523 0
DWIDTH 16 0
BBX 18 24 1 0
BITMAP
0FFF80
1FFFC0
1FFF80
0FE000
07E000
03F000
01F800
00F800
01FC00
07FE00
0FFE00
1FFE00
3E1F00
7C1F00
781F00
781E00
781E00
F81E00
783C00
7C7C00
7FF800
3FF000
3FE000
0F8000
ENDCHAR
STARTCHAR 03B5
ENCODING 949
SWIDTH 490 0
DWIDTH 15 0
BBX 13 16 2 0
BITMAP
07E0
0FF8
1FF8
3FF8
3C38
3C00
3F00
3F80
7F80
7800
F000
F070
FFF0
FFF0
7FE0
3F80
ENDCHAR
STARTCHAR 03B6
ENCODING 950
SWIDTH 523 0
DWIDTH 16 0
BBX 17 30 2 -6
BITMAP
1FFF80
3FFF80
3FFF80
1FFF00
00F800
01F000
03E000
07C000
0F8000
0F0000
1E0000
3C0000
7C0000
780000
780000
F00000
F00000
F00000
F00000
F00000
FC0000
FF8000
7FE000
3FF000
07F000
01F000
1FF000
3FE000
3FC000
1F0000
ENDCHAR
STARTCHAR 03B7
ENCODING 951
SWIDTH 523 0
DWIDTH 16 0
BBX 15 23 1 -7
BITMAP
1C7C
1FFE
3FFE
3FFE
3F9E
3F1E
3E1E
7C1E
7C1E
781E
781E
F83E
F83C
F03C
F03C
703C
003C
003C
003C
003C
003C
003C
0038
ENDCHAR
STARTCHAR 03B8
ENCODING 952
SWIDTH 621 0
DWIDTH 19 0
BBX 19 24 1 0
BITMAP
007E00
01FF80
07FF80
0FFFC0
0F87E0
1F03E0
3E01E0
3C01E0
7C01E0
7801E0
7FFFE0
7FFFE0
7FFFE0
FFFFC0
F803C0
F803C0
F80780
780780
780F80
7C1F00
7FFE00
3FFC00
1FF800
07E000
ENDCHAR
STARTCHAR 03B9
ENCODING 953
SWIDTH 294 0
DWIDTH 9 0
BBX 8 16 3 0
BITMAP
38
3C
7C
78
78
78
78
F0
F0
F0
F0
F8
FE
7F
7E
1E
ENDCHAR
STARTCHAR 03BA
ENCODING 954
SWIDTH 556 0
DWIDTH 17 0
BBX 15 16 2 0
BITMAP
1C0E
3C1E
3C7E
3CFC
3DF8
3FF0
7FE0
7FE0
7FF0
7DF8
F8F8
F07C
F07C
F03E
F03E
E01C
ENDCHAR
STARTCHAR 03BB
ENCODING 955
SWIDTH 490 0
DWIDTH 15 0
BBX 14 24 1 0
BITMAP
1F00
3F80
3FC0
1FE0
03E0
01E0
01E0
01F0
01F0
03F0
03F0
07F0
07F0
0FF8
0FF8
1E78
1E78
3C78
3C78
787C
F83C
F03C
F03C
E018
ENDCHAR
STARTCHAR 03BC
ENCODING 956
SWIDTH 523 0
DWIDTH 16 0
BBX 17 21 1 -5
BITMAP
1C0700
1E0F80
3E0F00
3C0F00
3C0F00
3C1F00
7C1E00
781E00
781E00
781E00
781E00
783E00
7FFC00
7FFC00
7FFC00
7FF800
F80000
F00000
F00000
F00000
E00000
ENDCHAR
STARTCHAR 03BD
ENCODING 957
SWIDTH 490 0
DWIDTH 15 0
BBX 13 16 3 0
BITMAP
6038
F038
F038
F078
F078
F878
78F0
78F0
79E0
7BE0
3FC0
3F80
3F00
3F00
1E00
1C00
ENDCHAR
STARTCHAR 03BE
ENCODING 958
SWIDTH 523 0
DWIDTH 16 0
BBX 15 30 1 -6
BITMAP
007E
01FE
07FE
0FFC
0FC0
1F00
1E00
1F00
1F80
0FF0
07F8
0FF0
1F80
3E00
3C00
7800
7800
F000
F000
F800
FC00
7F80
7FF0
1FF0
03F8
00F8
07F0
1FF0
1FE0
1F80
ENDCHAR
STARTCHAR 03BF
ENCODING 959
SWIDTH 523 0
DWIDTH 16 0
BBX 16 16 1 0
BITMAP
01F0
07FC
0FFE
1FFE
3E1E
3C1F
7C1F
781E
781E
F81E
F83E
7C7C
7FF8
7FF0
3FE0
0F80
ENDCHAR
STARTCHAR 03C0
ENCODING 960
SWIDTH 621 0
DWIDTH 19 0
BBX 19 16 2 0
BITMAP
1FFFE0
7FFFE0
FFFFE0
FFFFC0
6F0F00
0F0F00
0F1E00
1E1E00
1E1E00
1E3C00
1C3C00
3C3C00
3C3C00
3C3E00
383E00
381C00
ENDCHAR
STARTCHAR 03C1
ENCODING 961
SWIDTH 523 0
DWIDTH 16 0
BBX 17 21 0 -5
BITMAP
007C00
01FF00
07FF00
07FF80
0F8F80
1F0780
1E0780
3E0780
3C0780
3C0F80
3C0F00
3E1F00
7FFE00
7FFC00
7FF800
7BE000
F80000
F80000
F00000
F00000
E00000
ENDCHAR
STARTCHAR 03C2
ENCODING 962
SWIDTH 523 0
DWIDTH 16 0
BBX 15 22 1 -6
BITMAP
01F8
03FE
07FE
0FFE
1F0E
3E00
3C00
7800
7800
7000
F000
F800
FC00
7F80
7FE0
3FF0
07F8
00F8
0FF0
1FF0
1FE0
0F80
ENDCHAR
STARTCHAR 03C3
ENCODING 963
SWIDTH 556 0
DWIDTH 17 0
BBX 19 16 1 0
BITMAP
003FE0
01FFE0
07FFE0
1FFFE0
3F9E00
3E1E00
7C0E00
781E00
781E00
F81E00
F81E00
F83E00
7FFC00
7FF800
3FF000
0FC000
ENDCHAR
STARTCHAR 03C4
ENCODING 964
SWIDTH 490 0
DWIDTH 15 0
BBX 13 16 3 0
BITMAP
FFF0
FFF8
FFF0
7FE0
1E00
1E00
1E00
1E00
1E00
3C00
3E00
3E00
1FC0
1FC0
0FC0
0780
ENDCHAR
STARTCHAR 03C5
ENCODING 965
SWIDTH 523 0
DWIDTH 16 0
BBX 16 16 2 0
BITMAP
380E
780F
780F
781F
F81E
F01E
F01E
F03E
F03E
F03C
F07C
F8F8
FFF0
FFF0
7FE0
1F80
ENDCHAR
STARTCHAR 03C6
ENCODING 966
SWIDTH 654 0
DWIDTH 20 0
BBX 19 22 1 -6
BITMAP
001F00
0E3F80
1E7FC0
3E7BC0
3CF1E0
7CF1E0
78F1E0
78F1E0
F8F1E0
F1E1E0
F1E3C0
F9E3C0
7DEF80
7FFF00
1FFE00
07F800
01C000
03C000
03C000
03C000
03C000
038000
ENDCHAR
STARTCHAR 03C7
ENCODING 967
SWIDTH 589 0
DWIDTH 18 0
BBX 20 22 -1 -6
BITMAP
070060
0F80F0
0F81F0
07C3E0
07C7C0
03EF80
03FF80
01FF00
01FE00
00FC00
00F800
01FC00
03FC00
07FE00
0FBE00
1F9F00
1F1F00
3E0F80
7C0F80
780780
F00780
600300
ENDCHAR
STARTCHAR 03C8
ENCODING 968
SWIDTH 621 0
DWIDTH 19 0
BBX 20 21 2 -5
BITMAP
383870
387870
7878F0
78F8F0
78F0F0
70F0F0
F0F1F0
F0F1E0
F1F1E0
F1F3C0
F9E3C0
7DEF80
7FFF00
3FFF00
1FFC00
07F000
03C000
03C000
03C000
07C000
038000
ENDCHAR
STARTCHAR 03C9
ENCODING 969
SWIDTH 785 0
DWIDTH 24 0
BBX 23 16 2 0
BITMAP
1C000E
3C1C1E
3C3C1E
7C3C1E
783C1E
783C1E
F87C3E
F0783C
F0783C
F0787C
F0F878
F8F8F8
7FFFF0
7FFFE0
3FBFC0
1F1F00
ENDCHAR
STARTCHAR 03CA
ENCODING 970
SWIDTH 294 0
DWIDTH 9 0
BBX 13 22 1 0
BITMAP
78F0
FDF8
FDF0
70E0
0000
0000
0E00
0F00
1F00
1E00
1E00
1E00
1E00
3C00
3C00
3C00
3C00
3E00
3F80
1FC0
1F80
0780
ENDCHAR
STARTCHAR 03CB
ENCODING 971
SWIDTH 523 0
DWIDTH 16 0
BBX 17 22 1 0
BITMAP
078F00
0FDF80
0FDF00
070E00
000000
000000
1C0700
3C0F00
3C0F00
7C0F00
780F00
780F00
781F00
F81E00
F01E00
F03E00
F83C00
F87C00
7FF800
7FF000
3FE000
0F8000
ENDCHAR
STARTCHAR 03CC
ENCODING 972
SWIDTH 523 0
DWIDTH 16 0
BBX 16 26 1 0
BITMAP
001C
003C
003C
007C
0078
00F0
00E0
00E0
0000
0000
01F0
07FC
0FFE
1FFE
3E1E
3C1F
7C1F
781E
781E
F81E
F83E
7C7C
7FF8
7FF0
3FE0
0F80
ENDCHAR
STARTCHAR 03CD
ENCODING 973
SWIDTH 523 0
DWIDTH 16 0
BBX 16 26 2 0
BITMAP
0038
0038
0078
0078
00F0
00E0
01E0
00C0
0000
0000
380E
780F
780F
781F
F81E
F01E
F01E
F03E
F03E
F03C
F07C
F8F8
FFF0
FFF0
7FE0
1F80
ENDCHAR
STARTCHAR 03CE
ENCODING 974
SWIDTH 785 0
DWIDTH 24 0
BBX 23 26 2 0
BITMAP
000300
000780
000780
000F00
001F00
001E00
001C00
001800
000000
000000
1C000E
3C1C1E
3C3C1E
7C3C1E
783C1E
783C1E
F87C3E
F0783C
F0783C
F0787C
F0F878
F8F8F8
7FFFF0
7FFFE0
3FBFC0
1F1F00
ENDCHAR
STARTCHAR 0401
ENCODING 1025
SWIDTH 621 0
DWIDTH 19 0
BBX 20 32 2 -1
BITMAP
00F3C0
01F7E0
01F7E0
01E3C0
000000
000000
04FFC0
1FFFF0
1FFFF0
1FFFF0
1F80E0
1E0000
1E0000
3E0000
3E0000
3C0000
3C1F80
3FFFC0
7FFFC0
7FFF80
7FF800
780000
780000
F80000
F80000
F00000
F00000
F00000
FFFE00
FFFF00
7FFE00
3FFC00
ENDCHAR
STARTCHAR 0402
ENCODING 1026
SWIDTH 850 0
DWIDTH 26 0
BBX 23 27 3 -4
BITMAP
7FFFF0
FFFFF8
FFFFF8
3FFFF8
01F000
01F000
01E000
01E000
01EFE0
01FFF8
01FFFC
01FFFE
01F07E
01E03E
03E01E
03E01E
03E01E
03C01E
03C03E
03C03C
03C07C
03C078
0381F8
0007F0
000FE0
000FC0
000F00
ENDCHAR
STARTCHAR 0403
ENCODING 1027
SWIDTH 556 0
DWIDTH 17 0
BBX 18 33 2 -1
BITMAP
000180
0007C0
000F80
001F00
003E00
007C00
003000
000000
000000
0FFF00
1FFFC0
3FFFC0
3FFFC0
3C0380
3C0000
3C0000
3C0000
3C0000
7C0000
7C0000
780000
780000
780000
780000
780000
F80000
F80000
F00000
F00000
F00000
F00000
F00000
E00000
ENDCHAR
STARTCHAR 0404
ENCODING 1028
SWIDTH 621 0
DWIDTH 19 0
BBX 21 23 1 0
BITMAP
000FF0
007FF8
00FFF8
01FFF0
03F8F0
07E060
0F8000
1F0000
1F0000
3E3E00
3FFE00
7FFE00
7FFC00
7FC000
780000
F80000
F80380
780F80
7C3F80
7FFF00
3FFE00
1FF800
0FE000
ENDCHAR
STARTCHAR 0405
ENCODING 1029
SWIDTH 720 0
DWIDTH 22 0
BBX 21 24 1 -1
BITMAP
000FC0
003FF8
00FFF8
01FFF8
03F070
07C000
0F8000
0F8000
0F8000
0FFF80
0FFFE0
07FFF0
00FFF0
0001F8
0000F8
0000F8
0000F8
7000F0
F803F0
FC0FE0
FFFFC0
7FFF80
3FFE00
0FF000
ENDCHAR
STARTCHAR 0406
ENCODING 1030
SWIDTH 556 0
DWIDTH 17 0
BBX 19 23 1 -1
BITMAP
0FFF00
1FFFE0
1FFFE0
1FFFC0
00F380
01F000
01F000
01E000
01E000
01E000
01E000
03E000
03E000
03C000
03C000
03C000
03C000
07C000
07C000
3FFE00
FFFE00
FFFE00
FFFC00
ENDCHAR
STARTCHAR 0407
ENCODING 1031
SWIDTH 556 0
DWIDTH 17 0
BBX 19 29 1 -1
BITMAP
01E3C0
03E7C0
03E7C0
03C780
000000
000000
0FFF00
1FFFE0
1FFFE0
1FFFC0
00F380
01F000
01F000
01E000
01E000
01E000
01E000
03E000
03E000
03C000
03C000
03C000
03C000
07C000
07C000
3FFE00
FFFE00
FFFE00
FFFC00
ENDCHAR
STARTCHAR 0408
ENCODING 1032
SWIDTH 687 0
DWIDTH 21 0
BBX 22 24 1 -1
BITMAP
00FFFC
01FFFC
01FFFC
01FFFC
000780
000F80
000F00
000F00
000F00
000F00
001F00
001E00
001E00
001E00
001E00
703C00
783C00
F83C00
F83C00
7E7800
7FF800
3FF000
1FE000
07C000
ENDCHAR
STARTCHAR 0409
ENCODING 1033
SWIDTH 1014 0
DWIDTH 31 0
BBX 32 23 0 0
BITMAP
00FFFC00
01FFFE00
01FFFE00
01FFFC00
01E03C00
01E03C00
01E03C00
03E03C00
03C07FC0
03C07FFC
03C07FFE
03C07FFE
03C0783F
07C0781F
0780F80F
0780F01F
0780F01F
0780F01E
0F81F03E
7F01FFFC
FF01FFF8
FE01FFF0
FC01FFC0
ENDCHAR
STARTCHAR 040A
ENCODING 1034
SWIDTH 981 0
DWIDTH 30 0
BBX 31 25 0 0
BITMAP
07001800
0F003C00
0F003C00
0F003C00
0F007C00
0F007C00
0F007800
1F007800
1F007800
1FFFFFC0
1FFFFFF0
1FFFFFF8
1FFFFFFC
1E00F07C
3E00F03E
3E01F03E
3C01E01E
3C01E03E
3C01E03C
7801E03C
7803E0FC
7803FFF8
F803FFF0
F003FFE0
7003FF00
ENDCHAR
STARTCHAR 040B
ENCODING 1035
SWIDTH 850 0
DWIDTH 26 0
BBX 23 23 3 0
BITMAP
7FFFF0
FFFFFC
FFFFFC
3FFFF8
00F000
01F000
01F000
01E7F0
01FFF8
01FFFC
01FEFE
01F03E
01E03E
01E03E
01E03E
01E03C
03E03C
03E03C
03C03C
03C07C
03C078
03C078
038070
ENDCHAR
STARTCHAR 040C
ENCODING 1036
SWIDTH 654 0
DWIDTH 20 0
BBX 20 32 2 0
BITMAP
000380
000F80
001F80
003E00
007C00
00F800
007000
000000
000000
0E01E0
1E03F0
1E07E0
1E0F80
1E1F00
1E1F00
3E3E00
3E7C00
3FFC00
3FF800
3FE000
3FF800
3FF800
3C7C00
7C3E00
783E00
781F00
781F00
780F80
F80F80
F80780
F00780
600700
ENDCHAR
STARTCHAR 040E
ENCODING 1038
SWIDTH 654 0
DWIDTH 20 0
BBX 21 31 2 0
BITMAP
038070
0380F0
03C1F0
03FFE0
01FFC0
007E00
000000
000000
1C0038
3E0078
3E0078
1F00F8
1F01F0
0F81E0
0F83E0
07C7C0
07C780
03CF80
03EF00
03FF00
01FE00
01FC00
00FC00
00F800
00F000
01F000
07E000
7FC000
FF8000
FF0000
780000
ENDCHAR
STARTCHAR 040F
ENCODING 1039
SWIDTH 752 0
DWIDTH 23 0
BBX 24 29 1 -6
BITMAP
0E000E
0F000F
1F001E
1F001E
1E003E
1E003C
1E003C
1E003C
1E003C
3E007C
3E0078
3C0078
3C0078
3C0078
3C0078
3C0078
7C0078
7800F8
7800F0
7FFFF0
7FFFF0
FFFFF0
7FFFF0
01E000
01E000
01E000
01E000
01E000
01C000
ENDCHAR
STARTCHAR 0410
ENCODING 1040
SWIDTH 752 0
DWIDTH 23 0
BBX 19 23 2 0
BITMAP
000180
0003C0
0007C0
000FC0
001FC0
001FC0
003FC0
007FC0
00FBC0
00F3C0
01F3C0
03E3C0
07C3C0
07FFC0
1FFFC0
1FFFC0
3FFFE0
3C03E0
7C03E0
F801E0
F801E0
F001E0
E000C0
ENDCHAR
STARTCHAR 0411
ENCODING 1041
SWIDTH 621 0
DWIDTH 19 0
BBX 18 23 2 0
BITMAP
0FFFC0
1FFFC0
1FFFC0
1FFF80
3E0000
3E0000
3E0000
3C0000
3FF000
3FFE00
3FFF00
3FFF00
7C1F00
7C0F80
780F80
780F00
780F00
F81F00
F03F00
FFFE00
FFFC00
FFF800
FFC000
ENDCHAR
STARTCHAR 0412
ENCODING 1042
SWIDTH 654 0
DWIDTH 20 0
BBX 18 25 2 0
BITMAP
03F800
0FFE00
1FFF00
1FFF80
1E1F80
1E07C0
1E07C0
1E03C0
1E07C0
3E0F80
3C1F80
3FFF00
3FFE00
3FFF00
3FFF80
7C1F80
7807C0
7807C0
7807C0
780F80
787F80
7FFF00
FFFC00
FFF000
7F8000
ENDCHAR
STARTCHAR 0413
ENCODING 1043
SWIDTH 556 0
DWIDTH 17 0
BBX 18 24 2 -1
BITMAP
0FFF00
1FFFC0
3FFFC0
3FFFC0
3C0380
3C0000
3C0000
3C0000
3C0000
7C0000
7C0000
780000
780000
780000
780000
780000
F80000
F80000
F00000
F00000
F00000
F00000
F00000
E00000
ENDCHAR
STARTCHAR 0414
ENCODING 1044
SWIDTH 785 0
DWIDTH 24 0
BBX 25 28 0 -5
BITMAP
003FFF80
007FFF80
007FFF80
007FFF80
00780F80
00780F00
00F80F00
00F80F00
00F00F00
00F00F00
00F01F00
01E01F00
01E01E00
03E01E00
03C01E00
03C01E00
07C03E00
07803E00
0F803C00
1FFFFC00
7FFFFE00
7FFFFE00
7FFFFE00
78001E00
78003E00
F8003E00
F0003C00
60001C00
ENDCHAR
STARTCHAR 0415
ENCODING 1045
SWIDTH 621 0
DWIDTH 19 0
BBX 20 26 2 -1
BITMAP
04FFC0
1FFFF0
1FFFF0
1FFFF0
1F80E0
1E0000
1E0000
3E0000
3E0000
3C0000
3C1F80
3FFFC0
7FFFC0
7FFF80
7FF800
780000
780000
F80000
F80000
F00000
F00000
F00000
FFFE00
FFFF00
7FFE00
3FFC00
ENDCHAR
STARTCHAR 0416
ENCODING 1046
SWIDTH 883 0
DWIDTH 27 0
BBX 29 23 0 0
BITMAP
0701C030
0F83E0F8
0FC3C1F8
07C3C3F0
03E3C3C0
03E3C780
01E3C780
01F7DF00
00FFFF00
00FFFE00
00FFFC00
01FFFE00
03F7BF00
07C79F00
0FCF8F80
1F8F0F80
1F0F07C0
3E0F07C0
7C0F03E0
7C0F03E0
F81F03E0
F01E01E0
F01E01C0
ENDCHAR
STARTCHAR 0417
ENCODING 1047
SWIDTH 621 0
DWIDTH 19 0
BBX 19 23 1 0
BITMAP
00FE00
03FF80
07FFC0
0FFFE0
0F83E0
0203E0
0003E0
0003C0
000FC0
00FF80
01FF00
01FF80
00FF80
000FC0
0007C0
0007C0
0007C0
700780
F81F80
FFFF00
FFFE00
7FFC00
1FE000
ENDCHAR
STARTCHAR 0418
ENCODING 1048
SWIDTH 752 0
DWIDTH 23 0
BBX 23 23 2 0
BITMAP
0E000E
1E001E
1E003E
1E007E
1E00FC
1E01FC
3E03FC
3C07FC
3C0FFC
3C1F78
3C3E78
3C7C78
78F078
79E078
7BC0F8
7F80F0
7F80F0
FF00F0
FE00F0
FC01F0
F801E0
F001E0
E000C0
ENDCHAR
STARTCHAR 0419
ENCODING 1049
SWIDTH 752 0
DWIDTH 23 0
BBX 23 31 2 0
BITMAP
01C038
01E078
01E0F8
01FFF0
00FFE0
003F00
000000
000000
0E000E
1E001E
1E003E
1E007E
1E00FC
1E01FC
3E03FC
3C07FC
3C0FFC
3C1F78
3C3E78
3C7C78
78F078
79E078
7BC0F8
7F80F0
7F80F0
FF00F0
FE00F0
FC01F0
F801E0
F001E0
E000C0
ENDCHAR
STARTCHAR 041A
ENCODING 1050
SWIDTH 654 0
DWIDTH 20 0
BBX 20 23 2 0
BITMAP
0E01E0
1E03F0
1E07E0
1E0F80
1E1F00
1E3F00
3E7E00
3EFC00
3FF800
3FF000
3FF000
3FF800
3CFC00
3C7C00
7C3E00
781F00
781F00
780F00
780F80
F80F80
F80780
F00780
600700
ENDCHAR
STARTCHAR 041B
ENCODING 1051
SWIDTH 752 0
DWIDTH 23 0
BBX 24 23 0 0
BITMAP
00FFFF
01FFFF
01FFFF
01FFFF
01E01F
01E01F
01E01E
01E01E
01E01E
03E01E
03C01E
03C01E
03C03E
03C03E
07C03C
07803C
07803C
07807C
0F807C
7F007C
FF0078
FE0078
780070
ENDCHAR
STARTCHAR 041C
ENCODING 1052
SWIDTH 883 0
DWIDTH 27 0
BBX 26 24 1 -1
BITMAP
00700700
00F80F00
00F80F80
01F81F80
01F81F80
03F83F80
03F83F80
03F87F80
07F87F80
07F87780
07F8F780
0F78F780
0F79E780
1E79E780
1E7BC780
3E7BC780
3C7F8780
3C3F8780
7C3F0780
783F07C0
783E07C0
F83C07C0
F01807C0
60000380
ENDCHAR
STARTCHAR 041D
ENCODING 1053
SWIDTH 785 0
DWIDTH 24 0
BBX 24 26 2 -1
BITMAP
060006
0F000F
0F000F
0F001F
1E001E
1E001E
1E001E
1E003E
1E003E
1C003C
3C07FC
3CFFFC
3FFFFC
3FFFFC
3FF878
7E0078
780078
780078
780078
780078
F000F8
F000F8
F000F8
F000F0
F00060
E00000
ENDCHAR
STARTCHAR 041E
ENCODING 1054
SWIDTH 818 0
DWIDTH 25 0
BBX 24 24 2 -1
BITMAP
001FE0
007FF8
01FFFC
03FFFE
07F07E
0FC01F
1F801F
1F001F
3E001F
3C001F
7C001F
78001E
F8001E
F0003E
F0003C
F0007C
F000F8
F801F8
FC03F0
7F0FE0
7FFFC0
3FFF80
0FFE00
03F800
ENDCHAR
STARTCHAR 041F
ENCODING 1055
SWIDTH 916 0
DWIDTH 28 0
BBX 22 26 2 -1
BITMAP
07FFF8
0FFFFC
1FFFFC
1FFFFC
1E003C
1E003C
1E003C
1E007C
1E007C
1E0078
3E0078
3E0078
3C0078
3C0078
3C0078
3C00F8
3C00F8
7C00F0
7800F0
7800F0
7800F0
7800F0
7800F0
F800F0
F000F0
7000E0
ENDCHAR
STARTCHAR 0420
ENCODING 1056
SWIDTH 556 0
DWIDTH 17 0
BBX 18 25 1 0
BITMAP
07F800
0FFE00
0FFF00
0FFF80
0F0F80
1F0780
1E07C0
1E07C0
1E0780
1E0780
3E0F80
3C3F00
3FFE00
3FFC00
3FF000
7FC000
780000
780000
780000
780000
780000
F00000
F00000
F00000
600000
ENDCHAR
STARTCHAR 0421
ENCODING 1057
SWIDTH 621 0
DWIDTH 19 0
BBX 21 23 1 0
BITMAP
000FF0
003FF8
007FF8
00FFF0
01F8F0
03E0F0
07C000
0F8000
1F0000
1E0000
3E0000
3C0000
7C0000
780000
780000
F80000
F80380
780F80
7C3F80
7FFF00
3FFE00
1FF800
0FE000
ENDCHAR
STARTCHAR 0422
ENCODING 1058
SWIDTH 720 0
DWIDTH 22 0
BBX 22 23 3 0
BITMAP
7FFFF8
FFFFFC
FFFFFC
7FFFF8
00F000
00F000
00F000
00F000
01F000
01F000
01F000
01E000
01E000
01E000
01E000
01E000
01E000
01E000
03E000
03E000
03C000
03C000
038000
ENDCHAR
STARTCHAR 0423
ENCODING 1059
SWIDTH 654 0
DWIDTH 20 0
BBX 21 23 2 0
BITMAP
1C0038
3E0078
3E0078
1F00F8
1F01F0
0F81E0
0F83E0
07C7C0
07C780
03CF80
03EF00
03FF00
01FE00
01FC00
00FC00
00F800
00F000
01F000
07E000
7FC000
FF8000
FF0000
780000
ENDCHAR
STARTCHAR 0424
ENCODING 1060
SWIDTH 621 0
DWIDTH 19 0
BBX 22 26 2 -1
BITMAP
000E00
001F00
001E00
003FC0
01FFF0
03FFF8
0FFFFC
1FFCFC
1F3C3C
3E3C3C
7C3C3C
787C3C
787C3C
F8787C
F87878
F878F8
F879F0
7E7BE0
7FFFC0
3FFF80
1FFF00
03FC00
00F000
00F000
00F000
00E000
ENDCHAR
STARTCHAR 0425
ENCODING 1061
SWIDTH 720 0
DWIDTH 22 0
BBX 25 24 0 -1
BITMAP
07000300
0F800780
0FC00F80
07C01F00
03E03E00
03F07C00
01F0F800
00F9F000
00FFE000
007FC000
003F8000
003F0000
003F0000
007F8000
00FF8000
01F7C000
07E7C000
0FC3E000
1F83F000
3F01F000
7E00F800
FC00F800
F8007800
70003000
ENDCHAR
STARTCHAR 0426
ENCODING 1062
SWIDTH 785 0
DWIDTH 24 0
BBX 23 29 1 -6
BITMAP
0E000E
0F001E
1F001E
1F003E
1E003E
1E003C
1E003C
1E003C
1E003C
1E003C
3E0078
3C0078
3C0078
3C0078
3C0078
3C0078
7C0078
7800F0
7800F0
7FFFF8
7FFFFC
FFFFFE
FFFFFE
00003C
00003C
00003C
00003C
00003C
000038
ENDCHAR
STARTCHAR 0427
ENCODING 1063
SWIDTH 621 0
DWIDTH 19 0
BBX 17 23 3 0
BITMAP
380380
780780
780780
780780
780780
F80780
F00780
F00F00
F00F00
F00F00
F00F00
F81F00
FFFF00
7FFE00
3FFE00
0FFE00
001E00
001E00
003E00
003C00
003C00
003C00
003800
ENDCHAR
STARTCHAR 0428
ENCODING 1064
SWIDTH 916 0
DWIDTH 28 0
BBX 29 23 1 0
BITMAP
0E01C070
1E03C078
1E03C0F8
1E03C0F8
1E07C0F0
1E07C0F0
1E0780F0
3E0780F0
3E0781F0
3C0781E0
3C0781E0
3C0F81E0
3C0F01E0
3C0F01E0
7C0F01E0
780F01C0
780F03C0
780F03C0
781F03C0
7FFFFFC0
FFFFFFC0
FFFFFFC0
FFFFFF80
ENDCHAR
STARTCHAR 0429
ENCODING 1065
SWIDTH 981 0
DWIDTH 30 0
BBX 29 29 1 -6
BITMAP
0E01C070
1E03C078
1E03C0F8
1E07C0F8
1E07C0F0
1E07C0F0
3E0780F0
3E0780F0
3E0781E0
3C0781E0
3C0781E0
3C0F81E0
3C0F01E0
3C0F01E0
7C0F01E0
780F03C0
780F03C0
781F03C0
781F03C0
7FFFFFE0
FFFFFFF0
FFFFFFF0
FFFFFFF0
000000F0
000000F0
000000F0
000000F0
000000E0
000000E0
ENDCHAR
STARTCHAR 042A
ENCODING 1066
SWIDTH 785 0
DWIDTH 24 0
BBX 21 23 3 0
BITMAP
7FE000
FFE000
FFE000
7FE000
01E000
03E000
03E000
03E000
03FF00
03FFE0
03FFF0
03FFF0
03C1F8
07C0F8
07C0F8
0780F8
0780F0
0780F0
0F83F0
0FFFE0
0FFFC0
0FFF80
0FFC00
ENDCHAR
STARTCHAR 042B
ENCODING 1067
SWIDTH 1080 0
DWIDTH 33 0
BBX 26 23 2 0
BITMAP
0E0001C0
1E0003C0
1E0003C0
3E0003C0
3E0003C0
3E0007C0
3E0007C0
3C000780
3FF00780
3FFE0780
3FFF0F80
3FFF0F80
7C1F0F00
7C0F8F00
780F8F00
780F0F00
780F1F00
F81F1F00
F03F1E00
FFFE1E00
FFFC1E00
FFF81E00
FFC01C00
ENDCHAR
STARTCHAR 042C
ENCODING 1068
SWIDTH 621 0
DWIDTH 19 0
BBX 17 23 2 0
BITMAP
0E0000
1E0000
1E0000
3E0000
3E0000
3E0000
3E0000
3C0000
3FF000
3FFE00
3FFF00
3FFF00
7C1F00
7C0F80
780F80
780F00
780F00
F81F00
F03F00
FFFE00
FFFC00
FFF800
FFC000
ENDCHAR
STARTCHAR 042D
ENCODING 1069
SWIDTH 654 0
DWIDTH 20 0
BBX 20 23 1 0
BITMAP
01FC00
07FF00
1FFF80
1FFFC0
1E07E0
0003E0
0001F0
0001F0
0000F0
00FFF0
01FFF0
03FFF0
03FFF0
0001F0
0001E0
0003E0
0007C0
200FC0
F81F80
FFFF00
FFFE00
7FF800
0FE000
ENDCHAR
STARTCHAR 042E
ENCODING 1070
SWIDTH 1145 0
DWIDTH 35 0
BBX 36 24 1 -1
BITMAP
070001FC00
0F0007FF80
0F001FFFC0
1F003FFFE0
1E007F07E0
1E00FC03E0
1E01F001E0
1E01E001F0
3E03E001F0
3E07C001E0
3C078001E0
3FFF8001E0
3FFF0003E0
7FFF0003C0
7FFF0007C0
780F000780
780F000F80
780F801F00
F80F803E00
F80FE0FE00
F007FFFC00
F003FFF000
E001FFE000
00003F8000
ENDCHAR
STARTCHAR 042F
ENCODING 1071
SWIDTH 621 0
DWIDTH 19 0
BBX 21 23 0 0
BITMAP
0003F0
001FF8
007FF8
01FFF8
03FE78
07E0F8
07C0F8
0F80F8
0F00F0
1F00F0
0F80F0
0FC0F0
0FFFF0
07FFF0
01FFF0
01FFE0
07FFE0
0FF1E0
3FC1E0
7F01E0
FC03E0
F803C0
6001C0
ENDCHAR
STARTCHAR 0430
ENCODING 1072
SWIDTH 556 0
DWIDTH 17 0
BBX 16 16 1 0
BITMAP
01F8
07FE
0FFF
3FFE
3E1E
7C3E
F83C
F03C
F03C
F03C
F03C
F03C
FFFC
FFFE
7FFE
1F1C
ENDCHAR
STARTCHAR 0431
ENCODING 1073
SWIDTH 523 0
DWIDTH 16 0
BBX 18 25 1 0
BITMAP
0001C0
007FC0
01FFC0
03FF80
07FE00
0FC000
0F8000
1F0000
1F0000
3FF000
3FFC00
7FFE00
7FFE00
7E3E00
7C1E00
F81E00
F81E00
F81E00
F01E00
F83C00
787C00
7FF800
7FF000
3FE000
0F8000
ENDCHAR
STARTCHAR 0432
ENCODING 1074
SWIDTH 523 0
DWIDTH 16 0
BBX 14 17 2 -1
BITMAP
1FC0
3FF0
3FF8
7FFC
787C
783C
78F8
7FF0
7FF0
F1F8
F07C
F03C
F0FC
FFF8
FFF0
FFC0
7800
ENDCHAR
STARTCHAR 0433
ENCODING 1075
SWIDTH 490 0
DWIDTH 15 0
BBX 15 17 2 -1
BITMAP
1FFE
3FFE
3FFE
7FFC
7C00
7C00
7800
7800
7800
7800
7800
7800
F800
F800
F000
F000
6000
ENDCHAR
STARTCHAR 0434
ENCODING 1076
SWIDTH 589 0
DWIDTH 18 0
BBX 18 20 0 -4
BITMAP
00FFC0
01FFC0
03FFC0
03FFC0
03C3C0
03C7C0
07C7C0
078780
078780
0F8780
0F0780
1F0F80
3E0F80
7FFFC0
FFFFC0
FFFFC0
F003C0
F003C0
F003C0
E00380
ENDCHAR
STARTCHAR 0435
ENCODING 1077
SWIDTH 556 0
DWIDTH 17 0
BBX 16 16 1 0
BITMAP
01F8
07FE
0FFF
1FFF
3E1F
7C7E
7BFC
7FF8
FFC0
FF00
F800
F80E
7FFE
7FFE
3FF8
0FE0
ENDCHAR
STARTCHAR 0436
ENCODING 1078
SWIDTH 687 0
DWIDTH 21 0
BBX 21 16 1 0
BITMAP
0C3830
3E38F8
3E78F8
0F79E0
0F7BC0
0FFFC0
07FF80
07FF00
0FFF80
1FF7C0
3EF7C0
7CF3E0
78F1E0
F0F1E0
F1E1F0
E0E0E0
ENDCHAR
STARTCHAR 0437
ENCODING 1079
SWIDTH 458 0
DWIDTH 14 0
BBX 13 16 1 0
BITMAP
07C0
1FF0
3FF8
3FF8
3878
0078
07F0
0FE0
0FF0
03F0
00F0
70F0
FFF0
FFE0
7FC0
3F00
ENDCHAR
STARTCHAR 0438
ENCODING 1080
SWIDTH 654 0
DWIDTH 20 0
BBX 18 17 2 -1
BITMAP
3801C0
7803C0
7807C0
780FC0
781FC0
783FC0
787FC0
78FF80
F9F780
FBF780
F7E780
FFC780
FF0F80
FE0F00
FC0F00
F00F00
E00E00
ENDCHAR
STARTCHAR 0439
ENCODING 1081
SWIDTH 654 0
DWIDTH 20 0
BBX 18 25 2 -1
BITMAP
0601C0
0F01C0
0F07C0
0FFF80
07FF00
01FC00
000000
000000
3801C0
7803C0
7807C0
780FC0
781FC0
783FC0
787FC0
78FF80
F9F780
FBF780
F7E780
FFC780
FF0F80
FE0F00
FC0F00
F00F00
E00E00
ENDCHAR
STARTCHAR 043A
ENCODING 1082
SWIDTH 490 0
DWIDTH 15 0
BBX 16 16 1 0
BITMAP
1C0E
1E1F
3E3F
3C7C
3CF8
3FF0
3FE0
3FE0
3FF0
7CF8
78F8
787C
787C
783C
F83C
7018
ENDCHAR
STARTCHAR 043B
ENCODING 1083
SWIDTH 654 0
DWIDTH 20 0
BBX 21 17 0 -1
BITMAP
00FFF0
01FFF8
03FFF0
03FFF0
03C0F0
03C0F0
03C0F0
03C1F0
03C1E0
0781E0
0781E0
0781E0
7F81E0
FF01E0
FF01E0
7E01C0
000080
ENDCHAR
STARTCHAR 043C
ENCODING 1084
SWIDTH 752 0
DWIDTH 23 0
BBX 23 16 0 0
BITMAP
01C030
03E078
03E0F8
07E0F8
07E1F8
0FE1F8
0FE3B8
1EE3B8
1EE738
3CEF3C
3CFE3C
78FE3C
78FC3C
F8FC3C
F0783E
60701C
ENDCHAR
STARTCHAR 043D
ENCODING 1085
SWIDTH 556 0
DWIDTH 17 0
BBX 18 16 1 0
BITMAP
1C0180
1E03C0
3E03C0
3C07C0
3C0780
3C0780
3FFF80
7FFF80
7FFF80
7FFF80
7C0F00
780F00
780F00
F80F00
F00F00
700E00
ENDCHAR
STARTCHAR 043E
ENCODING 1086
SWIDTH 523 0
DWIDTH 16 0
BBX 16 16 1 0
BITMAP
01F8
07FC
0FFE
1FFE
3E1E
3C1F
7C1F
781E
781E
F81E
F83E
7C7C
7FF8
7FF0
3FE0
0F80
ENDCHAR
STARTCHAR 043F
ENCODING 1087
SWIDTH 654 0
DWIDTH 20 0
BBX 17 17 3 -1
BITMAP
1FFF80
3FFF80
3FFF80
3FFF80
7C0780
7C0780
780F80
780F80
780F00
780F00
780F00
780F00
F80F00
F00F00
F00F00
F00F00
E00E00
ENDCHAR
STARTCHAR 0440
ENCODING 1088
SWIDTH 556 0
DWIDTH 17 0
BBX 17 24 0 -8
BITMAP
077C00
0FFF00
1FFF00
1FFF80
1F8F80
1E0780
1E0780
1E0780
1E0780
3E0F80
3C0F00
3C1F00
3FFE00
3FFC00
3FF800
3FE000
780000
780000
780000
780000
780000
F80000
F00000
700000
ENDCHAR
STARTCHAR 0441
ENCODING 1089
SWIDTH 523 0
DWIDTH 16 0
BBX 15 16 1 0
BITMAP
01F0
07FC
0FFE
1FFE
3E1E
3C00
7800
7800
F000
F000
F000
F838
FFFC
7FF8
3FF0
0FC0
ENDCHAR
STARTCHAR 0442
ENCODING 1090
SWIDTH 785 0
DWIDTH 24 0
BBX 22 16 2 0
BITMAP
18F1F0
3DFBF8
7FFFFC
7FFFFC
7FFF7C
7E7C3C
7C783C
78783C
F8787C
F8787C
F0787C
F0787C
F07878
F0F878
F0F078
E07038
ENDCHAR
STARTCHAR 0443
ENCODING 1091
SWIDTH 556 0
DWIDTH 17 0
BBX 17 24 2 -8
BITMAP
700300
F80780
F80F80
7C1F00
7C1F00
7C3E00
3E7C00
3E7C00
1FF800
1FF000
1FF000
0FE000
0FC000
07C000
0F8000
0F0000
1F0000
3E0000
3C0000
7C0000
780000
F80000
F00000
600000
ENDCHAR
STARTCHAR 0444
ENCODING 1092
SWIDTH 818 0
DWIDTH 25 0
BBX 24 26 2 -9
BITMAP
000400
019E30
0FFFFC
1FFFFE
3FFFFF
7E7F1F
783E0F
F83C0F
F03C0F
F03C0F
F03C0F
F07C1F
F07C1E
F8F83E
FFFFFC
7FFFF8
3FFFF0
1F7FC0
00F800
00F000
00F000
00F000
00F000
00F000
00E000
00C000
ENDCHAR
STARTCHAR 0445
ENCODING 1093
SWIDTH 589 0
DWIDTH 18 0
BBX 20 16 0 0
BITMAP
070070
0F80F0
0F81F0
07C7E0
03EFC0
03FF80
01FE00
01FC00
01F800
03FC00
0FFE00
1FBF00
3F1F00
7C0F80
F80F80
700700
ENDCHAR
STARTCHAR 0446
ENCODING 1094
SWIDTH 621 0
DWIDTH 19 0
BBX 15 22 2 -6
BITMAP
380E
3C1E
7C1E
781E
783E
F83C
F03C
F03C
F03C
F03C
F07C
F078
FFFE
FFFE
7FFE
3F7E
001E
003C
003C
003C
007C
0038
ENDCHAR
STARTCHAR 0447
ENCODING 1095
SWIDTH 556 0
DWIDTH 17 0
BBX 15 16 2 0
BITMAP
700E
781E
F81E
F01E
F01E
F03E
F03C
F8FC
FFFC
7FFC
7FFC
1E7C
0078
0078
0078
0070
ENDCHAR
STARTCHAR 0448
ENCODING 1096
SWIDTH 785 0
DWIDTH 24 0
BBX 24 17 1 -1
BITMAP
0E0602
1E0F0F
1E1E0F
1E1E1F
3E1E1E
3C3E1E
3C3E1E
3C3C1E
3C3C1E
7C3C1E
783C3E
783C3C
787C3C
7FFFFC
FFFFFC
FFFFF8
7FFFF0
ENDCHAR
STARTCHAR 0449
ENCODING 1097
SWIDTH 818 0
DWIDTH 25 0
BBX 24 21 1 -5
BITMAP
1E0E07
1E1F0F
1E1E0F
1E1E1F
3E1E1E
3C3E1E
3C3E1E
3C3C1E
3C3C1E
7C3C1E
783C3E
783C3C
787C3C
FFFFFF
FFFFFF
FFFFFF
7FFFFF
00001F
00001E
00001E
00001C
ENDCHAR
STARTCHAR 044A
ENCODING 1098
SWIDTH 621 0
DWIDTH 19 0
BBX 18 16 2 0
BITMAP
FFC000
FFC000
FFC000
7FC000
03C000
03FE00
07FF80
07FF80
07FFC0
0787C0
0787C0
078780
0FFF80
0FFF00
0FFE00
0FF800
ENDCHAR
STARTCHAR 044B
ENCODING 1099
SWIDTH 818 0
DWIDTH 25 0
BBX 20 16 1 0
BITMAP
1C0070
3E0070
3C00F0
3C00F0
3C00F0
3FE0F0
3FF8F0
3FFDE0
7FFDE0
7C3DE0
783DE0
787DE0
7FF9C0
FFFBC0
FFF3C0
7F81C0
ENDCHAR
STARTCHAR 044C
ENCODING 1100
SWIDTH 490 0
DWIDTH 15 0
BBX 14 16 1 0
BITMAP
1C00
3E00
3C00
3C00
3C00
3FE0
3FF8
3FFC
7FFC
783C
783C
787C
7FF8
FFF8
FFF0
7F80
ENDCHAR
STARTCHAR 044D
ENCODING 1101
SWIDTH 523 0
DWIDTH 16 0
BBX 15 16 1 0
BITMAP
0FE0
3FF8
3FFC
3FFC
003E
003E
07FE
0FFE
0FFE
07FC
003C
00FC
FFF8
FFF0
FFE0
7F00
ENDCHAR
STARTCHAR 044E
ENCODING 1102
SWIDTH 916 0
DWIDTH 28 0
BBX 28 18 1 0
BITMAP
0C000000
1E000000
1E007F00
3C01FFC0
3C07FFE0
3C0FFFE0
3C1FC1F0
3BFF01F0
7FFE01F0
7FFE01E0
7FFC01E0
703C03E0
F03C07C0
F03E0F80
F03FFF80
F01FFF00
F00FFC00
E003F000
ENDCHAR
STARTCHAR 044F
ENCODING 1103
SWIDTH 523 0
DWIDTH 16 0
BBX 16 16 0 0
BITMAP
003F
01FF
07FF
0FFF
1F9F
1F1F
3E1F
3F1F
1FFE
0FFE
07FE
1FFE
3FBE
FE3E
F83E
701C
ENDCHAR
STARTCHAR 0451
ENCODING 1105
SWIDTH 556 0
DWIDTH 17 0
BBX 17 23 1 0
BITMAP
03CF00
07CF80
07DF80
078F00
000000
000000
000000
01F800
07FE00
0FFF00
1FFF00
3E1F00
7C7E00
7BFC00
7FF800
FFC000
FF0000
F80000
F80E00
7FFE00
7FFE00
3FF800
0FE000
ENDCHAR
STARTCHAR 0452
ENCODING 1106
SWIDTH 556 0
DWIDTH 17 0
BBX 16 30 1 -6
BITMAP
0700
0F00
0F00
3FFE
FFFE
FFFE
7F60
1E00
1E3E
1EFF
1FFF
1FFF
3FCF
3F8F
3F0F
3E0F
3C0F
3C0F
7C1F
7C1F
781E
781E
781E
701E
003E
003C
07FC
07F8
07F0
03E0
ENDCHAR
STARTCHAR 0453
ENCODING 1107
SWIDTH 490 0
DWIDTH 15 0
BBX 15 25 1 0
BITMAP
000E
001E
007E
00FC
01F0
01E0
01C0
0000
0000
07E0
1FF0
3FF8
3FF8
1C3C
0078
03F8
1FF0
3FE0
7F00
7800
F830
7FF8
7FF8
3FF0
0FC0
ENDCHAR
STARTCHAR 0454
ENCODING 1108
SWIDTH 523 0
DWIDTH 16 0
BBX 15 16 1 0
BITMAP
03F0
0FFC
1FFE
3FFE
3C0C
7800
7FC0
FFC0
FFC0
FF00
F800
FC00
7FF8
7FF8
3FF8
0FE0
ENDCHAR
STARTCHAR 0455
ENCODING 1109
SWIDTH 490 0
DWIDTH 15 0
BBX 15 16 1 0
BITMAP
03FC
0FFE
1FFE
3FFC
3C1C
3E00
3F80
1FE0
07F0
01F8
0078
0078
FFF8
FFF0
FFE0
3F80
ENDCHAR
STARTCHAR 0456
ENCODING 1110
SWIDTH 294 0
DWIDTH 9 0
BBX 9 23 2 0
BITMAP
0700
0F80
0F80
0F00
0000
0000
0000
0C00
1E00
3E00
3C00
3C00
3C00
3C00
7C00
7800
7800
7800
7800
7800
F800
F000
7000
ENDCHAR
STARTCHAR 0457
ENCODING 1111
SWIDTH 294 0
DWIDTH 9 0
BBX 13 22 1 0
BITMAP
78F0
FDF8
FDF0
70E0
0000
0000
0600
0F00
1F00
1E00
1E00
1E00
1E00
3E00
3C00
3C00
3C00
3C00
3C00
7C00
7800
3800
ENDCHAR
STARTCHAR 0458
ENCODING 1112
SWIDTH 425 0
DWIDTH 13 0
BBX 13 31 -3 -8
BITMAP
0038
0078
00F8
0078
0020
0000
0000
0070
00F0
00F0
00F0
00F0
00F0
01F0
01F0
01F0
01F0
01F0
01E0
01E0
01E0
01E0
01E0
01E0
63E0
F3E0
F3C0
FFC0
FF80
7F00
3E00
ENDCHAR
STARTCHAR 0459
ENCODING 1113
SWIDTH 916 0
DWIDTH 28 0
BBX 28 17 0 -1
BITMAP
00FFF800
01FFF800
01FFF800
01FFF800
01E0F800
03E0FF00
03E0FFE0
03E0FFF0
03C0FFF0
03C1F0F0
03C1F0F0
03C1E0F0
73C1E7F0
FF83FFE0
FF83FFC0
7F01FF00
08000000
ENDCHAR
STARTCHAR 045A
ENCODING 1114
SWIDTH 785 0
DWIDTH 24 0
BBX 23 16 1 0
BITMAP
1C0E00
3C1F00
3C1F00
3C1E00
7C1E00
7FFFF0
7FFFFC
7FFFFE
7FFFFE
783E1E
783C1E
F83C3E
F03FFC
F07FFC
F07FF8
E03FE0
ENDCHAR
STARTCHAR 045B
ENCODING 1115
SWIDTH 589 0
DWIDTH 18 0
BBX 16 24 1 0
BITMAP
0700
0F00
0F00
3FFE
7FFE
FFFC
7F00
1E00
1E3E
1EFF
1FFF
1FFF
3FCF
3F8F
3F0F
3E0F
3C0F
3C0F
7C1F
7C1F
781F
781F
780F
700E
ENDCHAR
STARTCHAR 045C
ENCODING 1116
SWIDTH 490 0
DWIDTH 15 0
BBX 16 25 1 0
BITMAP
000E
001F
003E
007C
00F8
01F0
01C0
0000
0000
1C0E
1E1F
3E3F
3C7C
3CF8
3FF0
3FE0
3FE0
3FF0
7CF8
78F8
787C
787C
783C
F83C
7018
ENDCHAR
STARTCHAR 045E
ENCODING 1118
SWIDTH 556 0
DWIDTH 17 0
BBX 17 32 2 -8
BITMAP
1C0300
1C0780
1E0F00
1FFF00
0FFE00
03F000
000000
000000
700300
F80780
F80F80
7C1F00
7C1F00
7C3E00
3E7C00
3E7C00
1FF800
1FF000
1FF000
0FE000
0FC000
07C000
0F8000
0F0000
1F0000
3E0000
3C0000
7C0000
780000
F80000
F00000
600000
ENDCHAR
STARTCHAR 045F
ENCODING 1119
SWIDTH 621 0
DWIDTH 19 0
BBX 15 23 2 -7
BITMAP
380E
3C1E
7C1E
781E
783E
F83E
F03C
F03C
F03C
F03C
F03C
F07C
F0F8
FFF8
FFF8
7FF8
1F70
1F00
1E00
1E00
1E00
3C00
1C00
ENDCHAR
STARTCHAR 0490
ENCODING 1168
SWIDTH 621 0
DWIDTH 19 0
BBX 19 27 3 0
BITMAP
0001C0
0001E0
0003E0
0003E0
1FFFE0
3FFFE0
3FFFE0
3FFFC0
3E0000
3C0000
3C0000
3C0000
3C0000
3C0000
3C0000
3C0000
3C0000
7C0000
7C0000
780000
780000
780000
780000
780000
780000
F00000
700000
ENDCHAR
STARTCHAR 0491
ENCODING 1169
SWIDTH 490 0
DWIDTH 15 0
BBX 15 20 2 0
BITMAP
000E
001E
001E
001E
1FFE
3FFE
3FFE
7FFC
7C00
7C00
7800
7800
7800
7800
7800
7800
F800
F000
F000
6000
ENDCHAR
STARTCHAR 1E80
ENCODING 7808
SWIDTH 1047 0
DWIDTH 32 0
BBX 31 33 4 -1
BITMAP
00060000
000F0000
000F8000
0007C000
0003E000
0001E000
0001C000
00000000
00000000
7001800C
F007C01E
F807C03E
F80FC03C
F81FC07C
781FC078
783FC0F8
783FC0F0
7C3FC1F0
7C7FC1E0
7C7BC3C0
3CFBC7C0
3CF3C780
3DF3CF80
3DE3CF00
3FE3DE00
3FC3DE00
3F83FC00
3F83F800
3F03F800
3F03F000
3F03F000
1E03E000
1C01C000
ENDCHAR
STARTCHAR 1E81
ENCODING 7809
SWIDTH 687 0
DWIDTH 21 0
BBX 20 25 3 0
BITMAP
00E000
01F000
01F800
00F800
007C00
003C00
001C00
000000
000000
706070
F0F0F0
F1F0F0
F1F1E0
F3F1E0
F3F3C0
F7F3C0
F777C0
FF7780
FE7780
FC7F00
FC7F00
F87E00
F87C00
F07C00
603800
ENDCHAR
STARTCHAR 1E82
ENCODING 7810
SWIDTH 1047 0
DWIDTH 32 0
BBX 31 33 4 -1
BITMAP
00001C00
00003C00
0000FC00
0001F800
0003E000
0003C000
00038000
00000000
00000000
7001800C
F007C01E
F807C03E
F80FC03C
F81FC07C
781FC078
783FC0F8
783FC0F0
7C3FC1F0
7C7FC1E0
7C7BC3C0
3CFBC7C0
3CF3C780
3DF3CF80
3DE3CF00
3FE3DE00
3FC3DE00
3F83FC00
3F83F800
3F03F800
3F03F000
3F03F000
1E03E000
1C01C000
ENDCHAR
STARTCHAR 1E83
ENCODING 7811
SWIDTH 687 0
DWIDTH 21 0
BBX 20 25 3 0
BITMAP
000700
000F80
001F00
003E00
00FC00
00F000
00E000
000000
000000
706070
F0F0F0
F1F0F0
F1F1E0
F3F1E0
F3F3C0
F7F3C0
F777C0
FF7780
FE7780
FC7F00
FC7F00
F87E00
F87C00
F07C00
603800
ENDCHAR
STARTCHAR 1E84
ENCODING 7812
SWIDTH 1047 0
DWIDTH 32 0
BBX 31 30 4 -1
BITMAP
000F3C00
001F7E00
003F7E00
001E3C00
00000000
00000000
7001800C
F007C01E
F807C03E
F80FC03C
F81FC07C
781FC078
783FC0F8
783FC0F0
7C3FC1F0
7C7FC1E0
7C7BC3C0
3CFBC7C0
3CF3C780
3DF3CF80
3DE3CF00
3FE3DE00
3FC3DE00
3F83FC00
3F83F800
3F03F800
3F03F000
3F03F000
1E03E000
1C01C000
ENDCHAR
STARTCHAR 1E85
ENCODING 7813
SWIDTH 687 0
DWIDTH 21 0
BBX 20 22 3 0
BITMAP
03CF00
07DF80
07DF80
078F00
000000
000000
706070
F0F0F0
F1F0F0
F1F1E0
F3F1E0
F3F3C0
F7F3C0
F777C0
FF7780
FE7780
FC7F00
FC7F00
F87E00
F87C00
F07C00
603800
ENDCHAR
STARTCHAR 1EF2
ENCODING 7922
SWIDTH 654 0
DWIDTH 20 0
BBX 19 33 3 -1
BITMAP
018000
03E000
03F000
01F000
00F800
007800
003000
000000
000000
7000E0
F001E0
F801E0
F803E0
7C07C0
7C0780
3E0F80
3E1F00
1F1F00
1F3E00
0FFC00
0FFC00
07F800
07F800
03F000
03E000
07E000
07C000
0F8000
1F8000
1F0000
3E0000
3C0000
180000
ENDCHAR
STARTCHAR 1EF3
ENCODING 7923
SWIDTH 556 0
DWIDTH 17 0
BBX 17 33 2 -8
BITMAP
030000
078000
07C000
03E000
01F000
00F000
00E000
000000
000000
700300
F80780
F80F80
7C1F00
7C1F00
7C3E00
3E7C00
3E7C00
1FF800
1FF000
1FF000
0FE000
0FC000
07C000
0F8000
0F0000
1F0000
3E0000
3C0000
7C0000
780000
F80000
F00000
600000
ENDCHAR
STARTCHAR 2013
ENCODING 8211
SWIDTH 458 0
DWIDTH 14 0
BBX 13 3 2 9
BITMAP
7FF0
FFF8
FFF0
ENDCHAR
STARTCHAR 2014
ENCODING 8212
SWIDTH 883 0
DWIDTH 27 0
BBX 26 3 2 8
BITMAP
7FFFFFC0
FFFFFFC0
FFFFFF80
ENDCHAR
STARTCHAR 2015
ENCODING 8213
SWIDTH 883 0
DWIDTH 27 0
BBX 26 3 2 8
BITMAP
7FFFFFC0
FFFFFFC0
FFFFFF80
ENDCHAR
STARTCHAR 2017
ENCODING 8215
SWIDTH 621 0
DWIDTH 19 0
BBX 22 7 -2 -9
BITMAP
7FFFFC
7FFFF8
7FFFF8
000000
FFFFF8
FFFFF8
FFFFF8
ENDCHAR
STARTCHAR 2018
ENCODING 8216
SWIDTH 229 0
DWIDTH 7 0
BBX 3 7 5 16
BITMAP
E0
E0
E0
E0
E0
E0
E0
ENDCHAR
STARTCHAR 2019
ENCODING 8217
SWIDTH 229 0
DWIDTH 7 0
BBX 5 7 4 16
BITMAP
38
78
78
F0
F0
F0
E0
ENDCHAR
STARTCHAR 201A
ENCODING 8218
SWIDTH 425 0
DWIDTH 13 0
BBX 6 7 3 -5
BITMAP
1C
3C
7C
78
F0
F0
E0
ENDCHAR
STARTCHAR 201B
ENCODING 8219
SWIDTH 229 0
DWIDTH 7 0
BBX 5 7 4 16
BITMAP
38
78
78
F0
F0
F0
E0
ENDCHAR
STARTCHAR 201C
ENCODING 8220
SWIDTH 425 0
DWIDTH 13 0
BBX 11 8 4 16
BITMAP
71C0
F3C0
F3E0
F1E0
F1E0
F9E0
79E0
70C0
ENDCHAR
STARTCHAR 201D
ENCODING 8221
SWIDTH 425 0
DWIDTH 13 0
BBX 12 8 4 16
BITMAP
1870
3CF0
7CF0
79E0
F9E0
F3E0
F3C0
E180
ENDCHAR
STARTCHAR 201E
ENCODING 8222
SWIDTH 425 0
DWIDTH 13 0
BBX 13 7 0 -5
BITMAP
0C30
1E78
3CF0
79F0
79E0
F3C0
6180
ENDCHAR
STARTCHAR 2020
ENCODING 8224
SWIDTH 621 0
DWIDTH 19 0
BBX 18 29 3 -3
BITMAP
006000
00F000
01F000
01F000
01E000
01E000
01E000
01E000
FFFF80
FFFFC0
FFFF80
FFFF00
03C000
07C000
078000
078000
078000
078000
078000
0F8000
0F0000
0F0000
0F0000
0F0000
1F0000
1F0000
1E0000
1E0000
0C0000
ENDCHAR
STARTCHAR 2021
ENCODING 8225
SWIDTH 621 0
DWIDTH 19 0
BBX 19 29 2 -3
BITMAP
003000
007800
007800
00F800
00F000
3FFFE0
7FFFE0
7FFFE0
3FFFC0
01E000
01E000
01E000
01E000
03E000
03C000
3FFE00
7FFF00
FFFF00
7FFE00
07C000
078000
078000
078000
078000
078000
0F8000
0F8000
0F0000
060000
ENDCHAR
STARTCHAR 2022
ENCODING 8226
SWIDTH 621 0
DWIDTH 19 0
BBX 7 6 7 8
BITMAP
3C
7E
FE
FE
FE
78
ENDCHAR
STARTCHAR 2026
ENCODING 8230
SWIDTH 687 0
DWIDTH 21 0
BBX 18 3 2 -1
BITMAP
F1E3C0
F1E780
F1C780
ENDCHAR
STARTCHAR 2030
ENCODING 8240
SWIDTH 1243 0
DWIDTH 38 0
BBX 32 25 5 0
BITMAP
0F01C000
3F83C000
7FC7C000
FFC78000
F3CF0000
E3CF0000
FFDE0000
FFBE0000
7F3C0000
3E780000
00F80000
00F00000
01E00000
01E00000
03C7C078
078FF1FE
079FF3FF
0F3FFBFF
1E387F8F
1E787F8F
3C78778F
7C7FF7FE
783FE7FE
703FC3FC
600F81F0
ENDCHAR
STARTCHAR 2032
ENCODING 8242
SWIDTH 229 0
DWIDTH 7 0
BBX 5 9 4 16
BITMAP
38
78
78
78
F0
F0
F0
E0
E0
ENDCHAR
STARTCHAR 2033
ENCODING 8243
SWIDTH 425 0
DWIDTH 13 0
BBX 11 9 4 16
BITMAP
38C0
79E0
79E0
79C0
F3C0
F3C0
F3C0
E380
E380
ENDCHAR
STARTCHAR 2039
ENCODING 8249
SWIDTH 621 0
DWIDTH 19 0
BBX 11 13 5 3
BITMAP
00E0
01E0
03E0
0FC0
1F80
7E00
FC00
FC00
7E00
1F00
0F80
0780
0300
ENDCHAR
STARTCHAR 203A
ENCODING 8250
SWIDTH 621 0
DWIDTH 19 0
BBX 12 14 5 3
BITMAP
1C00
1E00
1F00
1F80
0FC0
07F0
03F0
03F0
07E0
1FC0
3F00
FE00
F800
6000
ENDCHAR
STARTCHAR 203C
ENCODING 8252
SWIDTH 458 0
DWIDTH 14 0
BBX 15 26 1 -1
BITMAP
070C
0F1E
0F1E
0F1C
0F3C
0E3C
1E3C
1E3C
1E3C
1E3C
1E78
1E78
3C78
3C78
3C78
3C78
3CF0
3CF0
38F0
3860
0000
0000
71E0
F9E0
79E0
70C0
ENDCHAR
STARTCHAR 203E
ENCODING 8254
SWIDTH 621 0
DWIDTH 19 0
BBX 23 3 1 22
BITMAP
7FFFFC
FFFFFE
7FFFFC
ENDCHAR
STARTCHAR 2044
ENCODING 8260
SWIDTH 818 0
DWIDTH 25 0
BBX 28 27 -11 -1
BITMAP
00000070
000000F0
000001F0
000003E0
000007C0
00000F80
00001F00
00003E00
00007C00
0000F800
0001F000
0003E000
0007C000
000F8000
001F0000
003E0000
007C0000
00F00000
03E00000
07C00000
0F800000
1F000000
3E000000
7C000000
F8000000
F0000000
C0000000
ENDCHAR
STARTCHAR 2070
ENCODING 8304
SWIDTH 458 0
DWIDTH 14 0
BBX 12 13 3 12
BITMAP
07C0
1FE0
3FF0
78F0
7070
7070
F070
F0F0
F0F0
F1E0
7FC0
7FC0
3F00
ENDCHAR
STARTCHAR 2074
ENCODING 8308
SWIDTH 458 0
DWIDTH 14 0
BBX 13 13 3 12
BITMAP
00E0
01E0
03E0
07E0
0FE0
1CC0
39C0
7FF0
FFF8
7FF0
01C0
0180
0180
ENDCHAR
STARTCHAR 2075
ENCODING 8309
SWIDTH 458 0
DWIDTH 14 0
BBX 12 13 4 12
BITMAP
3FF0
3FF0
3FC0
7800
77C0
7FE0
7FE0
00E0
00E0
E1E0
FFC0
FF80
3E00
ENDCHAR
STARTCHAR 2076
ENCODING 8310
SWIDTH 458 0
DWIDTH 14 0
BBX 11 13 4 12
BITMAP
0380
0780
1F00
1E00
3C00
7FC0
7FE0
79E0
F0E0
F1E0
FFC0
7F80
3F00
ENDCHAR
STARTCHAR 2077
ENCODING 8311
SWIDTH 458 0
DWIDTH 14 0
BBX 12 13 5 12
BITMAP
7FE0
FFF0
FFE0
03C0
0780
0700
0F00
1E00
1C00
3C00
7800
7800
7000
ENDCHAR
STARTCHAR 2078
ENCODING 8312
SWIDTH 458 0
DWIDTH 14 0
BBX 11 13 4 12
BITMAP
07C0
1FE0
3FE0
78E0
79E0
3FC0
1FC0
7FE0
F0E0
F1E0
FFE0
FFC0
3F00
ENDCHAR
STARTCHAR 2079
ENCODING 8313
SWIDTH 458 0
DWIDTH 14 0
BBX 11 13 5 12
BITMAP
1F00
3FC0
7FC0
F1E0
E1E0
E1C0
FFC0
7FC0
0780
1F00
7E00
7C00
7000
ENDCHAR
STARTCHAR 207F
ENCODING 8319
SWIDTH 523 0
DWIDTH 16 0
BBX 12 12 5 13
BITMAP
33C0
7FE0
7FE0
7CF0
78F0
70E0
F0E0
F1E0
F1E0
F1E0
E1E0
E0C0
ENDCHAR
STARTCHAR 2080
ENCODING 8320
SWIDTH 458 0
DWIDTH 14 0
BBX 12 13 1 -2
BITMAP
07C0
1FE0
3FF0
78F0
7070
F070
F070
F0F0
F0E0
F1E0
FFC0
7F80
3F00
ENDCHAR
STARTCHAR 2081
ENCODING 8321
SWIDTH 458 0
DWIDTH 14 0
BBX 9 13 3 -1
BITMAP
0700
1F00
3F00
7E00
7E00
0E00
0E00
1E00
1E00
1C00
FF80
FF80
FF00
ENDCHAR
STARTCHAR 2082
ENCODING 8322
SWIDTH 458 0
DWIDTH 14 0
BBX 11 13 2 -1
BITMAP
0F80
1FC0
3FE0
79E0
31E0
03C0
0FC0
1F00
7E00
7800
FFC0
FFC0
7F80
ENDCHAR
STARTCHAR 2083
ENCODING 8323
SWIDTH 458 0
DWIDTH 14 0
BBX 11 13 2 -1
BITMAP
1F80
3FE0
3FE0
21E0
03C0
0F80
1F80
0FC0
01C0
67C0
FFC0
FF80
7E00
ENDCHAR
STARTCHAR 2084
ENCODING 8324
SWIDTH 458 0
DWIDTH 14 0
BBX 13 13 1 -1
BITMAP
00E0
01E0
03E0
07E0
0FC0
1CC0
39C0
7FF0
FFF8
7FF0
01C0
0180
0180
ENDCHAR
STARTCHAR 2085
ENCODING 8325
SWIDTH 458 0
DWIDTH 14 0
BBX 12 13 2 -2
BITMAP
3FF0
3FE0
7FC0
7000
77C0
7FE0
FFE0
00E0
01E0
E1E0
FFC0
FF80
7E00
ENDCHAR
STARTCHAR 2086
ENCODING 8326
SWIDTH 458 0
DWIDTH 14 0
BBX 11 13 2 -1
BITMAP
0380
0780
1F00
3E00
3C00
7FC0
7FE0
F9E0
F0E0
F1E0
FFC0
7F80
3F00
ENDCHAR
STARTCHAR 2087
ENCODING 8327
SWIDTH 458 0
DWIDTH 14 0
BBX 12 13 3 -1
BITMAP
7FE0
FFF0
FFE0
03C0
0780
0F00
0E00
1E00
1C00
3C00
7800
7000
7000
ENDCHAR
STARTCHAR 2088
ENCODING 8328
SWIDTH 458 0
DWIDTH 14 0
BBX 11 13 2 -1
BITMAP
0FC0
1FE0
3FE0
78E0
79E0
3FC0
1FC0
7BE0
F0E0
E1E0
FFE0
FFC0
3F00
ENDCHAR
STARTCHAR 2089
ENCODING 8329
SWIDTH 458 0
DWIDTH 14 0
BBX 10 13 3 -1
BITMAP
1F00
7FC0
7FC0
F1C0
E1C0
E1C0
FFC0
7FC0
0780
1F00
7E00
7C00
7000
ENDCHAR
STARTCHAR 20A3
ENCODING 8355
SWIDTH 1014 0
DWIDTH 31 0
BBX 31 26 1 -1
BITMAP
02FF8000
0FFFE000
0FFFF000
0FFFF000
1F80E000
1F000000
1E000000
1E000000
1E000000
1FFF1C7C
3FFFBDFE
3FFFBFFE
3FFFBFFE
3F003F9E
3C003E1E
3C007C1C
3C007800
7C007800
7C007800
78007800
78007800
7800F000
7800F000
7800F000
F800E000
70000000
ENDCHAR
STARTCHAR 20A4
ENCODING 8356
SWIDTH 818 0
DWIDTH 25 0
BBX 21 25 3 -2
BITMAP
001F80
007FF0
01FFF8
03FFF8
07C078
078070
0F0000
0F0000
7FF800
FFF800
7FF800
1E0000
1E0000
1E0000
FFF000
FFF800
FFF000
1E0000
1E0070
1E00F0
3FC0F0
7FFFF0
FFFFE0
E1FFC0
003F00
ENDCHAR
STARTCHAR 20A7
ENCODING 8359
SWIDTH 1276 0
DWIDTH 39 0
BBX 39 25 1 0
BITMAP
07F8000000
0FFE000000
0FFF000000
0FFF000000
0F0F870000
1F078F0000
1E07CF0000
1E07CF0000
1E078F0000
1E07FFF1FC
3E0FFFFFFE
3C3FFFFFFE
3FFFFFFFFE
3FFE1E3E0C
3FF81E3E00
7FC01E1F80
78001E0FE0
78003E07F8
78003E01F8
78003C007C
78003C007C
F0003C7FFC
F0003CFFF8
F0007C7FF0
6000381FC0
ENDCHAR
STARTCHAR 20AC
ENCODING 8364
SWIDTH 621 0
DWIDTH 19 0
BBX 22 23 1 0
BITMAP
0003FC
000FFC
001FFC
007FFC
00FE3C
01F83C
01F000
3FFF00
7FFF00
7FFF00
0F0000
0F0000
7FF000
FFF000
7FF000
3E0000
3E00E0
3E03E0
1F0FE0
1FFFC0
0FFF80
07FE00
03F000
ENDCHAR
STARTCHAR 2105
ENCODING 8453
SWIDTH 850 0
DWIDTH 26 0
BBX 22 25 4 0
BITMAP
0F8060
3FC0E0
7FC1E0
7F83C0
F003C0
F00780
F00F80
F00F00
FF9E00
FF9E00
7FBC00
3E7800
007800
00F000
01E1E0
01E7F8
03CFFC
07DFFC
079E3C
0F1E3C
1F1C3C
1E1FF8
3C1FF8
3C0FF0
3807C0
ENDCHAR
STARTCHAR 2113
ENCODING 8467
SWIDTH 556 0
DWIDTH 17 0
BBX 16 24 3 0
BITMAP
0078
00FE
01FE
03FF
03CF
078F
079E
079E
0F3C
0F7C
0FF8
0FF0
0FE0
3FC0
FF00
FE00
FE00
1C00
1C00
1E20
1FF0
1FF0
1FE0
07C0
ENDCHAR
STARTCHAR 2116
ENCODING 8470
SWIDTH 1210 0
DWIDTH 37 0
BBX 36 24 2 0
BITMAP
0E00380000
1F007C0000
1F007C0000
1F807C0000
1F807C0000
3FC07C0000
3FC07C0F80
3FE07C3FC0
3FE07C7FE0
3DF07CFFE0
3DF078F1F0
3CF879F1F0
3CF879E1F0
7C7C79E1F0
787C79F3E0
783EF9FFE0
783FF0FFC0
781FF0FF80
F81FF03E00
F80FF00000
F007F7FFC0
F007E7FFE0
F003E7FFC0
E001C7FFC0
ENDCHAR
STARTCHAR 2120
ENCODING 8480
SWIDTH 1210 0
DWIDTH 37 0
BBX 34 17 1 5
BITMAP
0FE0701C00
1FF0701E00
3FF8F81E00
7838F83E00
7000F83E00
7000F83E00
7F01D87700
3FC1DC7700
1FE1DC6700
01F39CE780
00738EE380
00738FC380
40778FC380
F1F70781C0
FFF70781C0
7FE70301C0
1F020000C0
ENDCHAR
STARTCHAR 2122
ENCODING 8482
SWIDTH 883 0
DWIDTH 27 0
BBX 25 11 4 13
BITMAP
7FFF8600
FFFFCF00
FFFFDF00
0707DF00
0F0FFF00
0F0FFF00
0F1FFF00
0F3DF780
0F3DF780
0F79E380
0E31C380
ENDCHAR
STARTCHAR 2126
ENCODING 8486
SWIDTH 981 0
DWIDTH 30 0
BBX 30 26 0 -1
BITMAP
00001FC0
0000FFF0
0003FFF8
000FFFF8
003FE07C
007F003C
00FC003C
00F8003C
01F0003C
01E0007C
03E0007C
03C00078
03C00078
03C000F8
03C000F0
03C001F0
03C001E0
03E003E0
03E007C0
01E00F80
01E01F00
03F03E00
7FF07FF8
FFF07FF8
FFE07FF8
7E003FF8
ENDCHAR
STARTCHAR 212E
ENCODING 8494
SWIDTH 556 0
DWIDTH 17 0
BBX 15 16 2 0
BITMAP
03E0
0C18
1004
2004
6006
6006
E00E
FFFE
E000
C000
C000
C000
C000
4008
3070
1FC0
ENDCHAR
STARTCHAR 215B
ENCODING 8539
SWIDTH 654 0
DWIDTH 20 0
BBX 18 31 2 -6
BITMAP
001800
007800
01F800
03F800
01F800
007000
007000
007000
007000
07FE00
07FE00
07FC00
000000
7FFF00
FFFFC0
FFFF80
000F00
000000
03F000
07F800
0FF800
1E3800
1E7800
0FF000
0FF000
1EF800
3C7800
387800
3FF000
3FE000
0FC000
ENDCHAR
STARTCHAR 215C
ENCODING 8540
SWIDTH 654 0
DWIDTH 20 0
BBX 18 31 2 -6
BITMAP
00FC00
01FF00
03FF00
010F00
003E00
00F800
00FE00
001E00
071E00
07FE00
07FC00
03F000
000000
7FFF00
FFFFC0
FFFF80
000F00
000000
03F000
07F800
0FF800
1E3800
1E7800
0FF000
0FF000
1EF800
3C7800
387800
3FF000
3FE000
0FC000
ENDCHAR
STARTCHAR 215D
ENCODING 8541
SWIDTH 654 0
DWIDTH 20 0
BBX 18 31 2 -6
BITMAP
01FF80
01FF80
01FE00
03C000
03FE00
03FF00
03FF00
000700
030F00
07FE00
07FE00
01F800
000000
7FFF00
FFFFC0
FFFF80
000F00
000000
03F000
07F800
0FF800
1E3800
1E7800
0FF000
0FF000
1EF800
3C7800
387800
3FF000
3FE000
0FC000
ENDCHAR
STARTCHAR 215E
ENCODING 8542
SWIDTH 654 0
DWIDTH 20 0
BBX 18 31 2 -6
BITMAP
01FFC0
01FFC0
01FF80
000F00
000E00
001C00
003C00
007800
007000
00F000
01E000
01C000
000000
7FFF00
FFFFC0
FFFF80
000F00
000000
03F000
07F800
0FF800
1E3800
1E7800
0FF000
0FF000
1EF800
3C7800
387800
3FF000
3FE000
0FC000
ENDCHAR
STARTCHAR 2202
ENCODING 8706
SWIDTH 523 0
DWIDTH 16 0
BBX 14 24 2 0
BITMAP
0700
0F80
0FC0
07C0
03E0
01E0
00F0
00F0
01F8
07F8
0FF8
1FBC
3E3C
783C
783C
F03C
F078
F078
F078
F0F0
FFF0
7FE0
3FC0
1F00
ENDCHAR
STARTCHAR 2206
ENCODING 8710
SWIDTH 818 0
DWIDTH 25 0
BBX 24 26 0 -1
BITMAP
000180
0003C0
0007C0
000FE0
000FE0
001FE0
001FF0
003FF0
007CF0
007CF0
00F8F8
00F078
01F078
01E07C
03E03C
07C03C
07803E
0F801E
1F001E
1E001F
3E000F
7FFFFF
7FFFFF
FFFFFF
FFFFFF
000008
ENDCHAR
STARTCHAR 220F
ENCODING 8719
SWIDTH 916 0
DWIDTH 28 0
BBX 22 29 2 -4
BITMAP
0FFFFC
0FFFFC
1FFFFC
1FFFFC
1E003C
1E003C
1E003C
1E007C
1E007C
3E0078
3E0078
3C0078
3C0078
3C0078
3C00F8
3C00F8
7C00F0
7800F0
7800F0
7800F0
7800F0
7800F0
F801F0
F801F0
F001E0
F001E0
F001E0
F001E0
E001C0
ENDCHAR
STARTCHAR 2211
ENCODING 8721
SWIDTH 752 0
DWIDTH 23 0
BBX 25 28 0 -5
BITMAP
03FFFF00
0FFFFF80
0FFFFF80
0FFFFF00
07E00000
03F00000
01F80000
01F80000
00FC0000
007C0000
003E0000
003F0000
001F8000
001F8000
003F0000
007E0000
00FC0000
01F80000
03F00000
03E00000
07C00000
0F800000
1F000000
3F000000
7FFFFC00
FFFFFC00
FFFFFC00
7FFFFC00
ENDCHAR
STARTCHAR 2212
ENCODING 8722
SWIDTH 621 0
DWIDTH 19 0
BBX 15 4 3 8
BITMAP
7FFE
FFFE
FFFE
7FFC
ENDCHAR
STARTCHAR 2215
ENCODING 8725
SWIDTH 818 0
DWIDTH 25 0
BBX 28 27 -11 -1
BITMAP
00000070
000000F0
000001F0
000003E0
000007C0
00000F80
00001F00
00003E00
00007C00
0000F800
0001F000
0003E000
0007C000
000F8000
001F0000
003E0000
007C0000
00F00000
03E00000
07C00000
0F800000
1F000000
3E000000
7C000000
F8000000
F0000000
C0000000
ENDCHAR
STARTCHAR 2219
ENCODING 8729
SWIDTH 621 0
DWIDTH 19 0
BBX 5 4 8 9
BITMAP
78
78
F8
70
ENDCHAR
STARTCHAR 221A
ENCODING 8730
SWIDTH 621 0
DWIDTH 19 0
BBX 21 25 1 0
BITMAP
0003F8
0007F8
000FF8
000FF0
001E00
001E00
001C00
003C00
003C00
007800
007800
007800
00F000
00F000
01E000
01E000
63C000
E3C000
F78000
F78000
7F0000
7F0000
7E0000
3E0000
1C0000
ENDCHAR
STARTCHAR 221E
ENCODING 8734
SWIDTH 850 0
DWIDTH 26 0
BBX 23 10 3 5
BITMAP
0F81F0
3FC7FC
7FFFFC
F1FE1E
E07C1E
E0FC1C
FBFE3C
FFFFFC
7FCFF8
3F03E0
ENDCHAR
STARTCHAR 222B
ENCODING 8747
SWIDTH 720 0
DWIDTH 22 0
BBX 24 32 0 -6
BITMAP
00007C
0000FE
0001FF
0003FF
0007CF
00078E
000780
000F00
000F00
000F00
000F00
001F00
001F00
001E00
001E00
001E00
001E00
003E00
003E00
003C00
003C00
003C00
007C00
007800
707800
787800
F8F000
F8F000
7FE000
7FE000
3FC000
0F0000
ENDCHAR
STARTCHAR 2248
ENCODING 8776
SWIDTH 621 0
DWIDTH 19 0
BBX 20 14 1 4
BITMAP
01F000
03F8E0
0FF8F0
0FFFE0
1E3FE0
1C1FC0
000F00
078000
1FC380
3FE780
7DFF80
F9FF00
70FE00
007C00
ENDCHAR
STARTCHAR 2260
ENCODING 8800
SWIDTH 621 0
DWIDTH 19 0
BBX 14 17 4 1
BITMAP
0038
0078
0078
3FFC
7FFC
7FFC
3FF0
03C0
07C0
0780
0F00
7FF0
FFF8
FFF0
7FE0
7800
3000
ENDCHAR
STARTCHAR 2264
ENCODING 8804
SWIDTH 621 0
DWIDTH 19 0
BBX 12 18 3 -2
BITMAP
0070
00F0
01F0
07E0
0FC0
3F00
7E00
7F00
3F80
0FC0
07C0
03C0
0180
0000
7FF0
FFF0
FFF0
3FC0
ENDCHAR
STARTCHAR 2265
ENCODING 8805
SWIDTH 621 0
DWIDTH 19 0
BBX 13 19 3 -2
BITMAP
0E00
1F00
1F80
0FC0
07E0
03F8
01F8
01F8
03F0
0FE0
3F80
7F00
7C00
7000
0000
7FF0
FFF0
FFF0
7FC0
ENDCHAR
STARTCHAR 2500
ENCODING 9472
SWIDTH 720 0
DWIDTH 22 0
BBX 22 3 0 8
BITMAP
FFFFFC
FFFFFC
FFFFFC
ENDCHAR
STARTCHAR 2502
ENCODING 9474
SWIDTH 720 0
DWIDTH 22 0
BBX 2 37 10 -9
BITMAP
C0
C0
C0
C0
C0
C0
C0
C0
C0
C0
C0
C0
C0
C0
C0
C0
C0
C0
C0
C0
C0
C0
C0
C0
C0
C0
C0
C0
C0
C0
C0
C0
C0
C0
C0
C0
C0
ENDCHAR
STARTCHAR 250C
ENCODING 9484
SWIDTH 720 0
DWIDTH 22 0
BBX 12 20 10 -9
BITMAP
FFF0
FFF0
FFF0
C000
C000
C000
C000
C000
C000
C000
C000
C000
C000
C000
C000
C000
C000
C000
C000
C000
ENDCHAR
STARTCHAR 2510
ENCODING 9488
SWIDTH 720 0
DWIDTH 22 0
BBX 12 20 0 -9
BITMAP
FFF0
FFF0
FFF0
0030
0030
0030
0030
0030
0030
0030
0030
0030
0030
0030
0030
0030
0030
0030
0030
0030
ENDCHAR
STARTCHAR 2514
ENCODING 9492
SWIDTH 720 0
DWIDTH 22 0
BBX 12 20 10 8
BITMAP
C000
C000
C000
C000
C000
C000
C000
C000
C000
C000
C000
C000
C000
C000
C000
C000
C000
FFF0
FFF0
FFF0
ENDCHAR
STARTCHAR 2518
ENCODING 9496
SWIDTH 720 0
DWIDTH 22 0
BBX 12 20 0 8
BITMAP
0030
0030
0030
0030
0030
0030
0030
0030
0030
0030
0030
0030
0030
0030
0030
0030
0030
FFF0
FFF0
FFF0
ENDCHAR
STARTCHAR 25A1
ENCODING 9633
SWIDTH 752 0
DWIDTH 23 0
BBX 13 12 6 0
BITMAP
7FF8
4008
4008
4008
8008
8008
8010
8010
8010
8010
8010
FFE0
ENDCHAR
STARTCHAR 25AA
ENCODING 9642
SWIDTH 654 0
DWIDTH 20 0
BBX 9 8 6 2
BITMAP
7F80
7F80
7F80
7F80
7F80
FF80
FF00
FF00
ENDCHAR
STARTCHAR 25AB
ENCODING 9643
SWIDTH 654 0
DWIDTH 20 0
BBX 10 8 6 2
BITMAP
7FC0
4040
4040
8080
8080
8080
8080
FF80
ENDCHAR
STARTCHAR 25CA
ENCODING 9674
SWIDTH 720 0
DWIDTH 22 0
BBX 22 26 2 -1
BITMAP
001C00
003C00
007E00
00FF00
01FF00
03EF80
07CFC0
0FC7E0
0F87E0
1F03F0
3E01F8
7C00F8
7C00FC
F800FC
FC01F8
FE03F0
7E07E0
3F07C0
1F8F80
0FDF00
07FE00
07FC00
03F800
01F800
01F000
00E000
ENDCHAR
STARTCHAR 25CF
ENCODING 9679
SWIDTH 654 0
DWIDTH 20 0
BBX 9 8 6 2
BITMAP
1E00
3F00
7F80
7F80
FF80
FF00
7E00
3C00
ENDCHAR
STARTCHAR 25E6
ENCODING 9702
SWIDTH 654 0
DWIDTH 20 0
BBX 9 8 6 2
BITMAP
1E00
6100
8080
8080
8080
8080
4300
3C00
ENDCHAR
STARTCHAR 266A
ENCODING 9834
SWIDTH 523 0
DWIDTH 16 0
BBX 14 22 1 -1
BITMAP
0380
03F0
03F8
03FC
031C
030C
030C
030C
0300
0300
0300
0300
0300
0300
1300
7F00
FF00
FF00
FF00
FE00
FC00
1000
ENDCHAR
STARTCHAR FB01
ENCODING 64257
SWIDTH 654 0
DWIDTH 20 0
BBX 20 26 3 -2
BITMAP
007E00
00FE60
01FFF0
03F9F0
07C1E0
0780C0
078000
0F0000
0FFF80
FFFF80
FFFF80
FFFF80
7E0780
1E0780
1E0F80
1E0F00
1E0F00
3E0F00
3C0F00
3C0F00
3C1F00
3C1E00
3C1E00
7C0E00
780000
780000
ENDCHAR
STARTCHAR FB02
ENCODING 64258
SWIDTH 654 0
DWIDTH 20 0
BBX 20 26 3 -2
BITMAP
007FF0
01FFF0
03FFF0
03E1F0
07C1E0
0781E0
0781E0
0F01E0
0FF3E0
FFFBC0
FFFFC0
FFFBC0
FE03C0
1E03C0
1E07C0
1E0780
1E0780
3E0780
3C0780
3C0F80
3C0F00
3C0F00
3C0F00
7C0F00
780400
780000
ENDCHAR
ENDFONT
